{"glyphs":{"0":{"ha":771,"x_min":68,"x_max":703,"o":"m 386 -18 q 154 114 238 -18 q 68 513 68 253 q 154 908 68 772 q 386 1038 236 1038 q 617 907 535 1038 q 703 513 703 771 q 617 114 703 253 q 386 -18 535 -18 m 386 83 q 579 513 579 83 q 386 935 579 935 q 192 513 192 935 q 386 83 192 83 z "},"e":{"ha":769,"x_min":71,"x_max":711,"o":"m 432 -18 q 176 86 276 -18 q 71 376 71 196 q 175 667 71 553 q 411 774 274 774 q 633 678 553 774 q 711 419 711 583 q 706 347 711 383 l 197 347 q 272 156 203 226 q 447 83 340 83 q 636 143 547 83 l 682 60 q 432 -18 561 -18 m 600 438 q 413 672 600 672 q 269 611 329 672 q 196 438 207 546 l 600 438 z "},"x":{"ha":692,"x_min":21,"x_max":671,"o":"m 269 393 l 40 754 l 176 754 l 353 463 l 358 463 l 519 754 l 651 754 l 422 381 l 671 0 l 532 0 l 421 176 q 340 311 386 240 l 333 311 l 154 0 l 21 0 l 269 393 z "},"p":{"ha":861,"x_min":128,"x_max":788,"o":"m 128 754 l 232 754 l 243 668 l 247 668 q 488 774 376 774 q 711 668 631 774 q 788 389 788 567 q 689 89 788 203 q 460 -18 596 -18 q 251 69 358 -18 l 254 -62 l 254 -318 l 128 -318 l 128 754 m 439 88 q 594 167 535 88 q 656 388 656 250 q 457 667 656 667 q 254 563 367 667 l 254 167 q 439 88 347 88 z "},"o":{"ha":842,"x_min":71,"x_max":771,"o":"m 421 -18 q 176 86 275 -18 q 71 376 71 196 q 176 669 71 558 q 421 774 275 774 q 665 669 567 774 q 771 376 771 558 q 665 86 771 196 q 421 -18 567 -18 m 421 88 q 579 167 519 88 q 640 376 640 246 q 579 588 640 507 q 421 668 519 668 q 263 588 324 668 q 203 376 203 507 q 263 167 203 246 q 421 88 322 88 z "},"r":{"ha":539,"x_min":128,"x_max":542,"o":"m 128 754 l 232 754 l 243 617 l 247 617 q 461 774 333 774 q 542 757 510 774 l 518 646 q 444 658 486 658 q 254 485 321 658 l 254 0 l 128 0 l 128 754 z "},"t":{"ha":524,"x_min":38,"x_max":504,"o":"m 365 -18 q 150 233 150 -18 l 150 651 l 38 651 l 38 747 l 156 754 l 171 965 l 276 965 l 276 754 l 481 754 l 481 651 l 276 651 l 276 231 q 393 85 276 85 q 479 104 429 85 l 504 10 q 365 -18 418 -18 z "}," ":{"ha":311,"x_min":0,"x_max":0,"o":""},"f":{"ha":451,"x_min":46,"x_max":494,"o":"m 467 1003 q 382 1022 424 1022 q 275 874 275 1022 l 275 754 l 435 754 l 435 651 l 275 651 l 275 0 l 149 0 l 149 651 l 46 651 l 46 747 l 149 754 l 149 875 q 368 1124 149 1124 q 494 1099 435 1124 l 467 1003 z "},"m":{"ha":1286,"x_min":128,"x_max":1168,"o":"m 128 754 l 232 754 l 243 644 l 247 644 q 482 774 364 774 q 690 629 640 774 q 939 774 822 774 q 1168 478 1168 774 l 1168 0 l 1042 0 l 1042 461 q 901 663 1042 663 q 711 547 817 663 l 711 0 l 585 0 l 585 461 q 444 663 585 663 q 254 547 357 663 l 254 0 l 128 0 l 128 754 z "},"'":{"ha":386,"x_min":125,"x_max":258,"o":"m 128 928 l 125 1071 l 258 1071 l 256 928 l 231 671 l 153 671 l 128 928 z "},".":{"ha":386,"x_min":101,"x_max":285,"o":"m 193 -18 q 129 8 154 -18 q 101 78 101 36 q 129 149 101 119 q 193 176 156 176 q 258 149 231 176 q 285 78 285 119 q 258 8 285 36 q 193 -18 232 -18 z "},"/":{"ha":544,"x_min":15,"x_max":524,"o":"m 432 1101 l 524 1101 l 108 -249 l 15 -249 l 432 1101 z "},"n":{"ha":849,"x_min":128,"x_max":731,"o":"m 128 754 l 232 754 l 243 646 l 247 646 q 500 774 378 774 q 731 478 731 774 l 731 0 l 604 0 l 604 461 q 461 663 604 663 q 254 547 369 663 l 254 0 l 128 0 l 128 754 z "},"d":{"ha":861,"x_min":74,"x_max":732,"o":"m 385 -18 q 158 85 242 -18 q 74 376 74 190 q 172 667 74 554 q 400 774 265 774 q 613 685 506 774 l 606 815 l 606 1106 l 732 1106 l 732 0 l 629 0 l 617 89 l 614 89 q 385 -18 504 -18 m 413 88 q 606 192 513 88 l 606 588 q 422 667 517 667 q 268 588 329 667 q 204 378 204 506 q 258 164 204 240 q 413 88 313 88 z "},"h":{"ha":843,"x_min":128,"x_max":731,"o":"m 128 1106 l 254 1106 l 254 803 l 250 647 q 500 774 376 774 q 731 478 731 774 l 731 0 l 604 0 l 604 461 q 461 663 604 663 q 254 547 369 663 l 254 0 l 128 0 l 128 1106 z "},"i":{"ha":382,"x_min":104,"x_max":279,"o":"m 128 754 l 254 754 l 254 0 l 128 0 l 128 754 m 192 910 q 129 933 154 910 q 104 992 104 957 q 192 1074 104 1074 q 279 992 279 1074 q 254 933 279 957 q 192 910 229 910 z "},"{":{"ha":469,"x_min":53,"x_max":422,"o":"m 354 -236 q 217 -193 258 -236 q 172 -29 172 -146 q 179 124 172 28 q 186 269 186 218 q 53 392 186 390 l 53 471 q 186 592 186 472 q 179 739 186 643 q 172 892 172 835 q 217 1056 172 1008 q 354 1099 258 1099 l 422 1099 l 422 1028 l 382 1028 q 299 994 321 1028 q 276 885 276 963 q 281 749 276 839 q 285 603 285 658 q 192 435 285 460 l 192 429 q 285 260 285 403 q 281 115 285 206 q 276 -22 276 24 q 299 -131 276 -100 q 382 -164 321 -164 l 422 -164 l 422 -236 l 354 -236 z "},"M":{"ha":1128,"x_min":139,"x_max":989,"o":"m 139 1018 l 294 1018 l 490 474 q 563 261 538 332 l 569 261 q 604 368 582 297 l 639 474 l 833 1018 l 989 1018 l 989 0 l 868 0 l 868 564 q 885 864 868 650 l 879 864 l 799 632 l 606 103 l 519 103 l 326 632 l 246 864 l 240 864 q 256 564 256 619 l 256 0 l 139 0 l 139 1018 z "},"a":{"ha":783,"x_min":81,"x_max":671,"o":"m 301 -18 q 143 38 204 -18 q 81 196 81 96 q 192 385 81 318 q 544 478 301 450 q 389 668 544 668 q 163 588 282 668 l 113 675 q 410 774 267 774 q 671 464 671 774 l 671 0 l 567 0 l 556 90 l 551 90 q 301 -18 421 -18 m 338 83 q 544 183 432 83 l 544 394 q 204 204 204 354 q 338 83 204 83 z "},"T":{"ha":832,"x_min":43,"x_max":789,"o":"m 351 910 l 43 910 l 43 1018 l 789 1018 l 789 910 l 481 910 l 481 0 l 351 0 l 351 910 z "},"y":{"ha":724,"x_min":18,"x_max":706,"o":"m 140 -325 q 51 -310 89 -325 l 76 -208 q 133 -221 111 -221 q 304 -58 251 -221 l 321 -1 l 18 754 l 150 754 l 304 335 q 376 124 357 178 l 383 124 l 447 335 l 582 754 l 706 754 l 421 -62 q 140 -325 328 -325 z "},"}":{"ha":469,"x_min":47,"x_max":417,"o":"m 47 -164 l 88 -164 q 172 -131 149 -164 q 193 -22 193 -100 q 190 115 193 24 q 186 260 186 206 q 278 429 186 403 l 278 435 q 186 603 186 460 q 190 749 186 658 q 193 885 193 839 q 172 994 193 963 q 88 1028 149 1028 l 47 1028 l 47 1099 l 117 1099 q 253 1056 213 1099 q 297 892 297 1008 q 292 739 297 835 q 285 592 285 643 q 417 471 285 472 l 417 392 q 285 269 285 390 q 292 124 285 218 q 297 -29 297 28 q 253 -193 297 -146 q 117 -236 213 -236 l 47 -236 l 47 -164 z "},"\"":{"ha":660,"x_min":125,"x_max":532,"o":"m 128 928 l 125 1071 l 258 1071 l 256 928 l 231 671 l 153 671 l 128 928 m 401 928 l 397 1071 l 532 1071 l 529 928 l 503 671 l 426 671 l 401 928 z "},"s":{"ha":650,"x_min":43,"x_max":600,"o":"m 325 -18 q 43 86 169 -18 l 106 169 q 329 81 215 81 q 442 115 401 81 q 478 199 478 147 q 306 342 478 275 q 154 418 201 381 q 81 560 81 475 q 149 711 81 653 q 340 774 221 774 q 575 689 465 774 l 514 607 q 340 674 424 674 q 236 642 274 674 q 203 565 203 613 q 254 485 203 518 q 369 435 281 468 q 526 358 483 392 q 600 206 600 300 q 529 49 600 110 q 325 -18 454 -18 z "},"c":{"ha":707,"x_min":71,"x_max":668,"o":"m 425 -18 q 174 86 271 -18 q 71 376 71 193 q 181 669 71 558 q 435 774 283 774 q 656 685 554 774 l 590 600 q 439 668 515 668 q 269 588 336 668 q 203 376 203 506 q 268 167 203 246 q 436 88 332 88 q 614 163 532 88 l 668 78 q 425 -18 564 -18 z "},"D":{"ha":954,"x_min":139,"x_max":875,"o":"m 139 1018 l 394 1018 q 751 886 628 1018 q 875 513 875 756 q 753 136 875 269 q 400 0 629 0 l 139 0 l 139 1018 m 383 106 q 653 213 561 106 q 742 513 742 317 q 383 914 742 914 l 268 914 l 268 106 l 383 106 z "},":":{"ha":386,"x_min":101,"x_max":285,"o":"m 193 542 q 129 569 156 542 q 101 638 101 596 q 129 708 101 681 q 193 736 154 736 q 258 708 232 736 q 285 638 285 681 q 258 569 285 596 q 193 542 231 542 m 193 -18 q 129 8 154 -18 q 101 78 101 36 q 129 149 101 119 q 193 176 156 176 q 258 149 231 176 q 285 78 285 119 q 258 8 285 36 q 193 -18 232 -18 z "},"A":{"ha":843,"x_min":4,"x_max":839,"o":"m 574 414 l 525 569 q 422 914 483 699 l 417 914 q 315 569 379 772 l 265 414 l 574 414 m 606 311 l 233 311 l 135 0 l 4 0 l 350 1018 l 493 1018 l 839 0 l 703 0 l 606 311 z "},"v":{"ha":724,"x_min":18,"x_max":706,"o":"m 18 754 l 150 754 l 292 325 l 363 103 l 368 103 l 438 325 l 581 754 l 706 754 l 438 0 l 290 0 l 18 754 z "},"l":{"ha":396,"x_min":128,"x_max":335,"o":"m 261 -18 q 128 150 128 -18 l 128 1106 l 254 1106 l 254 142 q 290 88 254 88 q 317 90 303 88 l 335 -7 q 261 -18 306 -18 z "},"u":{"ha":843,"x_min":118,"x_max":717,"o":"m 347 -18 q 118 276 118 -18 l 118 754 l 244 754 l 244 292 q 278 139 244 186 q 386 92 311 92 q 590 219 488 92 l 590 754 l 717 754 l 717 0 l 611 0 l 601 118 l 597 118 q 347 -18 479 -18 z "},"b":{"ha":858,"x_min":128,"x_max":788,"o":"m 460 -18 q 244 78 349 -18 l 240 78 l 229 0 l 128 0 l 128 1106 l 254 1106 l 254 803 l 250 667 q 486 774 372 774 q 710 668 631 774 q 788 390 788 567 q 689 89 788 203 q 460 -18 596 -18 m 439 88 q 594 167 535 88 q 656 388 656 250 q 457 667 656 667 q 254 563 365 667 l 254 167 q 439 88 344 88 z "},"g":{"ha":782,"x_min":69,"x_max":763,"o":"m 382 -347 q 157 -294 240 -347 q 69 -144 69 -240 q 182 26 69 -46 l 182 32 q 113 156 113 72 q 197 296 113 235 l 197 301 q 99 504 99 381 q 183 701 99 625 q 382 774 264 774 q 488 754 435 774 l 750 754 l 750 657 l 596 657 q 657 501 657 599 q 576 310 657 383 q 382 239 500 239 q 269 265 322 239 q 221 175 221 224 q 353 93 221 93 l 500 93 q 763 -86 763 93 q 660 -269 763 -194 q 382 -347 551 -347 m 382 325 q 494 374 449 325 q 542 504 542 424 q 496 633 542 585 q 382 681 450 681 q 268 635 313 681 q 221 504 221 585 q 268 374 221 424 q 382 325 314 325 m 400 -261 q 575 -212 504 -261 q 640 -106 640 -168 q 486 -12 640 -12 l 356 -12 q 258 0 308 -12 q 181 -128 181 -56 q 239 -225 181 -189 q 400 -261 297 -261 z "},"k":{"ha":767,"x_min":128,"x_max":753,"o":"m 128 1106 l 253 1106 l 253 356 l 256 356 l 579 754 l 719 754 l 467 451 l 753 0 l 615 0 l 394 364 l 253 199 l 253 0 l 128 0 l 128 1106 z "},"=":{"ha":771,"x_min":53,"x_max":718,"o":"m 53 725 l 718 725 l 718 631 l 53 631 l 53 725 m 53 393 l 718 393 l 718 299 l 53 299 l 53 393 z "},",":{"ha":386,"x_min":74,"x_max":307,"o":"m 74 -189 q 213 0 210 -129 q 197 -1 207 -1 q 132 21 158 -1 q 104 88 104 46 q 133 153 104 126 q 200 176 160 176 q 307 26 307 176 q 104 -264 307 -178 l 74 -189 z "},"主":{"ha":1389,"x_min":83,"x_max":1311,"o":"m 1311 40 l 1311 -61 l 83 -61 l 83 40 l 639 40 l 639 381 l 211 381 l 211 481 l 639 481 l 639 785 l 147 785 l 147 886 l 757 886 q 521 1099 668 990 l 604 1157 q 858 933 774 1035 l 793 886 l 1242 886 l 1242 785 l 749 785 l 749 481 l 1185 481 l 1185 381 l 749 381 l 749 40 l 1311 40 z "},"地":{"ha":1389,"x_min":50,"x_max":1335,"o":"m 338 331 q 496 397 458 383 l 517 306 q 90 114 422 261 l 50 217 q 240 292 126 243 l 240 732 l 63 732 l 63 831 l 240 831 l 240 1146 l 338 1146 l 338 831 l 500 831 l 500 732 l 338 732 l 338 331 m 1138 18 q 1217 57 1197 18 q 1242 215 1235 93 q 1335 175 1285 185 q 1286 -21 1322 28 q 1140 -75 1246 -75 l 800 -75 q 639 -37 681 -75 q 596 111 596 1 l 596 549 l 486 503 l 446 592 l 596 656 l 596 1033 l 694 1033 l 694 697 l 881 776 l 881 1163 l 979 1163 l 979 817 l 1163 894 l 1204 929 l 1276 901 l 1271 882 q 1257 363 1271 429 q 1183 271 1247 288 q 1053 261 1144 261 q 1028 350 1043 322 q 1121 349 1061 349 q 1163 385 1154 349 q 1172 793 1172 432 l 979 711 l 979 201 l 881 201 l 881 669 l 694 590 l 694 110 q 715 36 694 54 q 803 18 736 18 l 1138 18 z "},"图":{"ha":1389,"x_min":119,"x_max":1240,"o":"m 94 1101 l 1290 1101 l 1290 -176 l 1188 -176 l 1188 -111 l 195 -111 l 195 -176 l 94 -176 l 94 1101 m 1188 1003 l 195 1003 l 195 -13 l 1188 -13 l 1188 1003 m 241 671 q 547 987 427 805 l 636 945 q 582 871 611 907 l 1062 871 l 1062 791 q 808 574 962 671 q 1158 498 951 526 q 1114 397 1127 437 q 707 521 873 452 q 266 375 541 446 q 220 462 247 420 q 613 574 458 511 q 448 725 517 640 q 308 604 384 663 q 241 671 281 633 m 339 146 l 368 239 q 1020 135 707 195 l 983 32 q 339 146 684 98 m 928 787 l 509 787 q 505 783 507 785 q 704 616 584 682 q 928 787 844 692 m 481 326 l 509 417 q 928 349 708 387 l 899 254 q 481 326 677 299 z "},"_":{"ha":776,"x_min":18,"x_max":757,"o":"m 18 -110 l 757 -110 l 757 -194 l 18 -194 l 18 -110 z "},"陌":{"ha":1389,"x_min":113,"x_max":1310,"o":"m 543 1065 q 386 701 465 874 q 525 392 525 550 q 464 228 525 268 q 382 200 435 207 q 257 200 310 194 q 229 296 254 251 q 340 292 294 289 q 393 306 376 294 q 428 401 428 325 q 286 689 428 540 q 411 1006 360 860 l 208 1006 l 208 -106 l 113 -106 l 113 1106 l 456 1106 l 472 1110 l 543 1065 m 1149 694 l 715 694 l 715 439 l 1149 439 l 1149 694 m 1149 88 l 1149 346 l 715 346 l 715 88 l 1149 88 m 969 1001 q 922 788 938 847 l 1250 788 l 1250 -103 l 1149 -103 l 1149 -8 l 715 -8 l 715 -107 l 618 -107 l 618 788 l 826 788 q 861 1001 847 881 l 574 1001 l 574 1099 l 1310 1099 l 1310 1001 l 969 1001 z "},"域":{"ha":1389,"x_min":54,"x_max":1329,"o":"m 464 267 q 94 81 299 182 l 54 182 q 210 250 104 203 l 210 728 l 64 728 l 64 825 l 210 825 l 210 1146 l 307 1146 l 307 825 l 433 825 l 433 728 l 307 728 l 307 296 l 436 358 l 464 267 m 908 183 q 438 47 676 115 l 410 144 q 899 271 469 158 l 908 183 m 757 649 l 578 649 l 578 415 l 757 415 l 757 649 m 842 732 l 842 332 l 497 332 l 497 732 l 842 732 m 1288 714 q 1085 235 1211 438 q 1211 -7 1138 -7 q 1256 192 1249 -7 q 1329 138 1283 161 q 1292 -53 1318 -3 q 1199 -106 1264 -106 q 1011 132 1081 -106 q 776 -94 913 3 q 700 -26 751 -65 q 982 249 861 75 q 924 863 938 482 l 457 863 l 457 958 l 921 958 q 917 1161 917 1058 l 1017 1161 q 1018 958 1017 1024 l 1236 958 q 1071 1107 1181 1026 l 1131 1158 q 1300 1015 1246 1082 l 1239 958 l 1313 958 l 1313 863 l 1021 863 q 1060 375 1029 590 q 1193 732 1142 531 l 1288 714 z "},"-":{"ha":482,"x_min":64,"x_max":419,"o":"m 64 438 l 419 438 l 419 340 l 64 340 l 64 438 z "},"坚":{"ha":1389,"x_min":79,"x_max":1322,"o":"m 749 1008 q 922 738 808 853 q 1108 1008 1046 854 l 749 1008 m 1233 1079 q 997 674 1165 835 q 1322 526 1135 569 q 1256 435 1281 482 q 922 607 1061 490 q 624 447 799 508 q 567 536 603 500 q 850 676 721 579 q 660 1004 726 813 l 674 1008 l 613 1008 l 613 1099 l 1151 1099 l 1169 1103 l 1233 1079 m 517 453 l 422 453 l 422 1133 l 517 1133 l 517 453 m 256 506 l 161 506 l 161 1069 l 256 1069 l 256 506 m 743 29 l 1314 29 l 1314 -62 l 79 -62 l 79 29 l 640 29 l 640 229 l 218 229 l 218 318 l 640 318 l 640 422 l 743 422 l 743 318 l 1169 318 l 1169 229 l 743 229 l 743 29 z "},"守":{"ha":1389,"x_min":86,"x_max":1303,"o":"m 222 719 l 119 719 l 119 994 l 671 994 q 600 1142 640 1072 l 699 1167 q 785 994 757 1078 l 1265 994 l 1265 719 l 1158 719 l 1158 896 l 222 896 l 222 719 m 335 453 q 565 165 499 296 l 479 107 q 256 401 413 242 l 335 453 m 1303 524 l 950 524 l 950 35 q 883 -79 950 -58 q 619 -97 831 -97 q 583 6 613 -47 q 810 4 719 0 q 844 36 844 4 l 844 524 l 86 524 l 86 625 l 844 625 l 844 819 l 950 819 l 950 625 l 1303 625 l 1303 524 z "},"阵":{"ha":1389,"x_min":129,"x_max":1332,"o":"m 529 1065 q 390 707 447 843 q 515 406 515 565 q 460 246 515 283 q 388 218 433 225 q 296 217 350 214 q 269 310 296 265 q 349 308 313 306 q 392 321 375 308 q 419 417 419 342 q 296 696 419 558 q 406 1008 353 842 l 225 1008 l 225 -106 l 129 -106 l 129 1103 l 444 1103 l 460 1107 l 529 1065 m 1332 160 l 1026 160 l 1026 -106 l 925 -106 l 925 160 l 539 160 l 539 257 l 925 257 l 925 479 l 744 479 q 625 460 644 479 q 592 557 614 501 q 665 667 618 564 q 757 903 706 751 l 553 903 l 553 997 l 785 997 q 828 1163 814 1090 l 933 1139 q 893 997 921 1092 l 1313 997 l 1313 903 l 861 903 q 728 575 797 717 l 925 575 l 925 781 l 1026 781 l 1026 575 l 1294 575 l 1294 479 l 1026 479 l 1026 257 l 1332 257 l 1332 160 z "},"歼":{"ha":1389,"x_min":36,"x_max":1329,"o":"m 515 818 l 575 801 q 144 -103 501 135 q 74 -25 122 -62 q 369 339 265 94 q 193 463 297 399 l 246 540 q 406 438 340 488 q 469 721 450 574 l 269 721 q 106 375 204 510 q 36 453 76 419 q 242 1004 174 636 l 69 1004 l 69 1099 l 621 1099 l 621 1004 l 339 1004 q 297 815 326 925 l 496 815 l 515 818 m 1329 510 l 1017 510 l 1017 -107 l 915 -107 l 915 510 l 610 510 l 610 613 l 915 613 l 915 978 q 672 949 757 957 q 640 1036 661 997 q 1193 1140 1004 1072 l 1278 1057 q 1017 994 1174 1024 l 1017 613 l 1329 613 l 1329 510 z "},"灭":{"ha":1389,"x_min":56,"x_max":1339,"o":"m 754 993 q 743 742 747 799 q 925 251 794 426 q 1339 -6 1068 58 q 1275 -99 1299 -49 q 707 483 843 21 q 121 -110 603 42 q 56 -21 100 -62 q 561 379 438 92 q 646 993 638 558 l 117 993 l 117 1094 l 1271 1094 l 1271 993 l 754 993 m 433 747 q 258 388 357 503 l 165 439 q 340 779 275 556 l 433 747 m 925 442 q 1103 786 1031 599 l 1203 746 q 1011 404 1097 529 l 925 442 z "},"战":{"ha":1389,"x_min":118,"x_max":1346,"o":"m 1201 860 q 1060 1067 1156 953 l 1131 1107 q 1276 907 1229 997 l 1201 860 m 590 444 l 211 444 l 211 92 l 590 92 l 590 444 m 428 539 l 686 539 l 686 -74 l 590 -74 l 590 -3 l 211 -3 l 211 -81 l 118 -81 l 118 539 l 329 539 l 329 1154 l 428 1154 l 428 893 l 715 893 l 715 801 l 428 801 l 428 539 m 1300 607 q 1085 203 1226 392 q 1211 10 1138 14 q 1271 219 1254 8 q 1346 165 1293 193 q 1213 -107 1308 -110 q 1011 115 1085 -101 q 772 -78 896 -7 q 697 -4 742 -35 q 979 221 847 68 q 910 656 936 388 l 719 629 l 706 717 l 901 746 q 879 1154 889 917 l 976 1154 q 996 760 981 956 l 1310 806 l 1324 717 l 1004 671 q 1056 319 1026 457 q 1221 650 1164 474 l 1300 607 z "},"护":{"ha":1389,"x_min":58,"x_max":1279,"o":"m 532 465 q 365 414 476 447 l 365 22 q 317 -81 365 -58 q 135 -101 276 -101 q 101 -1 124 -43 q 239 -3 165 -3 q 265 24 265 -3 l 265 382 l 86 328 l 58 429 q 265 486 128 444 l 265 785 l 79 785 l 79 883 l 265 883 l 265 1161 l 365 1161 l 365 883 l 525 883 l 525 785 l 365 785 l 365 515 l 519 561 l 532 465 m 911 1157 q 1044 964 1004 1053 l 947 922 q 819 1122 911 1008 l 911 1157 m 1178 567 l 1178 829 l 724 829 l 724 567 l 1178 567 m 1279 382 l 1178 382 l 1178 469 l 722 469 q 532 -111 706 81 q 451 -37 504 -71 q 621 554 621 149 l 621 922 l 1279 922 l 1279 382 z "},"卫":{"ha":1389,"x_min":76,"x_max":1315,"o":"m 1315 47 l 1315 -54 l 76 -54 l 76 47 l 582 47 l 582 960 l 164 960 l 164 1061 l 1204 1061 l 1204 476 q 1139 367 1204 389 q 875 349 1085 349 q 833 450 865 400 q 1067 449 1007 443 q 1101 479 1101 450 l 1101 960 l 690 960 l 690 47 l 1315 47 z "},"前":{"ha":1389,"x_min":79,"x_max":1313,"o":"m 571 281 l 571 419 l 264 419 l 264 281 l 571 281 m 264 636 l 264 500 l 571 500 l 571 636 l 264 636 m 671 13 q 621 -83 671 -61 q 428 -100 582 -100 q 394 -10 418 -56 q 544 -11 506 -14 q 571 14 571 -10 l 571 199 l 264 199 l 264 -100 l 165 -100 l 165 725 l 671 725 l 671 13 m 1118 753 l 1219 753 l 1219 24 q 1164 -83 1219 -61 q 944 -101 1110 -104 q 907 -3 935 -54 q 1088 -4 1042 -7 q 1118 24 1118 -3 l 1118 753 m 935 147 l 839 147 l 839 711 l 935 711 l 935 147 m 1313 943 l 1313 849 l 79 849 l 79 943 l 419 943 q 293 1128 383 1022 l 388 1164 q 526 969 481 1064 l 458 943 l 872 943 q 1003 1168 950 1053 l 1111 1132 q 988 943 1063 1049 l 1313 943 z "},"行":{"ha":1389,"x_min":36,"x_max":1318,"o":"m 1285 981 l 604 981 l 604 1078 l 1285 1078 l 1285 981 m 472 1124 q 113 776 322 922 q 49 858 82 825 q 372 1163 256 992 l 472 1124 m 525 831 q 374 622 460 725 l 374 -111 l 269 -111 l 269 507 q 111 363 194 431 q 36 447 78 411 q 428 867 274 614 l 525 831 m 1318 600 l 1113 600 l 1113 28 q 1049 -81 1113 -58 q 794 -94 993 -97 q 757 0 785 -47 q 974 -1 914 -4 q 1007 29 1007 0 l 1007 600 l 544 600 l 544 699 l 1318 699 l 1318 600 z "},"对":{"ha":1389,"x_min":49,"x_max":1328,"o":"m 611 985 q 449 422 564 668 q 608 158 546 278 l 529 82 q 396 318 490 163 q 122 -10 282 115 q 49 72 89 43 q 332 418 210 188 q 88 764 203 615 l 158 825 q 381 522 296 644 q 497 910 460 703 l 76 910 l 76 1003 l 526 1003 l 544 1007 l 611 985 m 1328 757 l 1161 757 l 1161 33 q 1103 -81 1161 -57 q 874 -101 1054 -101 q 839 3 865 -49 q 1026 1 978 -1 q 1060 33 1060 1 l 1060 757 l 664 757 l 664 857 l 1060 857 l 1060 1158 l 1161 1158 l 1161 857 l 1328 857 l 1328 757 m 860 235 q 697 574 824 386 l 782 613 q 951 281 910 431 l 860 235 z "},"决":{"ha":1389,"x_min":58,"x_max":1339,"o":"m 288 775 q 75 1057 226 894 l 157 1107 q 376 833 311 947 l 288 775 m 374 411 q 146 -44 276 186 l 58 18 q 297 475 181 217 l 374 411 m 882 700 q 874 526 882 599 l 1093 526 l 1093 844 l 882 844 l 882 700 m 938 426 q 1339 -15 1044 86 q 1271 -104 1306 -46 q 850 388 965 19 q 422 -110 767 63 q 349 -28 386 -57 q 753 426 683 124 l 428 426 l 428 526 l 769 526 q 776 700 776 601 l 776 844 l 499 844 l 499 943 l 776 943 l 776 1160 l 882 1160 l 882 943 l 1193 943 l 1193 526 l 1331 526 l 1331 426 l 938 426 z "},"N":{"ha":1003,"x_min":139,"x_max":864,"o":"m 139 1018 l 272 1018 l 643 376 l 751 167 l 758 167 q 742 489 742 414 l 742 1018 l 864 1018 l 864 0 l 732 0 l 361 643 l 251 853 l 246 853 q 261 535 261 571 l 261 0 l 139 0 l 139 1018 z "},"W":{"ha":1219,"x_min":35,"x_max":1182,"o":"m 35 1018 l 168 1018 l 306 300 l 335 135 l 340 135 q 414 464 364 244 l 554 1018 l 671 1018 l 814 464 q 886 135 843 339 l 893 135 l 951 464 l 1058 1018 l 1182 1018 l 971 0 l 817 0 l 663 614 l 613 846 l 607 846 l 556 614 l 404 0 l 251 0 l 35 1018 z "},"R":{"ha":882,"x_min":139,"x_max":844,"o":"m 268 536 l 439 536 q 686 732 686 536 q 439 914 686 914 l 268 914 l 268 536 m 699 0 l 451 432 l 268 432 l 268 0 l 139 0 l 139 1018 l 458 1018 q 814 732 814 1018 q 583 446 814 501 l 844 0 l 699 0 z "},";":{"ha":386,"x_min":74,"x_max":307,"o":"m 193 542 q 129 569 156 542 q 101 638 101 596 q 129 708 101 681 q 193 736 154 736 q 258 708 232 736 q 285 638 285 681 q 258 569 285 596 q 193 542 231 542 m 74 -189 q 213 0 210 -129 q 197 -1 207 -1 q 132 21 158 -1 q 104 88 104 46 q 133 153 104 126 q 200 176 160 176 q 307 26 307 176 q 104 -264 307 -178 l 74 -189 z "},"w":{"ha":1114,"x_min":38,"x_max":1076,"o":"m 38 754 l 167 754 l 279 318 l 324 107 l 331 107 q 382 318 369 275 l 499 754 l 622 754 l 740 318 l 793 107 l 799 107 l 846 318 l 957 754 l 1076 754 l 874 0 l 721 0 l 611 407 l 560 624 l 553 624 q 501 404 519 474 l 396 0 l 247 0 l 38 754 z "},"捕":{"ha":1389,"x_min":44,"x_max":1313,"o":"m 522 469 l 354 417 l 354 13 q 304 -89 354 -65 q 122 -107 263 -107 q 90 -12 115 -62 q 228 -14 153 -14 q 254 13 254 -14 l 254 385 q 157 356 219 375 l 67 328 l 44 429 q 254 486 147 456 l 254 788 l 63 788 l 63 883 l 254 883 l 254 1161 l 354 1161 l 354 883 l 508 883 l 508 788 l 354 788 l 354 515 l 510 561 l 522 469 m 957 635 l 957 497 l 1186 497 l 1186 635 l 957 635 m 1186 267 l 1186 410 l 957 410 l 957 267 l 1186 267 m 860 267 l 860 410 l 651 410 l 651 267 l 860 267 m 651 635 l 651 497 l 860 497 l 860 635 l 651 635 m 957 861 l 957 726 l 1283 726 l 1283 -1 q 1238 -90 1283 -72 q 1060 -106 1197 -108 q 1033 -22 1056 -69 q 1164 -22 1119 -26 q 1186 0 1186 -22 l 1186 179 l 957 179 l 957 -93 l 860 -93 l 860 179 l 651 179 l 651 -104 l 556 -104 l 556 726 l 860 726 l 860 861 l 519 861 l 519 957 l 860 957 l 860 1163 l 957 1163 l 957 957 l 1228 957 q 1015 1083 1136 1018 l 1064 1147 q 1288 1024 1208 1075 l 1240 957 l 1313 957 l 1313 861 l 957 861 z "},"猎":{"ha":1389,"x_min":51,"x_max":1324,"o":"m 481 1083 q 356 900 435 999 q 453 417 453 722 q 382 -36 453 63 q 303 -81 353 -72 q 140 -86 243 -92 q 110 13 138 -35 q 261 13 211 6 q 306 36 290 14 q 354 419 354 97 q 353 486 354 464 q 128 225 251 322 q 67 313 101 279 q 339 644 231 422 q 288 819 319 751 q 115 658 196 718 q 51 750 81 721 q 239 911 136 804 q 96 1074 188 990 l 168 1128 q 303 985 239 1068 q 403 1135 368 1068 l 481 1083 m 717 414 l 717 272 l 1131 272 l 1131 414 l 717 414 m 1131 42 l 1131 188 l 717 188 l 717 42 l 1131 42 m 617 503 l 1233 503 l 1233 -103 l 1131 -103 l 1131 -44 l 717 -44 l 717 -106 l 617 -106 l 617 503 m 807 707 l 1024 707 l 1024 889 l 807 889 l 807 707 m 1324 707 l 1324 613 l 522 613 l 522 707 l 707 707 l 707 889 l 558 889 l 558 981 l 707 981 l 707 1161 l 807 1161 l 807 981 l 1024 981 l 1024 1161 l 1124 1161 l 1124 981 l 1288 981 l 1288 889 l 1124 889 l 1124 707 l 1324 707 z "},"区":{"ha":1389,"x_min":139,"x_max":1317,"o":"m 1317 33 l 1317 -65 l 139 -65 l 139 1086 l 1282 1086 l 1282 988 l 240 988 l 240 33 l 1317 33 m 1069 131 q 772 443 961 265 q 399 131 589 254 q 317 207 346 188 q 700 513 521 329 q 361 810 518 681 l 433 871 q 768 585 589 746 q 1013 921 910 742 l 1108 882 q 842 518 996 692 q 1151 204 1051 325 l 1069 131 z "},"资":{"ha":1389,"x_min":74,"x_max":1314,"o":"m 411 890 q 122 1040 308 971 l 174 1113 q 465 971 363 1047 l 411 890 m 489 719 q 103 592 214 628 l 74 688 q 474 810 174 715 l 489 719 m 1043 140 l 1043 421 l 358 421 l 358 131 l 257 131 l 257 515 l 1147 515 l 1147 140 l 1043 140 m 758 381 q 596 57 722 161 q 119 -110 453 -62 q 74 -25 107 -67 q 515 113 386 14 q 658 381 625 196 l 758 381 m 774 182 q 1294 -17 1107 78 l 1233 -101 q 717 107 1046 -1 l 774 182 m 939 953 l 915 882 q 1314 632 1038 692 q 1251 551 1282 606 q 875 801 1010 618 q 510 542 769 618 q 454 617 493 581 q 835 953 764 700 l 671 953 q 526 794 607 861 q 454 858 499 833 q 672 1157 607 976 l 771 1143 q 721 1035 750 1089 l 1190 1035 l 1207 1039 l 1282 1018 q 1171 804 1224 890 l 1081 831 q 1144 953 1093 849 l 939 953 z "},"源":{"ha":1389,"x_min":57,"x_max":1339,"o":"m 356 917 q 125 1075 293 967 l 185 1146 q 417 999 342 1056 l 356 917 m 290 554 q 57 703 197 625 l 117 775 q 351 638 300 674 l 290 554 m 378 358 q 178 -86 290 133 l 86 -29 q 297 415 188 149 l 378 358 m 572 715 q 385 -101 572 164 q 300 -47 356 -71 q 471 715 471 194 l 471 1094 l 1315 1094 l 1315 1000 l 572 1000 l 572 715 m 793 261 q 618 -24 721 100 q 535 29 590 -1 q 700 286 632 131 l 793 261 m 744 443 l 1167 443 l 1167 565 l 744 565 l 744 443 m 744 640 l 1167 640 l 1167 761 l 744 761 l 744 640 m 999 364 l 999 1 q 951 -92 999 -74 q 763 -106 913 -108 q 733 -17 756 -64 q 876 -18 767 -18 q 900 3 900 -17 l 900 364 l 651 364 l 651 840 l 861 840 q 901 981 889 919 l 1017 957 l 960 840 l 1263 840 l 1263 364 l 999 364 m 1181 297 q 1339 32 1289 126 l 1244 -10 q 1092 263 1206 78 l 1181 297 z "},"冲":{"ha":1389,"x_min":76,"x_max":1296,"o":"m 308 778 q 90 1057 242 901 l 168 1110 q 392 840 325 953 l 308 778 m 76 21 q 328 475 204 218 l 403 410 q 163 -46 282 151 l 76 21 m 1194 436 l 1194 783 l 922 783 l 922 436 l 1194 436 m 821 436 l 821 783 l 557 783 l 557 436 l 821 436 m 1296 881 l 1296 264 l 1194 264 l 1194 340 l 922 340 l 922 -104 l 821 -104 l 821 340 l 557 340 l 557 254 l 460 254 l 460 881 l 821 881 l 821 1147 l 922 1147 l 922 881 l 1296 881 z "},"突":{"ha":1389,"x_min":82,"x_max":1325,"o":"m 215 753 l 113 753 l 113 1017 l 663 1017 q 597 1147 628 1094 l 704 1172 q 785 1017 757 1081 l 1274 1017 l 1274 761 l 1168 761 l 1168 924 l 215 924 l 215 753 m 854 874 q 1208 650 1088 751 l 1143 578 q 792 810 1019 686 l 854 874 m 156 646 q 515 882 368 733 l 600 838 q 219 568 422 660 l 156 646 m 775 349 q 1325 -11 914 57 q 1263 -103 1292 -44 q 688 322 840 -17 q 138 -104 572 1 q 82 -15 118 -51 q 588 349 482 74 l 83 349 l 83 444 l 615 444 q 647 650 635 521 l 751 650 q 722 444 742 543 l 979 444 q 815 600 932 508 l 890 640 q 1058 489 1004 561 l 983 444 l 1307 444 l 1307 349 l 775 349 z "},"奇":{"ha":1389,"x_min":78,"x_max":1314,"o":"m 1150 629 q 660 833 936 736 q 172 626 536 675 q 125 707 156 672 q 607 942 519 756 l 147 942 l 147 1033 l 638 1033 q 657 1163 651 1097 l 763 1163 q 743 1033 757 1096 l 1246 1033 l 1246 942 l 718 942 l 706 910 q 1225 703 993 813 l 1150 629 m 319 326 l 319 138 l 672 138 l 672 326 l 319 326 m 319 53 l 319 -37 l 221 -37 l 221 411 l 772 411 l 772 53 l 319 53 m 1314 522 l 1122 522 l 1122 19 q 1057 -90 1122 -68 q 793 -107 1003 -107 q 754 -8 786 -68 q 983 -11 825 -11 q 1018 21 1018 -7 l 1018 522 l 78 522 l 78 617 l 1314 617 l 1314 522 z "},"遇":{"ha":1389,"x_min":60,"x_max":1331,"o":"m 808 747 l 808 860 l 611 860 l 611 747 l 808 747 m 611 933 l 808 933 l 808 1044 l 611 1044 l 611 933 m 1104 1044 l 903 1044 l 903 933 l 1104 933 l 1104 1044 m 1104 860 l 903 860 l 903 747 l 1104 747 l 1104 860 m 554 88 l 460 88 l 460 578 l 808 578 l 808 671 l 518 671 l 518 1121 l 1201 1121 l 1201 671 l 903 671 l 903 578 l 1265 578 l 1265 164 q 1218 82 1265 100 q 1035 68 1179 68 q 1004 143 1026 107 q 1146 143 1117 140 q 1168 164 1168 144 l 1168 492 l 899 492 l 899 335 l 1013 342 q 969 438 994 390 l 1036 453 q 1131 224 1103 328 l 1060 203 q 1042 267 1058 213 l 608 232 l 597 317 q 808 329 693 321 l 808 492 l 554 492 l 554 88 m 344 833 q 100 1019 258 924 l 169 1085 q 417 907 340 986 l 344 833 m 353 146 q 401 115 368 139 q 467 71 442 86 q 826 3 576 3 q 1331 29 1089 3 q 1300 -76 1303 -28 q 824 -92 1092 -92 q 446 -15 571 -92 q 311 65 317 65 q 126 -108 258 65 l 60 -19 q 253 140 171 103 l 253 583 l 79 583 l 79 679 l 353 679 l 353 146 z "},"无":{"ha":1389,"x_min":60,"x_max":1328,"o":"m 1142 26 q 1208 67 1193 26 q 1229 247 1222 104 q 1328 204 1267 219 q 1283 -18 1317 36 q 1149 -74 1247 -74 l 890 -74 q 746 -40 783 -74 q 710 86 710 -7 l 710 560 l 681 560 q 129 -107 578 74 q 60 -22 97 -51 q 578 560 474 135 l 78 560 l 78 661 l 596 661 q 621 968 613 761 l 164 968 l 164 1068 l 1236 1068 l 1236 968 l 722 968 q 697 661 718 797 l 1315 661 l 1315 560 l 815 560 l 815 86 q 831 38 815 50 q 900 26 847 26 l 1142 26 z "},"集":{"ha":1389,"x_min":46,"x_max":1338,"o":"m 681 931 l 344 931 l 344 838 l 681 838 l 681 931 m 681 764 l 344 764 l 344 672 l 681 672 l 681 764 m 681 599 l 344 599 l 344 503 l 681 503 l 681 599 m 243 818 q 122 706 196 768 q 49 772 90 747 q 371 1164 256 929 l 476 1144 q 397 1014 424 1050 l 713 1014 q 649 1139 681 1085 l 740 1167 q 819 1014 797 1079 l 1226 1014 l 1226 931 l 781 931 l 781 838 l 1171 838 l 1171 764 l 781 764 l 781 672 l 1175 672 l 1175 599 l 781 599 l 781 503 l 1272 503 l 1272 419 l 344 419 l 344 378 l 243 378 l 243 818 m 838 228 q 1338 3 1035 78 q 1272 -81 1304 -28 q 742 193 960 11 l 742 -106 l 640 -106 l 640 192 q 114 -92 426 7 q 46 -7 82 -37 q 549 228 347 74 l 79 228 l 79 313 l 640 313 l 640 406 l 742 406 l 742 313 l 1311 313 l 1311 228 l 838 228 z "},"结":{"ha":1389,"x_min":47,"x_max":1304,"o":"m 554 447 q 560 357 551 400 q 93 258 135 281 q 58 358 82 299 q 167 447 97 367 q 314 629 228 508 q 83 592 113 607 q 47 696 57 674 q 126 776 76 701 q 313 1153 238 939 l 417 1110 q 194 707 321 889 l 379 724 q 467 871 426 796 l 560 814 q 246 396 417 581 l 554 447 m 56 76 q 557 175 139 90 l 565 79 q 72 -29 414 44 l 56 76 m 739 329 l 739 47 l 1144 47 l 1144 329 l 739 329 m 639 424 l 1247 424 l 1247 -100 l 1144 -100 l 1144 -47 l 739 -47 l 739 -106 l 639 -106 l 639 424 m 992 878 l 992 663 l 1282 663 l 1282 564 l 604 564 l 604 663 l 886 663 l 886 878 l 568 878 l 568 978 l 886 978 l 886 1163 l 992 1163 l 992 978 l 1304 978 l 1304 878 l 992 878 z "},"关":{"ha":1389,"x_min":72,"x_max":1329,"o":"m 401 1149 q 544 917 501 1028 l 453 867 q 315 1106 411 981 l 401 1149 m 783 417 q 1329 1 949 96 q 1257 -96 1281 -44 q 715 339 892 10 q 146 -104 604 56 q 72 -15 110 -44 q 618 417 536 143 l 100 417 l 100 518 l 639 518 q 642 597 642 574 l 642 765 l 183 765 l 183 867 l 833 867 q 986 1157 924 1006 l 1096 1118 q 944 867 1011 967 l 1219 867 l 1219 765 l 757 765 l 757 596 q 754 518 757 571 l 1294 518 l 1294 417 l 783 417 z "},"隘":{"ha":1389,"x_min":113,"x_max":1331,"o":"m 1197 1115 q 1047 888 1106 963 l 969 921 q 1101 1154 1046 1029 l 1197 1115 m 722 885 q 603 1121 689 996 l 685 1153 q 808 922 772 1032 l 722 885 m 1285 775 l 504 775 l 504 869 l 1285 869 l 1285 775 m 1013 725 q 1311 514 1203 608 l 1250 446 q 956 667 1140 546 l 1013 725 m 496 1069 q 360 711 431 881 q 482 410 482 569 q 429 249 482 288 q 358 222 399 229 q 264 221 319 218 q 239 313 264 269 q 318 311 282 308 q 361 324 344 311 q 390 419 390 343 q 267 700 388 565 q 375 1013 329 857 l 208 1013 l 208 -101 l 113 -101 l 113 1106 l 413 1106 l 429 1111 l 496 1069 m 632 26 l 751 26 l 751 356 l 632 356 l 632 26 m 828 356 l 828 26 l 947 26 l 947 356 l 828 356 m 1025 356 l 1025 26 l 1147 26 l 1147 356 l 1025 356 m 1331 26 l 1331 -65 l 433 -65 l 433 26 l 544 26 l 544 443 l 547 443 q 488 517 515 493 q 771 731 664 606 l 843 682 q 557 443 731 549 l 1238 443 l 1238 26 l 1331 26 z "},"荒":{"ha":1389,"x_min":60,"x_max":1329,"o":"m 397 958 l 83 958 l 83 1050 l 397 1050 l 397 1163 l 499 1163 l 499 1050 l 886 1050 l 886 1163 l 988 1163 l 988 1050 l 1306 1050 l 1306 958 l 988 958 l 988 847 l 886 847 l 886 958 l 499 958 l 499 850 l 397 850 l 397 958 m 381 685 l 381 531 l 1192 531 l 1192 440 l 275 440 l 275 685 l 96 685 l 96 775 l 672 775 q 603 892 640 844 l 699 919 q 783 775 758 836 l 1293 775 l 1293 685 l 381 685 m 308 371 l 411 371 l 411 274 q 135 -112 411 10 q 60 -42 101 -71 q 308 276 308 64 l 308 371 m 635 365 l 738 365 l 738 -93 l 635 -93 l 635 365 m 1201 1 q 1232 26 1225 1 q 1242 143 1240 51 q 1329 104 1265 125 q 1299 -50 1324 -10 q 1213 -89 1275 -89 l 1082 -89 q 982 -62 1008 -89 q 957 38 957 -36 l 957 368 l 1057 368 l 1057 38 q 1064 7 1057 14 q 1094 1 1071 1 l 1201 1 z "},"废":{"ha":1389,"x_min":57,"x_max":1315,"o":"m 661 332 q 856 151 735 231 q 1028 332 967 233 l 661 332 m 1176 390 q 947 97 1100 219 q 1303 -19 1108 17 q 1240 -107 1265 -56 q 861 38 1026 -60 q 507 -112 706 -62 q 451 -29 488 -62 q 774 96 629 13 q 606 256 676 167 q 311 -29 489 82 q 243 53 286 13 q 647 554 522 211 l 524 554 q 382 536 403 554 q 347 631 361 603 q 390 675 369 636 q 464 871 443 763 l 571 856 q 492 647 547 757 l 678 647 q 733 892 707 740 l 833 878 q 779 647 811 757 l 1115 647 q 958 819 1061 714 l 1032 868 q 1192 700 1151 753 l 1117 647 l 1281 647 l 1281 554 l 751 554 q 699 422 728 492 l 1086 422 l 1106 428 l 1176 390 m 1315 1022 l 1315 924 l 265 924 l 265 633 q 146 -110 265 138 q 57 -50 113 -76 q 163 633 163 167 l 163 1022 l 714 1022 q 644 1143 683 1085 l 750 1165 q 838 1022 794 1097 l 1315 1022 z "},"城":{"ha":1389,"x_min":63,"x_max":1343,"o":"m 475 232 q 96 81 446 219 l 63 182 q 225 239 133 206 l 225 729 l 79 729 l 79 825 l 225 825 l 225 1146 l 321 1146 l 321 825 l 453 825 l 453 729 l 321 729 l 321 274 l 456 324 l 475 232 m 1294 685 q 1100 217 1225 411 q 1221 6 1153 6 q 1267 233 1258 6 q 1343 181 1297 199 q 1304 -33 1332 24 q 1208 -92 1275 -92 q 1029 117 1097 -92 q 797 -101 925 -15 q 725 -31 767 -58 q 999 232 882 67 q 932 854 947 465 l 607 854 l 607 668 l 872 668 q 871 626 872 639 q 835 164 865 204 q 764 125 813 131 q 639 125 721 121 q 615 213 633 182 q 724 208 663 208 q 757 222 751 208 q 782 581 776 249 l 607 581 l 607 519 q 435 -111 607 89 q 358 -46 403 -71 q 511 521 511 131 l 511 950 l 929 950 q 925 1163 925 1054 l 1024 1163 q 1025 950 1024 1018 l 1211 950 q 1051 1108 1151 1031 l 1121 1153 q 1286 997 1235 1069 l 1217 950 l 1318 950 l 1318 854 l 1028 854 q 1072 354 1038 579 q 1199 700 1150 499 l 1294 685 z "},"镇":{"ha":1389,"x_min":53,"x_max":1325,"o":"m 244 910 q 107 726 182 806 q 53 825 89 778 q 253 1158 188 956 l 346 1131 q 294 1004 315 1047 l 558 1004 l 558 910 l 244 910 m 542 168 q 561 81 550 113 q 264 -97 283 -75 q 211 -24 249 -64 q 281 99 281 24 l 281 383 l 88 383 l 88 478 l 281 478 l 281 665 l 158 665 l 158 758 l 533 758 l 533 665 l 376 665 l 376 478 l 561 478 l 561 383 l 376 383 l 376 82 l 542 168 m 904 89 q 625 -108 790 -17 q 561 -37 606 -79 q 818 146 724 49 l 904 89 m 1063 143 q 1317 -39 1239 35 l 1246 -107 q 996 82 1157 -21 l 1063 143 m 753 243 l 1144 243 l 1144 336 l 753 336 l 753 243 m 753 783 l 753 694 l 1144 694 l 1144 783 l 753 783 m 1144 632 l 753 632 l 753 550 l 1144 550 l 1144 632 m 753 400 l 1144 400 l 1144 486 l 753 486 l 753 400 m 1325 243 l 1325 153 l 558 153 l 558 243 l 658 243 l 658 856 l 849 856 l 869 949 l 600 949 l 600 1033 l 886 1033 q 907 1160 896 1088 l 1015 1151 l 989 1033 l 1299 1033 l 1299 949 l 969 949 q 944 856 958 904 l 1240 856 l 1240 243 l 1325 243 z "},"后":{"ha":1389,"x_min":50,"x_max":1321,"o":"m 538 386 l 538 60 l 1111 60 l 1111 386 l 538 386 m 435 483 l 1218 483 l 1218 -106 l 1111 -106 l 1111 -36 l 538 -36 l 538 -108 l 435 -108 l 435 483 m 1321 781 l 1321 681 l 318 681 q 135 -110 318 151 q 50 -39 96 -61 q 213 681 213 190 l 213 1038 q 1138 1150 847 1078 l 1224 1068 q 318 951 906 990 l 318 781 l 1321 781 z "},"舍":{"ha":1389,"x_min":58,"x_max":1336,"o":"m 974 813 q 694 1031 822 903 q 417 813 567 908 l 974 813 m 1025 253 l 365 253 l 365 50 l 1025 50 l 1025 253 m 783 1124 q 757 1094 769 1107 q 1336 753 965 889 q 1268 663 1293 711 q 1028 779 1163 706 l 1028 722 l 746 722 l 746 585 l 1250 585 l 1250 492 l 746 492 l 746 344 l 1131 344 l 1131 -104 l 1025 -104 l 1025 -42 l 365 -42 l 365 -106 l 263 -106 l 263 344 l 640 344 l 640 492 l 143 492 l 143 585 l 640 585 l 640 722 l 365 722 l 365 779 q 126 653 250 707 q 58 732 92 703 q 699 1171 476 903 l 783 1124 z "},"要":{"ha":1389,"x_min":79,"x_max":1310,"o":"m 525 324 q 432 199 479 258 q 736 132 515 182 q 933 324 863 204 l 525 324 m 268 621 l 476 621 l 476 808 l 268 808 l 268 621 m 575 893 l 799 893 l 799 1010 l 575 1010 l 575 893 m 897 808 l 897 621 l 1128 621 l 1128 808 l 897 808 m 799 621 l 799 808 l 575 808 l 575 621 l 799 621 m 1046 324 q 861 100 983 190 q 1278 -26 1124 32 l 1192 -107 q 751 33 1006 -32 q 129 -106 542 -71 q 88 -15 115 -54 q 604 72 413 4 q 264 144 421 115 q 406 324 329 217 l 79 324 l 79 414 l 467 414 q 538 536 513 483 l 169 536 l 169 893 l 476 893 l 476 1010 l 101 1010 l 101 1101 l 1288 1101 l 1288 1010 l 897 1010 l 897 893 l 1229 893 l 1229 536 l 585 536 l 647 521 q 586 414 613 457 l 1310 414 l 1310 324 l 1046 324 z "},"塞":{"ha":1389,"x_min":63,"x_max":1333,"o":"m 208 819 l 107 819 l 107 1053 l 664 1053 q 611 1149 650 1081 l 718 1169 q 788 1053 756 1117 l 1283 1053 l 1283 819 l 1181 819 l 1181 963 l 208 963 l 208 819 m 744 14 l 1242 14 l 1242 -72 l 157 -72 l 157 14 l 646 14 l 646 149 l 375 149 l 375 232 l 646 232 l 646 347 l 744 347 l 744 232 l 1021 232 l 1021 149 l 744 149 l 744 14 m 547 479 l 847 479 l 847 581 l 547 581 l 547 479 m 547 657 l 847 657 l 847 753 l 547 753 l 547 657 m 975 392 q 1333 190 1113 253 q 1264 107 1296 157 q 857 392 1008 194 l 533 392 q 129 97 383 190 q 63 178 103 140 q 418 392 281 246 l 88 392 l 88 479 l 449 479 l 449 581 l 244 581 l 244 657 l 449 657 l 449 753 l 224 753 l 224 832 l 449 832 l 449 915 l 547 915 l 547 832 l 847 832 l 847 915 l 947 915 l 947 832 l 1161 832 l 1161 753 l 947 753 l 947 657 l 1142 657 l 1142 581 l 947 581 l 947 479 l 1307 479 l 1307 392 l 975 392 z "},"哨":{"ha":1389,"x_min":108,"x_max":1310,"o":"m 1310 1086 q 1156 825 1231 929 l 1071 860 q 1214 1124 1160 993 l 1310 1086 m 204 936 l 204 332 l 392 332 l 392 936 l 204 936 m 486 232 l 204 232 l 204 125 l 108 125 l 108 1036 l 486 1036 l 486 232 m 689 817 q 554 1076 654 935 l 638 1117 q 778 861 740 979 l 689 817 m 1164 285 l 1164 433 l 678 433 l 678 285 l 1164 285 m 678 671 l 678 524 l 1164 524 l 1164 671 l 678 671 m 1263 24 q 1210 -81 1263 -58 q 997 -97 1169 -97 q 965 0 990 -50 q 1136 -1 1090 -4 q 1164 25 1164 -1 l 1164 196 l 678 196 l 678 -107 l 581 -107 l 581 768 l 878 768 l 878 1163 l 976 1163 l 976 768 l 1263 768 l 1263 24 z "},"站":{"ha":1389,"x_min":69,"x_max":1328,"o":"m 340 917 q 249 1128 313 1013 l 335 1154 q 433 949 404 1047 l 340 917 m 606 258 l 615 164 l 94 32 l 69 133 l 369 201 q 460 760 424 421 l 557 742 q 456 222 496 386 l 606 258 m 224 743 q 294 249 282 454 l 207 232 q 140 728 199 443 l 224 743 m 86 903 l 622 903 l 622 807 l 86 807 l 86 903 m 1165 406 l 749 406 l 749 57 l 1165 57 l 1165 406 m 978 776 l 978 503 l 1269 503 l 1269 -100 l 1165 -100 l 1165 -40 l 749 -40 l 749 -106 l 649 -106 l 649 503 l 874 503 l 874 1163 l 978 1163 l 978 875 l 1328 875 l 1328 776 l 978 776 z "},"商":{"ha":1389,"x_min":90,"x_max":1301,"o":"m 625 578 q 357 342 518 451 q 310 422 336 390 q 551 613 467 521 l 625 578 m 528 308 l 528 147 l 858 147 l 858 308 l 528 308 m 528 71 l 528 7 l 438 7 l 438 386 l 944 386 l 944 71 l 528 71 m 1047 347 q 776 561 960 431 l 835 622 q 1108 419 1015 500 l 1047 347 m 1225 8 q 1171 -85 1225 -64 q 942 -99 1125 -99 q 910 -19 932 -56 q 1099 -19 1035 -24 q 1129 10 1129 -18 l 1129 638 l 268 638 l 268 -104 l 169 -104 l 169 724 l 810 724 q 913 913 874 819 l 1022 889 q 915 724 950 769 l 1225 724 l 1225 8 m 476 921 q 564 767 543 813 l 469 729 q 383 890 440 796 l 476 921 m 1301 1013 l 1301 924 l 90 924 l 90 1013 l 667 1013 q 613 1140 638 1092 l 713 1167 q 779 1013 761 1067 l 1301 1013 z "},"店":{"ha":1389,"x_min":49,"x_max":1306,"o":"m 1093 307 l 507 307 l 507 58 l 1093 58 l 1093 307 m 814 683 l 1263 683 l 1263 589 l 814 589 l 814 403 l 1196 403 l 1196 -86 l 1093 -86 l 1093 -33 l 507 -33 l 507 -89 l 407 -89 l 407 403 l 710 403 l 710 847 l 814 847 l 814 683 m 1306 993 l 1306 893 l 283 893 l 283 633 q 139 -107 283 138 q 49 -49 94 -69 q 179 633 179 172 l 179 993 l 721 993 q 649 1133 683 1081 l 747 1158 q 836 993 800 1085 l 1306 993 z "},"营":{"ha":1389,"x_min":89,"x_max":1301,"o":"m 338 193 l 338 29 l 1072 29 l 1072 193 l 338 193 m 239 283 l 1174 283 l 1174 -108 l 1072 -108 l 1072 -58 l 338 -58 l 338 -111 l 239 -111 l 239 283 m 968 568 l 433 568 l 433 446 l 968 446 l 968 568 m 1069 643 l 1069 371 l 336 371 l 336 643 l 1069 643 m 129 817 l 1271 817 l 1271 547 l 1171 547 l 1171 733 l 225 733 l 225 547 l 129 547 l 129 817 m 1301 1047 l 1301 953 l 988 953 l 988 854 l 886 854 l 886 953 l 496 953 l 496 854 l 394 854 l 394 953 l 89 953 l 89 1047 l 394 1047 l 394 1161 l 496 1161 l 496 1047 l 886 1047 l 886 1161 l 988 1161 l 988 1047 l 1301 1047 z "},"垒":{"ha":1389,"x_min":76,"x_max":1310,"o":"m 985 793 q 817 568 906 665 l 1125 592 q 1033 722 1069 676 l 1113 758 q 1292 490 1226 621 l 1206 447 q 1169 518 1185 490 q 711 468 744 482 q 682 554 700 515 q 744 603 708 558 q 896 828 828 690 l 985 793 m 1139 782 q 1060 869 1108 822 q 229 817 264 831 q 199 908 218 865 q 300 953 240 917 q 586 1161 449 1029 l 668 1107 q 399 918 539 1000 l 981 942 q 839 1056 897 1015 l 914 1104 q 1221 838 1114 967 l 1139 782 m 575 442 q 546 508 565 471 q 107 460 143 476 q 76 549 97 504 q 142 594 107 556 q 301 811 242 700 l 393 776 q 218 561 313 656 l 510 582 q 433 711 469 658 l 514 742 q 660 478 619 586 l 575 442 m 1310 39 l 1310 -56 l 78 -56 l 78 39 l 640 39 l 640 215 l 210 215 l 210 307 l 640 307 l 640 436 l 743 436 l 743 307 l 1176 307 l 1176 215 l 743 215 l 743 39 l 1310 39 z "},"岗":{"ha":1389,"x_min":156,"x_max":1243,"o":"m 1229 846 l 160 846 l 160 1113 l 261 1113 l 261 938 l 640 938 l 640 1163 l 742 1163 l 742 938 l 1125 938 l 1125 1113 l 1229 1113 l 1229 846 m 965 56 q 725 253 876 143 q 375 32 567 125 q 303 111 349 71 q 644 308 489 189 q 336 499 490 414 l 401 561 q 719 369 543 485 q 919 601 842 479 l 1013 565 q 799 317 929 436 q 1038 129 954 208 l 965 56 m 1243 24 q 1182 -86 1243 -64 q 936 -103 1132 -103 q 900 -4 928 -60 q 1108 -7 1043 -11 q 1142 24 1142 -6 l 1142 643 l 260 643 l 260 -103 l 156 -103 l 156 739 l 1243 739 l 1243 24 z "},"驻":{"ha":1389,"x_min":54,"x_max":1329,"o":"m 931 907 q 832 1128 907 993 l 924 1160 q 1028 943 994 1047 l 931 907 m 428 211 q 75 114 251 161 l 54 204 q 418 294 106 215 l 428 211 m 581 513 q 578 469 579 482 q 493 -58 549 0 q 403 -100 461 -96 q 236 -99 339 -106 q 208 -11 233 -53 q 365 -18 276 -18 q 414 -1 401 -18 q 483 428 458 42 l 110 428 q 153 904 138 632 l 243 899 q 208 513 231 718 l 385 513 q 429 1024 414 747 l 99 1024 l 99 1113 l 525 1113 q 475 513 499 719 l 581 513 m 1329 31 l 1329 -62 l 567 -62 l 567 31 l 904 31 l 904 396 l 628 396 l 628 488 l 904 488 l 904 807 l 599 807 l 599 900 l 1304 900 l 1304 807 l 1007 807 l 1007 488 l 1258 488 l 1258 396 l 1007 396 l 1007 31 l 1329 31 z "},"扎":{"ha":1389,"x_min":85,"x_max":1325,"o":"m 622 475 l 415 417 l 415 17 q 364 -87 415 -64 q 176 -106 317 -107 q 143 -11 169 -65 q 286 -12 210 -12 q 314 15 314 -11 l 314 388 l 115 332 l 85 433 q 314 489 172 453 l 314 786 l 93 786 l 93 883 l 314 883 l 314 1161 l 415 1161 l 415 883 l 614 883 l 614 786 l 415 786 l 415 515 q 608 568 526 547 l 622 475 m 1147 25 q 1211 76 1194 25 q 1232 281 1225 121 q 1325 235 1268 249 q 1283 -3 1314 58 q 1153 -69 1247 -69 l 915 -69 q 781 -31 815 -69 q 746 115 746 7 l 746 1149 l 847 1149 l 847 113 q 861 42 847 57 q 925 25 876 25 l 1147 25 z "},"旷":{"ha":1389,"x_min":113,"x_max":1304,"o":"m 208 965 l 208 660 l 388 660 l 388 965 l 208 965 m 388 247 l 388 565 l 208 565 l 208 247 l 388 247 m 208 153 l 208 44 l 113 44 l 113 1060 l 485 1060 l 485 153 l 208 153 m 1304 853 l 704 853 l 704 586 q 528 -115 704 113 q 440 -56 494 -79 q 603 586 603 149 l 603 953 l 936 953 q 856 1118 914 1011 l 943 1153 q 1039 968 1004 1058 l 1007 953 l 1304 953 l 1304 853 z "},"野":{"ha":1389,"x_min":60,"x_max":1340,"o":"m 193 624 l 358 624 l 358 775 l 193 775 l 193 624 m 193 856 l 358 856 l 358 1007 l 193 1007 l 193 856 m 611 1007 l 447 1007 l 447 856 l 611 856 l 611 1007 m 611 775 l 447 775 l 447 624 l 611 624 l 611 775 m 453 97 l 735 136 l 738 44 l 72 -54 l 60 47 q 353 85 142 56 l 353 286 l 103 286 l 103 381 l 353 381 l 353 538 l 106 538 l 106 1093 l 701 1093 l 701 538 l 453 538 l 453 381 l 701 381 l 701 286 l 453 286 l 453 97 m 1340 632 q 1224 304 1269 399 l 1139 328 q 1218 549 1182 424 l 1054 549 l 1054 19 q 999 -87 1054 -64 q 783 -106 954 -106 q 749 -3 778 -60 q 925 -4 878 -7 q 953 22 953 -4 l 953 549 l 729 549 l 729 646 l 1090 646 q 800 849 960 767 l 865 911 q 1004 829 935 878 q 1157 997 1089 906 l 747 997 l 747 1090 l 1229 1090 l 1251 1096 l 1318 1049 q 1076 779 1222 901 q 1199 676 1144 731 l 1169 646 l 1254 646 l 1271 650 l 1340 632 z "},"房":{"ha":1389,"x_min":51,"x_max":1271,"o":"m 297 936 l 297 789 l 1122 789 l 1122 936 l 297 936 m 297 694 q 143 -104 297 164 q 51 -53 107 -74 q 194 694 194 188 l 194 1025 l 661 1025 q 617 1135 628 1111 l 715 1163 q 775 1025 744 1107 l 1224 1025 l 1224 700 l 297 700 l 297 694 m 706 429 q 688 306 694 349 l 1113 306 l 1113 304 l 1186 304 q 1182 264 1185 276 q 1108 -57 1156 -15 q 1014 -92 1076 -87 q 822 -87 925 -94 q 793 -3 817 -40 q 972 -11 885 -11 q 1025 1 1011 -11 q 1078 222 1057 29 l 664 222 q 338 -104 590 -11 q 278 -26 317 -60 q 524 153 449 33 q 603 429 585 250 l 340 429 l 340 515 l 782 515 q 700 664 751 582 l 788 694 q 876 546 849 608 l 801 515 l 1271 515 l 1271 429 l 706 429 z "},"车":{"ha":1389,"x_min":90,"x_max":1303,"o":"m 1303 156 l 811 156 l 811 -107 l 704 -107 l 704 156 l 90 156 l 90 257 l 704 257 l 704 467 l 386 467 q 238 447 260 467 q 199 554 217 515 q 294 663 235 563 q 404 861 338 725 l 111 861 l 111 961 l 451 961 q 535 1169 507 1089 l 650 1136 q 572 961 594 1008 l 1278 961 l 1278 861 l 524 861 q 350 565 444 708 l 704 565 l 704 775 l 811 775 l 811 565 l 1188 565 l 1188 467 l 811 467 l 811 257 l 1303 257 l 1303 156 z "},"未":{"ha":1389,"x_min":53,"x_max":1336,"o":"m 806 493 q 1336 57 1015 197 q 1261 -31 1297 25 q 746 418 965 118 l 746 -107 l 639 -107 l 639 413 q 128 -29 426 121 q 53 56 88 28 q 581 493 376 200 l 90 493 l 90 594 l 639 594 l 639 833 l 190 833 l 190 935 l 639 935 l 639 1161 l 746 1161 l 746 935 l 1208 935 l 1208 833 l 746 833 l 746 594 l 1304 594 l 1304 493 l 806 493 z "},"知":{"ha":1389,"x_min":50,"x_max":1256,"o":"m 456 651 q 454 604 456 621 l 715 604 l 715 506 l 449 506 q 435 413 446 472 q 711 111 518 331 l 642 24 q 411 307 568 129 q 124 -103 332 46 q 51 -26 94 -56 q 346 506 311 158 l 67 506 l 67 604 l 353 604 l 353 881 l 247 881 q 135 663 192 742 q 50 722 111 686 q 222 1163 164 872 l 322 1143 q 279 976 308 1067 l 675 976 l 675 881 l 456 881 l 456 651 m 1153 140 l 1153 944 l 860 944 l 860 140 l 1153 140 m 1256 1042 l 1256 -53 l 1153 -53 l 1153 43 l 860 43 l 860 -67 l 760 -67 l 760 1042 l 1256 1042 z "},"随":{"ha":1389,"x_min":114,"x_max":1336,"o":"m 915 717 l 915 601 l 1172 601 l 1172 717 l 915 717 m 1172 406 l 1172 526 l 915 526 l 915 406 l 1172 406 m 826 683 q 728 574 794 638 q 658 642 697 613 q 858 917 775 738 l 692 917 l 692 1007 l 892 1007 q 935 1163 917 1074 l 1026 1146 q 989 1007 1004 1051 l 1322 1007 l 1322 917 l 956 917 q 900 797 935 860 l 1265 797 l 1265 192 q 1226 111 1265 129 q 1081 96 1197 96 q 1056 175 1074 138 q 1154 174 1100 174 q 1172 192 1172 175 l 1172 329 l 915 329 l 915 97 l 826 97 l 826 683 m 597 786 q 456 1004 550 892 l 525 1042 q 671 829 626 922 l 597 786 m 467 1069 q 350 696 399 833 q 453 388 453 553 q 406 228 453 265 q 340 203 382 210 q 264 201 311 199 q 242 290 261 254 q 306 288 274 285 q 342 300 326 289 q 365 399 365 319 q 264 685 365 547 q 356 1010 304 803 l 206 1010 l 206 -107 l 114 -107 l 114 1103 l 389 1103 l 403 1107 l 467 1069 m 667 144 l 704 115 q 753 79 732 93 q 1018 13 847 13 q 1336 31 1188 13 q 1313 -67 1315 -25 q 1017 -76 1199 -76 q 732 1 840 -76 q 615 81 625 81 q 468 -93 569 81 l 404 -8 q 576 154 504 124 l 576 543 l 450 543 l 450 632 l 667 632 l 667 144 z "},"机":{"ha":1389,"x_min":56,"x_max":1332,"o":"m 554 392 q 410 617 517 457 l 410 -106 l 308 -106 l 308 568 q 111 169 214 300 q 56 260 99 199 q 296 796 215 468 l 76 796 l 76 894 l 308 894 l 308 1161 l 410 1161 l 410 894 l 603 894 l 603 796 l 410 796 l 410 750 q 614 490 468 685 l 554 392 m 1208 6 q 1235 15 1225 6 q 1249 68 1243 25 q 1253 265 1253 164 q 1332 221 1279 240 q 1321 6 1332 61 q 1285 -71 1311 -49 q 1213 -90 1257 -90 l 1144 -90 q 1067 -62 1099 -90 q 1038 101 1038 -37 l 1038 985 l 783 985 l 783 639 q 556 -110 783 126 q 475 -40 524 -65 q 681 640 681 171 l 681 1083 l 1139 1083 l 1139 92 q 1147 14 1139 22 q 1171 6 1158 6 l 1208 6 z "},"节":{"ha":1389,"x_min":82,"x_max":1308,"o":"m 1175 214 q 1111 100 1175 121 q 844 83 1061 83 q 813 190 840 129 q 1036 189 979 183 q 1069 217 1069 189 l 1069 575 l 610 575 l 610 -103 l 503 -103 l 503 575 l 140 575 l 140 675 l 1175 675 l 1175 214 m 1308 1004 l 1308 906 l 986 906 l 986 749 l 879 749 l 879 906 l 508 906 l 508 749 l 404 749 l 404 906 l 82 906 l 82 1004 l 404 1004 l 404 1163 l 508 1163 l 508 1004 l 879 1004 l 879 1163 l 986 1163 l 986 1004 l 1308 1004 z "},"点":{"ha":1389,"x_min":63,"x_max":1315,"o":"m 1053 644 l 332 644 l 332 397 l 1053 397 l 1053 644 m 1157 300 l 233 300 l 233 742 l 632 742 l 632 1163 l 735 1163 l 735 1014 l 1260 1014 l 1260 917 l 735 917 l 735 742 l 1157 742 l 1157 300 m 63 -60 q 251 217 172 33 l 349 192 q 157 -106 268 1 l 63 -60 m 572 188 q 607 -81 604 31 l 504 -94 q 474 179 504 29 l 572 188 m 851 199 q 956 -67 926 53 l 856 -90 q 758 178 831 31 l 851 199 m 1131 225 q 1315 -56 1263 61 l 1218 -94 q 1040 190 1167 29 l 1131 225 z "},"竞":{"ha":1389,"x_min":61,"x_max":1313,"o":"m 1240 958 l 154 958 l 154 1049 l 650 1049 q 611 1143 635 1097 l 711 1167 q 761 1049 740 1117 l 1240 1049 l 1240 958 m 1308 704 l 82 704 l 82 790 l 407 790 q 353 917 390 847 l 447 943 q 515 790 488 872 l 875 790 q 940 944 914 869 l 1043 919 q 981 790 1001 831 l 1308 790 l 1308 704 m 367 363 l 1022 363 l 1022 535 l 367 535 l 367 363 m 1153 4 q 1203 35 1192 4 q 1219 176 1215 65 q 1313 138 1256 151 q 1274 -44 1304 1 q 1163 -89 1244 -89 l 944 -89 q 815 -61 849 -89 q 783 44 783 -35 l 783 276 l 600 276 q 471 28 569 111 q 115 -107 361 -64 q 61 -19 96 -54 q 382 85 286 15 q 494 276 469 147 l 267 276 l 267 622 l 1126 622 l 1126 276 l 886 276 l 886 46 q 899 13 886 19 q 954 4 911 4 l 1153 4 z "},"赛":{"ha":1389,"x_min":54,"x_max":1336,"o":"m 199 853 l 103 853 l 103 1065 l 661 1065 q 621 1144 651 1089 l 722 1169 q 778 1065 763 1107 l 1292 1065 l 1292 853 l 1192 853 l 1192 983 l 199 983 l 199 853 m 756 300 q 590 17 719 101 q 135 -103 460 -68 q 94 -21 122 -56 q 513 74 397 6 q 654 300 626 139 l 756 300 m 774 143 q 1296 -25 1071 69 l 1239 -103 q 721 76 1050 -11 l 774 143 m 1003 413 q 894 514 946 453 l 511 514 q 399 413 458 456 l 1003 413 m 538 590 l 854 590 l 854 679 l 538 679 l 538 590 m 538 740 l 854 740 l 854 824 l 538 824 l 538 740 m 1003 514 q 1336 349 1143 396 q 1272 268 1294 310 q 1085 357 1175 301 l 1085 96 l 986 96 l 986 333 l 400 333 l 400 90 l 306 90 l 306 351 q 117 261 217 296 q 54 336 88 307 q 397 514 250 393 l 88 514 l 88 590 l 440 590 l 440 679 l 249 679 l 249 740 l 440 740 l 440 824 l 228 824 l 228 889 l 440 889 l 440 953 l 538 953 l 538 889 l 854 889 l 854 953 l 951 953 l 951 889 l 1160 889 l 1160 824 l 951 824 l 951 740 l 1144 740 l 1144 679 l 951 679 l 951 590 l 1306 590 l 1306 514 l 1003 514 z "},"虫":{"ha":1389,"x_min":75,"x_max":1319,"o":"m 629 506 l 629 839 l 286 839 l 286 506 l 629 506 m 739 839 l 739 506 l 1082 506 l 1082 839 l 739 839 m 1218 -118 q 1142 17 1194 -68 q 89 -46 539 -24 l 75 64 q 629 88 307 72 l 629 404 l 182 404 l 182 940 l 629 940 l 629 1164 l 739 1164 l 739 940 l 1190 940 l 1190 404 l 739 404 l 739 93 l 1078 111 q 947 278 1025 185 l 1043 318 q 1319 -71 1242 93 l 1218 -118 z "},"晴":{"ha":1389,"x_min":110,"x_max":1326,"o":"m 196 974 l 196 665 l 368 665 l 368 974 l 196 974 m 368 258 l 368 575 l 196 575 l 196 258 l 368 258 m 456 165 l 196 165 l 196 54 l 110 54 l 110 1065 l 456 1065 l 456 165 m 1143 193 l 1143 296 l 715 296 l 715 193 l 1143 193 m 715 474 l 715 371 l 1143 371 l 1143 474 l 715 474 m 1240 0 q 1193 -90 1240 -71 q 1014 -106 1156 -106 q 985 -19 1007 -65 q 1121 -21 1047 -21 q 1143 0 1143 -21 l 1143 119 l 715 119 l 715 -106 l 619 -106 l 619 553 l 1240 553 l 1240 0 m 1326 715 l 1326 636 l 521 636 l 521 715 l 876 715 l 876 810 l 593 810 l 593 885 l 876 885 l 876 969 l 560 969 l 560 1049 l 876 1049 l 876 1161 l 976 1161 l 976 1049 l 1300 1049 l 1300 969 l 976 969 l 976 885 l 1274 885 l 1274 810 l 976 810 l 976 715 l 1326 715 z "},"朗":{"ha":1389,"x_min":79,"x_max":1267,"o":"m 235 903 l 235 764 l 571 764 l 571 903 l 235 903 m 571 528 l 571 675 l 235 675 l 235 528 l 571 528 m 576 -7 q 535 101 568 22 q 133 -86 179 -51 q 79 -8 111 -37 q 133 108 133 39 l 133 997 l 368 997 q 301 1129 333 1079 l 400 1153 q 481 997 457 1067 l 671 997 l 671 433 l 235 433 l 235 82 l 493 189 q 399 354 449 276 l 486 393 q 672 39 618 188 l 576 -7 m 1167 439 l 1167 679 l 883 679 l 883 585 q 879 439 883 517 l 1167 439 m 883 1001 l 883 774 l 1167 774 l 1167 1001 l 883 1001 m 1267 35 q 1217 -75 1267 -51 q 1014 -94 1174 -94 q 981 8 1001 -35 q 1138 6 1053 6 q 1167 35 1167 7 l 1167 343 l 872 343 q 729 -107 842 54 q 646 -49 696 -71 q 785 585 785 149 l 785 1096 l 1267 1096 l 1267 35 z "},"雷":{"ha":1389,"x_min":110,"x_max":1281,"o":"m 328 361 l 328 235 l 640 235 l 640 361 l 328 361 m 1064 361 l 742 361 l 742 235 l 1064 235 l 1064 361 m 1064 25 l 1064 154 l 742 154 l 742 25 l 1064 25 m 640 25 l 640 154 l 328 154 l 328 25 l 640 25 m 228 443 l 1165 443 l 1165 -97 l 1064 -97 l 1064 -57 l 328 -57 l 328 -108 l 228 -108 l 228 443 m 242 611 l 572 611 l 572 538 l 242 538 l 242 611 m 571 769 l 571 694 l 272 694 l 272 769 l 571 769 m 810 611 l 1151 611 l 1151 538 l 810 538 l 810 611 m 1117 769 l 1117 694 l 810 694 l 810 769 l 1117 769 m 1281 940 l 1281 640 l 1183 640 l 1183 856 l 742 856 l 742 492 l 640 492 l 640 856 l 204 856 l 204 640 l 110 640 l 110 940 l 640 940 l 640 1032 l 192 1032 l 192 1117 l 1197 1117 l 1197 1032 l 742 1032 l 742 940 l 1281 940 z "},"暴":{"ha":1389,"x_min":58,"x_max":1335,"o":"m 608 60 q 226 -78 399 -19 l 182 1 q 594 132 342 46 l 608 60 m 474 114 q 374 229 435 175 l 449 268 q 553 157 522 204 l 474 114 m 644 313 l 740 313 l 740 -11 q 693 -96 740 -76 q 503 -108 656 -108 q 474 -29 496 -69 q 619 -29 593 -32 q 644 -8 644 -29 l 644 313 m 803 128 q 1189 -10 1004 65 l 1140 -81 q 756 64 971 -3 l 803 128 m 1032 238 q 910 115 961 157 l 842 153 q 946 281 906 222 l 1032 238 m 524 443 l 864 443 l 864 549 l 524 549 l 524 443 m 524 631 l 864 631 l 864 721 l 524 721 l 524 631 m 335 794 l 1058 794 l 1058 883 l 335 883 l 335 794 m 335 954 l 1058 954 l 1058 1039 l 335 1039 l 335 954 m 1010 357 q 1335 207 1150 258 q 1274 135 1310 188 q 886 357 1047 210 l 513 357 q 119 122 353 197 q 58 196 90 167 q 392 357 250 247 l 90 357 l 90 443 l 424 443 l 424 549 l 158 549 l 158 631 l 424 631 l 424 721 l 235 721 l 235 1113 l 1161 1113 l 1161 721 l 964 721 l 964 631 l 1238 631 l 1238 549 l 964 549 l 964 443 l 1304 443 l 1304 357 l 1010 357 z "},"骄":{"ha":1389,"x_min":39,"x_max":1350,"o":"m 411 218 q 60 122 179 153 l 39 208 q 401 297 126 226 l 411 218 m 551 517 q 549 474 550 486 q 464 -50 519 8 q 374 -92 435 -86 q 208 -89 300 -94 q 181 -3 206 -44 q 338 -10 268 -10 q 388 6 374 -10 q 456 432 431 49 l 97 432 q 138 908 126 658 l 225 903 q 193 517 208 651 l 361 517 q 410 1008 386 700 l 86 1008 l 86 1097 l 506 1097 q 451 517 482 757 l 551 517 m 767 464 l 865 464 l 865 343 q 646 -110 865 49 q 568 -43 606 -64 q 767 346 767 93 l 767 464 m 1065 461 l 1167 461 l 1167 -103 l 1065 -103 l 1065 461 m 1118 717 q 1350 476 1219 557 q 1282 401 1310 444 q 1021 717 1124 514 l 911 717 q 635 381 821 504 q 571 463 608 426 q 804 717 722 554 l 588 717 l 588 811 l 843 811 q 890 990 875 903 q 665 974 783 981 q 638 1057 657 1019 q 1193 1139 1013 1082 l 1256 1057 q 990 1004 1147 1022 q 946 811 976 906 l 1335 811 l 1335 717 l 1118 717 z "},"阳":{"ha":1389,"x_min":125,"x_max":1256,"o":"m 568 1065 q 390 711 481 878 q 553 411 553 569 q 489 249 553 290 q 404 221 457 228 q 285 219 351 215 q 257 314 282 272 q 364 311 311 308 q 421 326 400 314 q 457 421 457 347 q 290 700 454 563 q 435 1011 358 825 l 221 1011 l 221 -104 l 125 -104 l 125 1106 l 482 1106 l 499 1110 l 568 1065 m 1154 107 l 1154 511 l 743 511 l 743 107 l 1154 107 m 743 981 l 743 607 l 1154 607 l 1154 981 l 743 981 m 1256 1078 l 1256 -85 l 1154 -85 l 1154 11 l 743 11 l 743 -94 l 643 -94 l 643 1078 l 1256 1078 z "},"天":{"ha":1389,"x_min":63,"x_max":1336,"o":"m 769 526 q 1336 -10 924 108 q 1267 -103 1299 -46 q 696 449 867 31 q 129 -104 583 83 q 63 -18 110 -61 q 603 526 513 165 l 97 526 l 97 631 l 624 631 q 632 788 632 696 l 632 950 l 146 950 l 146 1054 l 1238 1054 l 1238 950 l 739 950 l 739 786 q 732 631 739 697 l 1297 631 l 1297 526 l 769 526 z "},"烈":{"ha":1389,"x_min":65,"x_max":1328,"o":"m 967 467 l 867 467 l 867 1017 l 967 1017 l 967 467 m 65 -71 q 246 196 171 42 l 342 169 q 163 -111 257 -1 l 65 -71 m 574 165 q 608 -82 606 21 l 507 -97 q 478 156 507 13 l 574 165 m 689 881 l 750 861 q 153 215 651 350 q 101 306 133 269 q 458 486 322 357 q 281 626 383 561 l 346 683 q 519 556 442 624 q 635 792 600 661 l 353 792 q 133 544 261 650 q 68 628 101 594 q 363 1003 253 764 l 106 1003 l 106 1097 l 769 1097 l 769 1003 l 468 1003 q 404 876 433 926 l 671 876 l 689 881 m 857 176 q 947 -74 922 43 l 846 -96 q 763 158 826 10 l 857 176 m 1235 361 q 1175 251 1235 275 q 947 235 1128 235 q 910 333 940 272 q 1100 332 996 332 q 1132 361 1132 333 l 1132 1140 l 1235 1140 l 1235 361 m 1140 204 q 1328 -67 1264 58 l 1229 -112 q 1049 165 1176 3 l 1140 204 z "},"酷":{"ha":1389,"x_min":69,"x_max":1335,"o":"m 404 1019 l 319 1019 l 319 854 l 404 854 l 404 1019 m 543 767 l 457 767 l 457 508 q 476 489 457 489 l 543 489 l 543 767 m 543 78 l 543 222 l 179 222 l 179 78 l 543 78 m 179 767 l 179 432 q 261 657 261 514 l 261 767 l 179 767 m 471 426 q 414 442 428 426 q 399 508 399 458 l 399 767 l 321 767 l 321 656 q 215 381 321 478 q 179 415 201 400 l 179 301 l 543 301 l 543 426 l 471 426 m 69 1108 l 649 1108 l 649 1019 l 489 1019 l 489 854 l 632 854 l 632 -89 l 543 -89 l 543 -6 l 179 -6 l 179 -101 l 94 -101 l 94 854 l 235 854 l 235 1019 l 69 1019 l 69 1108 m 819 322 l 819 56 l 1189 56 l 1189 322 l 819 322 m 724 417 l 1289 417 l 1289 -100 l 1189 -100 l 1189 -39 l 819 -39 l 819 -103 l 724 -103 l 724 417 m 1335 629 l 1335 536 l 676 536 l 676 629 l 972 629 l 972 847 l 818 847 q 751 686 790 758 q 665 732 717 711 q 783 1114 747 869 l 879 1099 q 846 940 865 1018 l 972 940 l 972 1161 l 1069 1161 l 1069 940 l 1303 940 l 1303 847 l 1069 847 l 1069 629 l 1335 629 z "},"暑":{"ha":1389,"x_min":54,"x_max":1294,"o":"m 1040 1033 l 324 1033 l 324 953 l 1040 953 l 1040 1033 m 1040 883 l 324 883 l 324 800 l 1040 800 l 1040 883 m 1143 728 l 224 728 l 224 1106 l 1143 1106 l 1143 728 m 767 481 q 939 569 850 519 l 654 569 l 654 481 l 767 481 m 1063 247 l 425 247 l 425 163 l 1063 163 l 1063 247 m 1063 6 l 1063 96 l 425 96 l 425 6 l 1063 6 m 793 399 q 599 318 710 360 l 1165 318 l 1165 -106 l 1063 -106 l 1063 -65 l 425 -65 l 425 -107 l 325 -107 l 325 228 q 110 171 238 201 q 54 256 85 219 q 568 399 321 310 l 90 399 l 90 481 l 553 481 l 553 569 l 189 569 l 189 649 l 553 649 l 553 713 l 654 713 l 654 649 l 993 649 l 993 603 q 1176 742 1097 667 l 1256 690 q 956 481 1138 582 l 1294 481 l 1294 399 l 793 399 z "},"沙":{"ha":1389,"x_min":57,"x_max":1332,"o":"m 688 908 q 506 414 618 601 q 415 467 479 435 q 585 928 525 635 l 688 908 m 1133 951 q 1332 569 1271 760 l 1236 526 q 1047 914 1188 704 l 1133 951 m 1236 500 q 475 -115 1072 19 q 417 -21 457 -67 q 1142 532 985 89 l 1236 500 m 915 1150 l 915 318 l 810 318 l 810 1150 l 915 1150 m 189 1146 q 453 1000 354 1079 l 392 917 q 132 1071 297 997 l 189 1146 m 113 768 q 369 626 279 696 l 311 542 q 57 692 217 619 l 113 768 m 103 -17 q 360 426 239 182 l 436 360 q 190 -85 315 114 l 103 -17 z "},"巨":{"ha":1389,"x_min":235,"x_max":1276,"o":"m 340 669 l 340 394 l 1054 394 l 1054 669 l 340 669 m 1276 47 l 1276 -53 l 235 -53 l 235 1090 l 1246 1090 l 1246 990 l 340 990 l 340 768 l 1160 768 l 1160 296 l 340 296 l 340 47 l 1276 47 z "},"型":{"ha":1389,"x_min":71,"x_max":1318,"o":"m 1236 535 q 1183 435 1236 456 q 976 418 1138 418 q 942 513 969 461 q 1111 513 1076 508 q 1138 538 1138 513 l 1138 1153 l 1236 1153 l 1236 535 m 976 621 l 881 621 l 881 1083 l 976 1083 l 976 621 m 369 824 l 540 824 l 540 1014 l 369 1014 l 369 824 m 363 732 q 154 400 332 513 q 86 472 124 443 q 267 732 236 564 l 99 732 l 99 824 l 274 824 l 274 1014 l 144 1014 l 144 1106 l 767 1106 l 767 1014 l 638 1014 l 638 824 l 794 824 l 794 732 l 638 732 l 638 435 l 540 435 l 540 732 l 363 732 m 1318 38 l 1318 -60 l 71 -60 l 71 38 l 650 38 l 650 213 l 214 213 l 214 307 l 650 307 l 650 463 l 754 463 l 754 307 l 1174 307 l 1174 213 l 754 213 l 754 38 l 1318 38 z "},"蚀":{"ha":1389,"x_min":39,"x_max":1324,"o":"m 251 850 q 119 558 199 678 q 39 624 78 597 q 224 1158 165 803 l 322 1139 q 279 944 299 1010 l 517 944 l 532 950 l 603 928 q 485 638 544 742 l 401 667 q 476 850 436 728 l 251 850 m 542 225 q 572 136 554 175 q 238 -100 261 -69 q 181 -24 219 -60 q 253 110 253 26 l 253 682 l 354 682 l 354 106 l 542 225 m 888 469 l 888 796 l 717 796 l 717 469 l 888 469 m 989 796 l 989 469 l 1146 469 l 1146 796 l 989 796 m 1229 -94 q 1190 26 1217 -43 q 581 -65 817 -28 l 560 38 q 707 57 575 39 l 888 81 l 888 372 l 619 372 l 619 893 l 888 893 l 888 1161 l 989 1161 l 989 893 l 1247 893 l 1247 372 l 989 372 l 989 96 l 1154 121 q 1075 296 1107 233 l 1163 324 q 1324 -60 1278 103 l 1229 -94 z "},"雨":{"ha":1389,"x_min":78,"x_max":1311,"o":"m 344 343 q 594 175 529 228 l 533 110 q 285 285 442 185 l 344 343 m 357 611 q 599 461 481 542 l 538 394 q 299 554 443 467 l 357 611 m 1032 114 q 774 286 936 189 l 832 344 q 1093 181 1001 247 l 1032 114 m 1043 397 q 793 554 938 474 l 851 613 q 1103 464 1004 529 l 1043 397 m 740 974 l 740 790 l 1250 790 l 1250 26 q 1192 -81 1250 -58 q 958 -97 1143 -97 q 922 -3 949 -49 q 1118 -4 967 -4 q 1149 26 1149 -3 l 1149 693 l 740 693 l 740 -90 l 639 -90 l 639 693 l 243 693 l 243 -104 l 144 -104 l 144 790 l 639 790 l 639 974 l 78 974 l 78 1075 l 1311 1075 l 1311 974 l 740 974 z "},"干":{"ha":1389,"x_min":79,"x_max":1311,"o":"m 1311 496 l 746 496 l 746 -104 l 633 -104 l 633 496 l 79 496 l 79 601 l 633 601 l 633 958 l 150 958 l 150 1063 l 1247 1063 l 1247 958 l 746 958 l 746 601 l 1311 601 l 1311 496 z "},"旱":{"ha":1389,"x_min":75,"x_max":1317,"o":"m 1053 1018 l 335 1018 l 335 903 l 1053 903 l 1053 1018 m 1053 824 l 335 824 l 335 704 l 1053 704 l 1053 824 m 1158 622 l 233 622 l 233 1101 l 1158 1101 l 1158 622 m 1317 176 l 747 176 l 747 -107 l 640 -107 l 640 176 l 75 176 l 75 272 l 640 272 l 640 421 l 151 421 l 151 517 l 1249 517 l 1249 421 l 747 421 l 747 272 l 1317 272 l 1317 176 z "},"清":{"ha":1389,"x_min":54,"x_max":1314,"o":"m 338 917 q 119 1068 263 988 l 179 1139 q 400 997 328 1064 l 338 917 m 282 547 q 54 701 200 622 l 114 774 q 344 626 263 699 l 282 547 m 97 -26 q 313 424 210 168 l 394 363 q 190 -87 296 118 l 97 -26 m 1097 188 l 1097 296 l 599 296 l 599 188 l 1097 188 m 599 475 l 599 372 l 1097 372 l 1097 475 l 599 475 m 1196 10 q 1147 -85 1196 -65 q 947 -100 1101 -103 q 918 -11 940 -58 q 1072 -12 1032 -15 q 1097 11 1097 -12 l 1097 110 l 599 110 l 599 -106 l 503 -106 l 503 556 l 1196 556 l 1196 10 m 1314 714 l 1314 635 l 393 635 l 393 714 l 799 714 l 799 811 l 478 811 l 478 886 l 799 886 l 799 974 l 444 974 l 444 1053 l 799 1053 l 799 1161 l 900 1161 l 900 1053 l 1264 1053 l 1264 974 l 900 974 l 900 886 l 1231 886 l 1231 811 l 900 811 l 900 714 l 1314 714 z "},"水":{"ha":1389,"x_min":60,"x_max":1349,"o":"m 567 786 q 142 31 469 261 q 60 108 108 78 q 443 706 343 293 l 104 706 l 104 808 l 479 808 l 500 813 l 567 786 m 1224 836 q 914 524 1057 644 q 1349 131 1108 243 q 1272 38 1304 92 q 751 621 964 200 l 751 35 q 694 -85 751 -60 q 478 -107 647 -107 q 439 6 471 -51 q 611 3 518 3 q 643 35 643 4 l 643 1158 l 751 1158 l 751 825 q 863 600 799 707 q 1131 903 1019 744 l 1224 836 z "},"木":{"ha":1389,"x_min":44,"x_max":1342,"o":"m 792 719 q 1342 133 1004 319 q 1263 44 1292 92 q 747 611 971 229 l 747 -107 l 640 -107 l 640 610 q 122 40 425 225 q 44 128 88 90 q 592 719 385 313 l 97 719 l 97 821 l 640 821 l 640 1161 l 747 1161 l 747 821 l 1293 821 l 1293 719 l 792 719 z "},"材":{"ha":1389,"x_min":42,"x_max":1326,"o":"m 582 383 q 422 606 544 444 l 422 -104 l 319 -104 l 319 563 q 99 147 217 283 q 42 244 81 194 q 304 767 215 433 l 89 767 l 89 865 l 319 865 l 319 1163 l 422 1163 l 422 865 l 611 865 l 611 767 l 422 767 l 422 731 q 647 472 456 694 l 582 383 m 1326 765 l 1183 765 l 1183 35 q 1119 -83 1183 -62 q 875 -104 1067 -104 q 838 1 865 -51 q 1043 0 883 0 q 1078 33 1078 1 l 1078 625 q 657 114 897 294 q 583 197 622 165 q 1042 765 864 388 l 664 765 l 664 864 l 1078 864 l 1078 1160 l 1183 1160 l 1183 864 l 1326 864 l 1326 765 z "},"石":{"ha":1389,"x_min":39,"x_max":1296,"o":"m 444 494 l 444 90 l 1104 90 l 1104 494 l 444 494 m 608 954 q 442 593 539 758 l 1211 593 l 1211 -106 l 1104 -106 l 1104 -10 l 444 -10 l 444 -107 l 342 -107 l 342 443 q 111 208 242 308 q 39 288 88 246 q 492 954 344 513 l 96 954 l 96 1056 l 1296 1056 l 1296 954 l 608 954 z "},"铁":{"ha":1389,"x_min":50,"x_max":1335,"o":"m 246 908 q 103 728 175 799 q 50 825 83 782 q 260 1158 186 951 l 351 1131 q 299 1006 331 1067 l 599 1006 l 599 908 l 246 908 m 581 172 q 600 83 586 136 q 282 -99 307 -75 q 233 -8 265 -47 q 297 96 297 31 l 297 383 l 88 383 l 88 478 l 297 478 l 297 665 l 156 665 l 156 758 l 563 758 l 563 665 l 396 665 l 396 478 l 596 478 l 596 383 l 396 383 l 396 78 l 581 172 m 1026 447 q 1335 -17 1113 100 q 1264 -101 1293 -54 q 968 324 1069 13 q 640 -106 883 54 q 567 -31 611 -62 q 897 447 839 133 l 621 447 l 621 544 l 911 544 q 918 731 918 626 l 918 818 l 751 818 q 672 624 714 694 q 589 675 642 647 q 714 1107 676 819 l 810 1092 q 776 914 800 1024 l 918 914 l 918 1154 l 1018 1154 l 1018 914 l 1285 914 l 1285 818 l 1018 818 l 1018 731 q 1011 544 1018 626 l 1318 544 l 1318 447 l 1026 447 z "},"矿":{"ha":1389,"x_min":49,"x_max":1319,"o":"m 458 571 l 258 571 l 258 161 l 458 161 l 458 571 m 258 68 l 258 -43 l 169 -43 l 169 460 q 94 344 128 386 q 49 456 74 417 q 247 993 185 640 l 72 993 l 72 1089 l 583 1089 l 583 993 l 344 993 q 258 663 314 821 l 549 663 l 549 68 l 258 68 m 1319 879 l 767 879 l 767 611 q 596 -101 767 132 q 506 -40 558 -67 q 665 613 665 168 l 665 978 l 971 978 q 879 1129 932 1054 l 969 1168 q 1076 999 1043 1071 l 1036 978 l 1319 978 l 1319 879 z "},"澄":{"ha":1389,"x_min":74,"x_max":1358,"o":"m 353 907 q 144 1068 278 989 l 199 1142 q 410 990 336 1067 l 353 907 m 286 547 q 74 696 211 622 l 124 772 q 338 635 261 708 l 286 547 m 408 363 q 190 -87 304 121 l 111 -7 q 339 438 233 194 l 408 363 m 1117 219 q 1021 18 1054 85 l 1318 18 l 1318 -72 l 406 -72 l 406 18 l 668 18 q 599 217 650 124 l 692 242 q 767 46 750 143 l 678 18 l 918 18 q 1014 250 968 111 l 1117 219 m 1081 503 l 622 503 l 622 340 l 1081 340 l 1081 503 m 1178 254 l 531 254 l 531 589 l 1178 589 l 1178 254 m 1331 910 q 1151 785 1215 825 q 1358 624 1238 690 q 1292 539 1310 583 q 1054 749 1144 631 l 1054 693 l 674 693 l 674 754 q 432 544 567 618 q 371 615 410 585 q 572 776 483 672 q 435 903 515 846 l 496 967 q 631 853 569 914 q 718 1015 682 926 l 464 1015 l 464 1106 l 758 1106 l 775 1110 l 838 1085 q 697 785 794 922 l 1028 785 q 867 1139 933 924 l 954 1160 q 1011 1007 983 1069 q 1147 1135 1104 1086 l 1214 1068 q 1046 938 1129 994 q 1104 843 1071 890 q 1263 976 1201 915 l 1331 910 z "},"亮":{"ha":1389,"x_min":85,"x_max":1299,"o":"m 1153 6 q 1190 32 1182 6 q 1203 157 1200 60 q 1297 118 1240 129 q 1261 -43 1289 -1 q 1165 -83 1235 -83 l 999 -83 q 883 -56 913 -83 q 854 46 854 -31 l 854 247 l 524 247 q 426 15 504 90 q 142 -107 343 -67 q 85 -21 125 -57 q 357 92 289 14 q 424 335 417 160 l 961 335 l 961 46 q 971 13 961 19 q 1014 6 981 6 l 1153 6 m 113 511 l 1274 511 l 1274 283 l 1172 283 l 1172 428 l 211 428 l 211 282 l 113 282 l 113 511 m 1008 792 l 385 792 l 385 672 l 1008 672 l 1008 792 m 1115 865 l 1115 599 l 283 599 l 283 865 l 1115 865 m 1299 1032 l 1299 943 l 88 943 l 88 1032 l 667 1032 q 606 1147 642 1090 l 707 1171 q 783 1032 757 1100 l 1299 1032 z "},"圆":{"ha":1389,"x_min":117,"x_max":1271,"o":"m 911 874 l 469 874 l 469 768 l 911 768 l 911 874 m 1007 694 l 378 694 l 378 946 l 1007 946 l 1007 694 m 438 256 l 344 256 l 344 613 l 1040 613 l 1040 263 l 944 263 l 944 532 l 438 532 l 438 256 m 744 407 q 674 229 744 301 q 313 67 572 128 q 256 144 289 113 q 592 274 500 192 q 653 408 653 328 l 653 490 l 744 490 l 744 407 m 765 293 q 1097 138 990 196 l 1054 63 q 722 226 918 140 l 765 293 m 1169 33 l 1169 1018 l 217 1018 l 217 33 l 1169 33 m 1271 1106 l 1271 -106 l 1169 -106 l 1169 -53 l 217 -53 l 217 -106 l 117 -106 l 117 1106 l 1271 1106 z "},"肉":{"ha":1389,"x_min":138,"x_max":1251,"o":"m 994 65 q 678 322 893 167 q 354 65 575 149 q 292 143 333 111 q 657 561 589 242 l 763 561 q 719 408 743 469 q 1069 142 964 243 l 994 65 m 1251 26 q 1193 -89 1251 -67 q 949 -108 1142 -108 q 917 -4 940 -51 q 1118 -7 976 -7 q 1150 26 1150 -6 l 1150 857 l 728 857 l 711 803 q 1081 561 956 663 l 1011 481 q 672 718 881 592 q 361 464 578 547 q 297 542 339 507 q 619 857 546 633 l 239 857 l 239 -106 l 138 -106 l 138 958 l 643 958 q 665 1157 658 1044 l 774 1157 q 750 958 764 1039 l 1251 958 l 1251 26 z "},"片":{"ha":1389,"x_min":60,"x_max":1250,"o":"m 360 667 q 354 479 360 563 l 1036 479 l 1036 -106 l 926 -106 l 926 374 l 343 374 q 139 -108 304 74 q 60 -28 111 -68 q 254 665 254 190 l 254 1125 l 360 1125 l 360 804 l 753 804 l 753 1160 l 861 1160 l 861 804 l 1250 804 l 1250 700 l 360 700 l 360 667 z "},"羽":{"ha":1389,"x_min":54,"x_max":1257,"o":"m 629 42 q 568 -76 629 -54 q 324 -96 517 -96 q 286 10 313 -37 q 493 7 426 3 q 528 42 528 8 l 528 382 q 96 139 224 204 l 54 231 q 528 481 228 318 l 528 990 l 93 990 l 93 1090 l 629 1090 l 629 42 m 196 856 q 404 608 324 724 l 319 551 q 114 808 250 660 l 196 856 m 1257 43 q 1192 -78 1257 -57 q 929 -97 1139 -97 q 892 10 921 -42 q 1118 7 1022 3 q 1154 44 1154 8 l 1154 410 q 729 165 839 226 l 678 257 q 1154 513 842 339 l 1154 990 l 711 990 l 711 1090 l 1257 1090 l 1257 43 m 806 867 q 1019 622 951 719 l 936 561 q 726 815 857 679 l 806 867 z "},"兽":{"ha":1389,"x_min":76,"x_max":1315,"o":"m 1094 907 l 743 907 l 743 792 l 1094 792 l 1094 907 m 1094 722 l 743 722 l 743 606 l 1094 606 l 1094 722 m 282 606 l 644 606 l 644 722 l 282 722 l 282 606 m 282 792 l 644 792 l 644 907 l 282 907 l 282 792 m 1194 532 l 186 532 l 186 981 l 463 981 q 371 1128 431 1051 l 454 1165 q 557 1008 531 1072 l 503 981 l 826 981 q 942 1161 899 1075 l 1038 1126 q 929 981 993 1060 l 1194 981 l 1194 532 m 335 188 l 335 43 l 1056 43 l 1056 188 l 335 188 m 236 274 l 1157 274 l 1157 -103 l 1056 -103 l 1056 -36 l 335 -36 l 335 -107 l 236 -107 l 236 274 m 1315 444 l 1315 361 l 76 361 l 76 444 l 1315 444 z "},"翅":{"ha":1389,"x_min":51,"x_max":1333,"o":"m 940 429 q 1178 603 1015 481 l 1178 1010 l 943 1010 l 943 1103 l 1271 1103 l 1271 210 q 1222 108 1271 128 q 1017 93 1183 93 q 992 183 1013 135 q 1150 182 1028 182 q 1178 210 1178 183 l 1178 503 q 983 349 1068 414 l 940 429 m 1032 915 q 1146 700 1106 793 l 1074 669 q 963 890 1026 779 l 1032 915 m 806 1011 l 585 1011 l 585 1101 l 899 1101 l 899 211 q 851 113 899 132 q 654 96 808 96 q 628 185 650 142 q 781 185 728 181 q 806 211 806 186 l 806 475 q 603 311 714 399 l 560 392 q 806 576 653 454 l 806 1011 m 658 911 q 775 693 739 776 l 706 658 q 593 883 668 749 l 658 911 m 203 571 q 329 251 247 371 q 456 571 414 390 l 203 571 m 565 643 q 392 174 517 367 q 917 11 551 14 q 1333 14 1264 11 q 1294 -82 1306 -26 l 913 -82 q 336 97 517 -82 q 113 -103 240 -25 q 51 -19 88 -53 q 274 172 182 54 q 117 571 171 324 l 74 571 l 74 663 l 283 663 l 283 872 l 65 872 l 65 965 l 283 965 l 283 1163 l 381 1163 l 381 965 l 569 965 l 569 872 l 381 872 l 381 663 l 489 663 l 507 667 l 565 643 z "},"蟹":{"ha":1389,"x_min":56,"x_max":1325,"o":"m 279 1031 q 219 957 256 996 l 397 957 q 469 1031 447 1003 l 279 1031 m 586 889 l 456 889 l 456 814 l 586 814 l 586 889 m 586 668 l 586 750 l 456 750 l 456 668 l 586 668 m 378 668 l 378 750 l 246 750 q 238 668 243 697 l 378 668 m 247 814 l 378 814 l 378 889 l 247 889 l 247 814 m 225 604 q 128 421 193 490 q 58 474 111 442 q 164 792 164 582 l 164 901 q 115 860 149 888 q 56 921 89 900 q 264 1165 197 1021 l 351 1150 q 324 1097 343 1129 l 525 1097 l 543 1101 l 596 1063 q 504 957 558 1011 l 675 957 l 675 540 q 639 465 675 483 q 511 453 610 453 q 486 525 507 486 q 572 525 554 522 q 586 540 586 525 l 586 604 l 456 604 l 456 489 l 378 489 l 378 604 l 225 604 m 744 15 q 904 21 799 18 l 1065 26 q 997 85 1010 75 l 1057 124 l 744 124 l 744 15 m 643 197 l 643 315 l 342 315 l 342 197 l 643 197 m 744 315 l 744 197 l 1050 197 l 1050 315 l 744 315 m 1065 124 q 1265 -67 1190 25 l 1199 -115 q 1136 -44 1183 -94 q 126 -81 275 -78 l 117 0 q 643 13 393 6 l 643 124 l 242 124 l 242 388 l 643 388 l 643 467 l 744 467 l 744 388 l 1153 388 l 1153 124 l 1065 124 m 986 781 l 986 860 l 1064 860 q 1044 921 1060 893 q 1129 917 1083 917 q 1160 925 1151 917 q 1190 1038 1176 944 l 997 1038 q 829 856 957 922 l 903 840 q 879 781 896 814 l 986 781 m 1325 614 l 1325 540 l 1076 540 l 1076 440 l 986 440 l 986 540 l 724 540 l 724 614 l 986 614 l 986 708 l 839 708 q 783 638 817 674 q 711 679 753 663 q 822 853 785 743 q 753 824 790 838 q 704 889 736 857 q 910 1038 864 939 l 724 1038 l 724 1113 l 1289 1113 l 1286 1076 q 1232 874 1267 907 q 1167 849 1210 851 q 1076 849 1118 846 l 1076 781 l 1294 781 l 1294 708 l 1076 708 l 1076 614 l 1325 614 z "},"钳":{"ha":1389,"x_min":61,"x_max":1325,"o":"m 247 904 q 114 726 189 806 q 61 825 97 774 q 260 1158 194 956 l 353 1131 q 300 1003 325 1054 l 572 1003 l 572 904 l 247 904 m 582 171 q 599 85 588 125 q 278 -96 303 -71 q 236 -8 263 -44 q 288 81 288 19 l 288 383 l 94 383 l 94 478 l 288 478 l 288 665 l 165 665 l 165 758 l 553 758 l 553 665 l 386 665 l 386 478 l 583 478 l 583 383 l 386 383 l 386 76 l 582 171 m 1115 807 l 788 807 l 788 506 l 1115 506 l 1115 807 m 1115 78 l 1115 410 l 788 410 l 788 78 l 1115 78 m 1325 807 l 1215 807 l 1215 -106 l 1115 -106 l 1115 -21 l 788 -21 l 788 -106 l 686 -106 l 686 807 l 589 807 l 589 906 l 686 906 l 686 1154 l 788 1154 l 788 906 l 1115 906 l 1115 1154 l 1215 1154 l 1215 906 l 1325 906 l 1325 807 z "},"带":{"ha":1389,"x_min":76,"x_max":1314,"o":"m 113 699 l 1278 699 l 1278 417 l 1174 417 l 1174 610 l 742 610 l 742 453 l 1147 453 l 1147 128 q 1099 33 1147 53 q 903 17 1060 17 q 868 108 894 64 q 1021 107 982 104 q 1044 128 1044 108 l 1044 361 l 742 361 l 742 -107 l 638 -107 l 638 361 l 367 361 l 367 17 l 264 17 l 264 453 l 638 453 l 638 610 l 213 610 l 213 417 l 113 417 l 113 699 m 1314 996 l 1314 907 l 1094 907 l 1094 763 l 993 763 l 993 907 l 742 907 l 742 769 l 640 769 l 640 907 l 403 907 l 403 767 l 301 767 l 301 907 l 76 907 l 76 996 l 301 996 l 301 1154 l 403 1154 l 403 996 l 640 996 l 640 1156 l 742 1156 l 742 996 l 993 996 l 993 1154 l 1094 1154 l 1094 996 l 1314 996 z "},"腿":{"ha":1389,"x_min":49,"x_max":1343,"o":"m 1307 475 q 1156 363 1244 422 q 1292 168 1256 235 l 1221 118 q 940 493 1129 286 l 1007 536 q 1108 421 1061 476 q 1249 542 1193 486 l 1307 475 m 882 1017 l 882 885 l 1163 885 l 1163 1017 l 882 1017 m 1163 669 l 1163 801 l 882 801 l 882 669 l 1163 669 m 1050 300 q 1074 222 1071 228 q 778 104 803 126 q 735 179 760 149 q 789 279 789 213 l 789 1101 l 1254 1101 l 1254 583 l 882 583 l 882 246 l 1050 300 m 622 804 q 500 1047 581 919 l 578 1082 q 706 844 660 961 l 622 804 m 357 456 l 357 701 l 213 701 l 213 613 q 210 456 213 511 l 357 456 m 213 1022 l 213 786 l 357 786 l 357 1022 l 213 1022 m 678 122 q 715 97 690 115 q 763 64 744 75 q 1021 6 853 6 q 1343 24 1194 6 q 1319 -75 1322 -35 q 1018 -85 1190 -85 q 744 -17 846 -85 q 632 53 639 53 q 496 -100 589 53 l 442 -28 q 406 -79 436 -62 q 256 -99 372 -99 q 229 -6 250 -47 q 338 -6 313 -8 q 357 17 357 -6 l 357 371 l 206 371 q 124 -107 190 74 q 49 -62 93 -79 q 128 614 128 149 l 128 1111 l 446 1111 l 446 4 q 586 125 522 94 l 586 603 l 486 603 l 486 688 l 678 688 l 678 122 z "},"骨":{"ha":1389,"x_min":114,"x_max":1275,"o":"m 996 193 l 996 303 l 392 303 l 392 193 l 996 193 m 392 486 l 392 379 l 996 379 l 996 486 l 392 486 m 1096 3 q 1043 -92 1096 -72 q 825 -107 996 -107 q 794 -21 819 -71 q 969 -22 833 -22 q 996 4 996 -21 l 996 115 l 392 115 l 392 -107 l 294 -107 l 294 569 l 1096 569 l 1096 3 m 406 744 l 688 744 l 688 861 l 406 861 l 406 744 m 406 1021 l 406 932 l 779 932 l 779 744 l 978 744 l 978 1021 l 406 1021 m 1275 744 l 1275 481 l 1176 481 l 1176 654 l 208 654 l 208 481 l 114 481 l 114 744 l 307 744 l 307 1103 l 1079 1103 l 1079 744 l 1275 744 z "},"丰":{"ha":1389,"x_min":79,"x_max":1313,"o":"m 1313 228 l 747 228 l 747 -103 l 640 -103 l 640 228 l 79 228 l 79 329 l 640 329 l 640 553 l 199 553 l 199 651 l 640 651 l 640 857 l 131 857 l 131 958 l 640 958 l 640 1161 l 747 1161 l 747 958 l 1257 958 l 1257 857 l 747 857 l 747 651 l 1193 651 l 1193 553 l 747 553 l 747 329 l 1313 329 l 1313 228 z "},"饶":{"ha":1389,"x_min":56,"x_max":1331,"o":"m 1260 864 q 1008 658 1174 753 q 1181 569 1093 567 q 1218 600 1207 569 q 1235 707 1229 628 q 1310 665 1263 681 q 1268 517 1297 557 q 1175 478 1240 478 q 922 614 1036 478 q 629 508 781 550 q 567 590 599 556 q 868 686 722 624 q 775 888 810 779 l 596 869 l 583 958 l 751 975 q 725 1156 731 1069 l 821 1156 q 846 983 826 1067 l 1261 1025 l 1275 939 l 871 897 q 954 726 904 801 q 1168 897 1094 803 l 1260 864 m 242 850 q 131 563 193 669 q 56 624 106 592 q 206 1158 163 806 l 300 1142 q 265 944 283 1028 l 463 944 l 479 950 l 544 929 q 438 642 488 731 l 360 668 q 426 850 394 739 l 242 850 m 475 232 q 508 146 489 186 q 214 -96 235 -67 q 160 -24 193 -57 q 233 110 233 33 l 233 672 l 329 672 l 329 122 l 475 232 m 1206 -1 q 1235 24 1228 -1 q 1244 142 1243 50 q 1331 104 1275 119 q 1300 -46 1325 -7 q 1217 -85 1276 -85 l 1086 -85 q 989 -60 1014 -85 q 964 36 964 -35 l 964 336 l 832 336 q 756 58 817 153 q 519 -108 685 -53 q 460 -22 501 -58 q 667 111 606 22 q 731 336 717 186 l 540 336 l 540 425 l 1285 425 l 1285 336 l 1065 336 l 1065 36 q 1072 6 1065 13 q 1103 -1 1079 -1 l 1206 -1 z "},"灌":{"ha":1389,"x_min":57,"x_max":1321,"o":"m 656 982 l 429 982 l 429 1064 l 656 1064 l 656 1163 l 750 1163 l 750 1064 l 978 1064 l 978 1163 l 1075 1163 l 1075 1064 l 1317 1064 l 1317 982 l 1075 982 l 1075 899 l 978 899 l 978 982 l 750 982 l 750 899 l 656 899 l 656 982 m 354 914 q 125 1075 265 994 l 182 1143 q 414 992 335 1060 l 354 914 m 294 557 q 57 703 211 628 l 113 776 q 351 639 254 713 l 294 557 m 392 363 q 169 -83 285 118 l 85 -25 q 317 419 206 169 l 392 363 m 628 29 l 903 29 l 903 115 l 628 115 l 628 29 m 903 418 l 628 418 l 628 335 l 903 335 l 903 418 m 903 267 l 628 267 l 628 183 l 903 183 l 903 267 m 558 678 l 740 678 l 740 804 l 558 804 l 558 678 m 985 678 l 1169 678 l 1169 804 l 985 804 l 985 678 m 1321 -49 l 628 -49 l 628 -107 l 532 -107 l 532 326 q 458 250 488 274 q 385 314 424 285 q 607 606 531 429 l 478 606 l 478 876 l 824 876 l 824 606 l 624 606 l 699 585 q 651 496 681 547 l 890 496 q 829 575 860 542 l 906 606 l 901 606 l 901 876 l 1256 876 l 1256 606 l 910 606 q 996 496 960 557 l 1303 496 l 1303 418 l 997 418 l 997 335 l 1250 335 l 1250 267 l 997 267 l 997 183 l 1250 183 l 1250 115 l 997 115 l 997 29 l 1321 29 l 1321 -49 z "},"林":{"ha":1389,"x_min":46,"x_max":1343,"o":"m 588 393 q 429 611 540 469 l 429 -104 l 328 -104 l 328 574 q 101 149 229 297 q 46 244 83 192 q 310 767 219 439 l 81 767 l 81 865 l 328 865 l 328 1163 l 429 1163 l 429 865 l 626 865 l 626 767 l 429 767 l 429 735 q 656 482 507 663 l 588 393 m 1064 767 q 1343 204 1171 392 q 1264 124 1293 168 q 1038 582 1138 282 l 1038 -104 l 936 -104 l 936 578 q 650 99 814 263 q 589 189 629 139 q 914 767 810 406 l 686 767 l 686 865 l 936 865 l 936 1163 l 1038 1163 l 1038 865 l 1300 865 l 1300 767 l 1064 767 z "},"几":{"ha":1389,"x_min":65,"x_max":1336,"o":"m 1185 25 q 1224 78 1214 25 q 1238 288 1233 126 q 1336 240 1276 257 q 1301 -6 1328 57 q 1192 -75 1271 -75 l 1038 -75 q 929 -40 958 -75 q 900 97 900 -4 l 900 981 l 461 981 l 461 658 q 144 -110 461 124 q 65 -32 111 -62 q 356 660 356 181 l 356 1082 l 1006 1082 l 1006 96 q 1015 38 1006 51 q 1053 25 1024 25 l 1185 25 z "},"处":{"ha":1389,"x_min":54,"x_max":1335,"o":"m 963 144 l 854 144 l 854 1160 l 963 1160 l 963 801 l 997 819 q 1296 453 1203 604 l 1206 397 q 963 719 1129 528 l 963 144 m 353 847 q 315 731 333 779 q 453 364 364 514 q 593 847 554 563 l 353 847 m 708 926 q 519 269 664 529 q 1096 42 707 42 q 1335 43 1281 42 q 1293 -64 1304 -6 l 1090 -64 q 464 179 667 -64 q 138 -107 333 -6 q 54 -28 92 -51 q 397 271 268 76 q 261 594 313 407 q 161 424 215 497 q 78 481 115 463 q 310 1157 247 703 l 417 1129 q 378 943 404 1049 l 621 943 l 640 947 l 708 926 z "},"树":{"ha":1389,"x_min":50,"x_max":1326,"o":"m 424 361 q 324 581 411 394 l 324 -106 l 232 -106 l 232 483 q 103 154 176 275 q 50 240 79 204 q 228 774 171 435 l 78 774 l 78 868 l 232 868 l 232 1163 l 324 1163 l 324 868 l 447 868 l 447 774 l 324 774 l 324 721 q 482 443 406 592 l 424 361 m 832 979 q 742 447 807 683 q 869 204 839 275 l 794 142 q 706 328 771 199 q 506 -40 624 92 q 436 31 468 10 q 644 439 556 156 q 475 725 567 576 l 542 776 q 676 557 607 678 q 735 903 715 718 l 499 903 l 499 992 l 757 992 l 774 996 l 832 979 m 1326 763 l 1218 763 l 1218 29 q 1165 -78 1218 -57 q 957 -99 1122 -99 q 926 0 953 -54 q 1093 -1 1051 -4 q 1124 28 1124 -1 l 1124 763 l 853 763 l 853 857 l 1124 857 l 1124 1157 l 1218 1157 l 1218 857 l 1326 857 l 1326 763 m 1021 304 q 879 600 979 440 l 956 631 q 1101 342 1061 468 l 1021 304 z "},"荫":{"ha":1389,"x_min":82,"x_max":1308,"o":"m 599 803 q 414 522 514 664 q 590 278 588 407 q 522 139 590 178 q 442 115 486 119 q 326 113 383 108 q 299 199 324 157 q 403 196 351 193 q 458 208 433 197 q 496 285 496 226 q 310 508 490 399 q 463 758 394 631 l 236 758 l 236 -107 l 139 -107 l 139 840 l 517 840 l 531 846 l 599 803 m 1147 315 l 1147 490 l 796 490 l 796 421 q 792 315 796 369 l 1147 315 m 796 744 l 796 579 l 1147 579 l 1147 744 l 796 744 m 1247 24 q 1188 -81 1247 -58 q 944 -97 1139 -97 q 907 -6 936 -56 q 1114 -7 1058 -10 q 1147 24 1147 -6 l 1147 226 l 779 226 q 575 -114 738 4 q 500 -44 542 -68 q 696 422 696 97 l 696 835 l 1247 835 l 1247 24 m 1308 1057 l 1308 967 l 974 967 l 974 875 l 872 875 l 872 967 l 511 967 l 511 875 l 410 875 l 410 967 l 82 967 l 82 1057 l 410 1057 l 410 1160 l 511 1160 l 511 1057 l 872 1057 l 872 1160 l 974 1160 l 974 1057 l 1308 1057 z "},"下":{"ha":1389,"x_min":82,"x_max":1308,"o":"m 722 956 l 722 711 l 740 732 q 1235 440 1067 571 l 1163 344 q 722 626 1013 469 l 722 -99 l 613 -99 l 613 956 l 82 956 l 82 1060 l 1308 1060 l 1308 956 l 722 956 z "},"的":{"ha":1389,"x_min":125,"x_max":1285,"o":"m 511 847 l 219 847 l 219 557 l 511 557 l 511 847 m 511 132 l 511 465 l 219 465 l 219 132 l 511 132 m 447 1144 q 375 940 386 969 l 606 940 l 606 39 l 219 39 l 219 -71 l 125 -71 l 125 940 l 281 940 q 336 1165 322 1075 l 447 1144 m 1285 892 q 1189 -24 1256 58 q 1079 -79 1150 -72 q 874 -78 1022 -86 q 839 24 868 -21 q 1044 15 929 15 q 1101 36 1085 15 q 1186 849 1161 100 l 833 849 q 703 606 769 694 q 618 664 685 622 q 831 1168 754 843 l 929 1144 q 869 944 903 1036 l 1285 944 l 1285 892 m 978 265 q 767 586 914 394 l 847 633 q 1065 319 1000 439 l 978 265 z "},"土":{"ha":1389,"x_min":78,"x_max":1314,"o":"m 1314 56 l 1314 -46 l 78 -46 l 78 56 l 638 56 l 638 615 l 165 615 l 165 717 l 638 717 l 638 1157 l 746 1157 l 746 717 l 1225 717 l 1225 615 l 746 615 l 746 56 l 1314 56 z "},"滋":{"ha":1389,"x_min":56,"x_max":1332,"o":"m 356 922 q 133 1075 278 990 l 194 1147 q 421 1003 347 1063 l 356 922 m 274 553 q 56 696 189 622 l 114 768 q 335 635 265 693 l 274 553 m 361 369 q 172 -68 278 144 l 83 -10 q 285 428 174 150 l 361 369 m 1247 -89 q 1214 26 1236 -32 q 853 -43 886 -25 q 822 47 840 1 q 919 157 851 54 q 1064 404 982 243 q 840 368 869 382 q 810 457 822 433 q 871 522 832 461 q 999 819 951 658 l 576 819 l 646 790 q 489 472 575 607 l 646 485 q 726 656 692 572 l 815 614 q 483 67 667 307 l 701 96 q 656 240 685 165 l 733 264 q 826 -61 803 88 l 742 -87 q 721 21 736 -39 q 369 -47 406 -29 q 339 42 358 0 q 443 150 371 50 q 600 399 496 215 q 392 365 421 379 q 360 454 375 426 q 422 521 386 461 q 554 819 503 653 l 382 819 l 382 914 l 683 914 q 563 1126 636 1025 l 649 1161 q 775 949 739 1036 l 700 914 l 965 914 q 1075 1161 1038 1050 l 1176 1129 q 1065 914 1115 999 l 1319 914 l 1319 819 l 1018 819 l 1090 790 q 936 475 1021 611 l 1107 489 q 1181 660 1156 590 l 1269 619 q 960 71 1135 313 l 1185 101 q 1121 247 1157 175 l 1199 276 q 1332 -56 1294 94 l 1247 -89 z "},"养":{"ha":1389,"x_min":54,"x_max":1329,"o":"m 944 536 q 1329 331 1099 388 q 1261 243 1283 288 q 956 407 1093 299 l 956 -107 l 850 -107 l 850 408 l 954 408 q 825 536 883 465 l 574 536 q 450 407 519 461 l 526 407 l 526 319 q 478 94 526 185 q 224 -115 407 -36 q 154 -35 197 -68 q 424 322 424 76 l 424 385 q 124 243 301 296 q 54 335 99 290 q 436 536 292 392 l 85 536 l 85 622 l 508 622 q 576 733 542 665 l 214 733 l 214 817 l 613 817 q 647 921 632 863 l 147 921 l 147 1007 l 444 1007 q 360 1140 413 1076 l 449 1171 q 543 1031 515 1096 l 482 1007 l 844 1007 q 943 1172 911 1097 l 1050 1142 q 960 1007 1004 1063 l 1251 1007 l 1251 921 l 749 921 q 718 817 731 856 l 1179 817 l 1179 733 l 686 733 q 632 622 660 672 l 1296 622 l 1296 536 l 944 536 z "},"着":{"ha":1389,"x_min":47,"x_max":1292,"o":"m 1058 403 l 478 403 l 478 321 l 1058 321 l 1058 403 m 1058 24 l 1058 107 l 478 107 l 478 24 l 1058 24 m 1058 254 l 478 254 l 478 172 l 1058 172 l 1058 254 m 533 563 q 481 482 500 507 l 1164 482 l 1164 -103 l 1058 -103 l 1058 -56 l 478 -56 l 478 -107 l 376 -107 l 376 346 q 126 121 267 218 q 47 197 76 175 q 417 563 263 331 l 96 563 l 96 647 l 468 647 q 518 743 500 704 l 222 743 l 222 824 l 556 824 q 592 918 578 876 l 161 918 l 161 1003 l 433 1003 q 344 1133 396 1071 l 442 1168 q 544 1024 504 1097 l 494 1003 l 849 1003 q 950 1165 919 1101 l 1057 1132 q 960 1003 992 1040 l 1232 1003 l 1232 918 l 701 918 l 664 824 l 1169 824 l 1169 743 l 629 743 q 582 647 610 699 l 1292 647 l 1292 563 l 533 563 z "},"各":{"ha":1389,"x_min":46,"x_max":1340,"o":"m 388 292 l 388 44 l 994 44 l 994 292 l 388 292 m 285 388 l 1101 388 l 1101 -108 l 994 -108 l 994 -49 l 388 -49 l 388 -112 l 285 -112 l 285 388 m 447 913 q 701 700 546 797 q 971 925 871 804 l 458 925 l 447 913 m 1136 974 q 799 643 1024 796 q 1340 450 1049 507 q 1274 356 1307 417 q 703 585 965 425 q 96 350 425 428 q 46 443 81 400 q 610 646 346 507 q 382 847 472 743 q 161 676 274 744 q 82 753 122 722 q 521 1174 371 910 l 619 1139 q 536 1017 578 1071 l 1047 1017 l 1065 1022 l 1136 974 z "},"种":{"ha":1389,"x_min":36,"x_max":1300,"o":"m 390 647 q 578 417 486 544 l 515 336 q 390 536 472 417 l 390 -103 l 290 -103 l 290 511 q 89 147 193 271 q 36 240 72 189 q 276 676 181 403 l 68 676 l 68 774 l 290 774 l 290 983 q 99 951 185 963 q 69 1032 92 988 q 511 1143 368 1079 l 574 1061 q 390 1006 489 1028 l 390 774 l 568 774 l 568 676 l 390 676 l 390 647 m 1199 442 l 1199 771 l 1008 771 l 1008 442 l 1199 442 m 907 442 l 907 771 l 711 771 l 711 442 l 907 442 m 1300 871 l 1300 265 l 1199 265 l 1199 343 l 1008 343 l 1008 -103 l 907 -103 l 907 343 l 711 343 l 711 258 l 613 258 l 613 871 l 907 871 l 907 1158 l 1008 1158 l 1008 871 l 1300 871 z "},"意":{"ha":1389,"x_min":90,"x_max":1292,"o":"m 90 -21 q 254 221 190 68 l 340 182 q 174 -69 260 10 l 90 -21 m 1029 613 l 365 613 l 365 517 l 1029 517 l 1029 613 m 1029 449 l 365 449 l 365 353 l 1029 353 l 1029 449 m 1131 282 l 649 282 q 847 146 774 214 l 783 82 q 568 238 715 151 l 615 282 l 267 282 l 267 683 l 1131 683 l 1131 282 m 844 -8 q 901 15 889 -8 q 919 132 914 39 q 1008 96 950 111 q 969 -57 1000 -18 q 854 -94 938 -94 l 593 -94 q 451 -69 488 -94 q 415 31 415 -43 l 415 210 l 517 210 l 517 31 q 532 -1 517 7 q 601 -8 547 -8 l 844 -8 m 1110 233 q 1292 -4 1233 110 l 1204 -49 q 1028 197 1158 57 l 1110 233 m 472 975 q 533 838 515 904 l 854 838 q 918 975 892 907 l 472 975 m 1292 838 l 1292 753 l 106 753 l 106 838 l 426 838 q 376 956 406 904 l 464 975 l 168 975 l 168 1060 l 664 1060 q 615 1151 647 1099 l 715 1172 q 778 1060 743 1135 l 1221 1060 l 1221 975 l 944 975 l 1025 957 q 960 838 994 897 l 1292 838 z "},"想":{"ha":1389,"x_min":50,"x_max":1318,"o":"m 1151 1004 l 807 1004 l 807 875 l 1151 875 l 1151 1004 m 1151 794 l 807 794 l 807 664 l 1151 664 l 1151 794 m 1151 585 l 807 585 l 807 453 l 1151 453 l 1151 585 m 1250 368 l 711 368 l 711 1089 l 1250 1089 l 1250 368 m 649 379 q 840 183 767 272 l 765 122 q 576 326 707 199 l 649 379 m 69 13 q 200 294 143 111 l 290 260 q 160 -33 222 53 l 69 13 m 333 354 l 333 719 q 117 436 232 531 q 50 508 86 479 q 315 865 211 622 l 81 865 l 81 956 l 333 956 l 333 1158 l 432 1158 l 432 956 l 651 956 l 651 865 l 432 865 l 432 788 q 663 621 510 739 l 607 538 q 432 692 549 593 l 432 354 l 333 354 m 865 17 q 931 44 915 17 q 949 178 944 72 q 1043 139 985 150 q 1000 -33 1032 8 q 872 -76 965 -76 l 585 -76 q 435 -49 472 -76 q 396 58 396 -22 l 396 279 l 497 279 l 497 60 q 514 25 497 32 q 592 17 532 17 l 865 17 m 1151 322 q 1318 44 1275 132 l 1222 -3 q 1063 282 1188 75 l 1151 322 z "},"不":{"ha":1389,"x_min":67,"x_max":1326,"o":"m 847 961 q 749 808 814 904 l 749 -103 l 639 -103 l 639 669 q 136 265 411 410 q 67 356 117 299 q 715 961 488 567 l 101 961 l 101 1064 l 1288 1064 l 1288 961 l 847 961 m 853 729 q 1326 364 1176 519 l 1244 285 q 776 663 1078 464 l 853 729 z "},"到":{"ha":1389,"x_min":92,"x_max":1263,"o":"m 508 132 l 797 186 l 804 96 q 114 -37 229 -14 l 92 60 l 410 115 l 410 349 l 139 349 l 139 440 l 410 440 l 410 590 l 508 590 l 508 440 l 785 440 l 785 349 l 508 349 l 508 132 m 103 1071 l 813 1071 l 813 979 l 438 979 q 278 721 361 832 l 632 751 q 529 889 589 815 l 603 933 q 813 636 753 754 l 733 585 q 685 671 714 626 q 169 608 204 625 q 135 706 157 658 q 201 767 161 711 q 322 979 264 850 l 103 979 l 103 1071 m 986 207 l 889 207 l 889 1042 l 986 1042 l 986 207 m 1263 1139 l 1263 56 q 1206 -57 1263 -36 q 989 -76 1156 -76 q 951 25 982 -29 q 1132 24 1081 21 q 1161 54 1161 25 l 1161 1139 l 1263 1139 z "},"小":{"ha":1389,"x_min":46,"x_max":1344,"o":"m 754 1140 l 754 38 q 686 -90 754 -62 q 421 -110 628 -110 q 379 1 407 -46 q 606 0 543 -3 q 644 38 644 0 l 644 1140 l 754 1140 m 1072 833 q 1344 222 1289 485 l 1238 174 q 976 792 1181 450 l 1072 833 m 397 797 q 138 182 301 379 q 46 243 93 218 q 283 818 213 435 l 397 797 z "},"生":{"ha":1389,"x_min":79,"x_max":1313,"o":"m 1313 38 l 1313 -62 l 82 -62 l 82 38 l 644 38 l 644 390 l 232 390 l 232 490 l 644 490 l 644 793 l 318 793 q 172 567 250 658 q 79 628 132 601 q 336 1139 244 806 l 440 1117 q 363 894 403 988 l 644 894 l 644 1161 l 750 1161 l 750 894 l 1247 894 l 1247 793 l 750 793 l 750 490 l 1196 490 l 1196 390 l 750 390 l 750 38 l 1313 38 z "},"物":{"ha":1389,"x_min":44,"x_max":1315,"o":"m 407 399 l 407 -107 l 311 -107 l 311 368 l 82 297 l 54 396 q 311 469 233 444 l 311 779 l 185 779 q 124 574 157 650 q 44 619 72 608 q 140 1082 108 764 l 231 1067 q 204 879 222 994 l 311 879 l 311 1161 l 407 1161 l 407 879 l 550 879 l 550 779 l 407 779 l 407 496 l 568 546 l 582 454 l 407 399 m 1315 929 q 1314 878 1315 890 q 1197 -36 1274 60 q 1101 -89 1163 -83 q 943 -89 1051 -96 q 914 13 940 -28 q 1060 6 992 6 q 1111 29 1092 6 q 1214 833 1176 101 l 1147 833 q 694 -83 1022 178 q 608 -21 664 -49 q 1058 833 929 210 l 944 833 q 603 204 832 403 q 521 264 572 238 q 856 833 742 436 l 736 833 q 578 569 663 669 q 499 629 557 590 q 742 1163 664 810 l 836 1143 q 774 929 810 1029 l 1218 929 l 1218 931 l 1315 929 z "},"微":{"ha":1389,"x_min":28,"x_max":1340,"o":"m 856 719 l 422 719 l 422 1049 l 496 1049 l 496 804 l 601 804 l 601 1161 l 681 1161 l 681 804 l 781 804 l 781 1049 l 856 1049 l 856 719 m 374 1126 q 100 810 261 946 q 43 888 78 847 q 279 1163 196 1008 l 374 1126 m 399 854 q 303 682 363 779 l 303 -104 l 208 -104 l 208 546 q 89 403 161 481 q 28 493 58 460 q 308 886 204 663 l 399 854 m 915 263 q 942 189 926 218 q 725 26 751 61 q 688 113 715 65 q 725 199 725 136 l 725 360 l 546 360 l 546 279 q 419 -103 546 32 q 353 -33 396 -62 q 456 281 456 74 l 456 442 l 810 442 l 810 196 l 915 263 m 1021 788 l 1014 760 q 1007 732 1008 740 q 1092 343 1038 503 q 1189 788 1161 526 l 1021 788 m 1282 788 q 1139 228 1238 432 q 1340 -21 1219 53 q 1274 -101 1300 -56 q 1086 133 1163 -24 q 851 -110 992 -15 q 792 -33 824 -60 q 1042 235 949 64 q 956 579 989 383 q 907 485 925 513 q 856 546 874 528 l 856 529 l 396 529 l 396 618 l 856 618 l 856 590 q 989 1161 950 776 l 1083 1146 q 1042 876 1067 1004 l 1328 876 l 1328 788 l 1282 788 z "},"风":{"ha":1389,"x_min":60,"x_max":1343,"o":"m 936 874 q 768 485 865 660 q 1018 124 933 274 l 924 68 q 714 392 856 190 q 413 49 572 168 q 335 128 372 101 q 650 476 503 243 q 394 797 526 643 l 479 842 q 704 569 603 700 q 846 897 790 731 l 936 874 m 1156 1096 q 1164 310 1151 510 q 1244 14 1181 14 q 1275 222 1269 14 q 1343 150 1310 175 q 1314 -39 1335 11 q 1236 -92 1292 -92 q 1079 183 1113 -92 q 1054 996 1056 367 l 329 996 l 329 685 q 146 -110 329 147 q 60 -40 110 -65 q 225 685 225 189 l 225 1096 l 1156 1096 z "},"吹":{"ha":1389,"x_min":101,"x_max":1336,"o":"m 736 817 q 583 519 668 635 q 492 576 544 550 q 725 1160 651 775 l 828 1143 q 769 917 804 1022 l 1232 917 l 1250 921 l 1325 899 q 1204 536 1260 650 l 1117 567 q 1196 817 1157 660 l 736 817 m 200 936 l 200 332 l 382 332 l 382 936 l 200 936 m 200 232 l 200 125 l 101 125 l 101 1036 l 481 1036 l 481 232 l 200 232 m 954 594 q 953 532 954 554 q 1336 -14 1042 94 q 1267 -101 1294 -50 q 918 321 1026 3 q 517 -107 833 50 q 444 -29 493 -65 q 790 282 694 90 q 853 597 853 410 l 853 714 l 954 714 l 954 594 z "},"过":{"ha":1389,"x_min":57,"x_max":1335,"o":"m 999 815 l 465 815 l 465 914 l 999 914 l 999 1157 l 1101 1157 l 1101 914 l 1293 914 l 1293 815 l 1101 815 l 1101 267 q 1035 151 1101 172 q 772 132 979 132 q 736 236 765 181 q 961 233 836 233 q 999 267 999 235 l 999 815 m 613 706 q 811 435 761 524 l 724 382 q 531 661 654 511 l 613 706 m 319 835 q 115 1072 256 943 l 194 1125 q 404 894 343 989 l 319 835 m 367 179 q 410 149 376 174 q 469 108 443 125 q 831 42 576 42 q 1335 68 1079 42 q 1303 -43 1306 8 q 828 -57 1106 -57 q 446 19 565 -57 q 313 101 317 101 q 129 -75 261 101 l 57 22 q 265 186 178 153 l 265 547 l 75 547 l 75 644 l 367 644 l 367 179 z "},"身":{"ha":1389,"x_min":64,"x_max":1300,"o":"m 950 394 l 974 415 l 974 529 l 397 529 l 397 394 l 950 394 m 397 935 l 397 814 l 974 814 l 974 935 l 397 935 m 397 608 l 974 608 l 974 735 l 397 735 l 397 608 m 1300 635 q 1074 378 1207 500 l 1074 40 q 1007 -81 1074 -57 q 726 -100 947 -100 q 690 4 715 -44 q 935 1 764 1 q 974 40 974 6 l 974 294 q 126 -118 642 35 q 64 -32 106 -74 q 832 304 513 85 l 114 304 l 114 394 l 296 394 l 296 1026 l 581 1026 q 638 1165 619 1106 l 754 1147 q 689 1026 711 1064 l 1074 1026 l 1074 508 q 1211 678 1160 601 l 1300 635 z "},"影":{"ha":1389,"x_min":82,"x_max":1332,"o":"m 1260 1093 q 896 768 1115 901 q 821 839 854 817 q 1164 1133 1042 963 l 1260 1093 m 1303 722 q 894 378 1153 521 q 822 451 860 424 q 1210 761 1072 574 l 1303 722 m 674 1042 l 253 1042 l 253 960 l 674 960 l 674 1042 m 674 892 l 253 892 l 253 807 l 674 807 l 674 892 m 775 738 l 154 738 l 154 1113 l 775 1113 l 775 738 m 822 565 l 86 565 l 86 649 l 410 649 l 378 711 l 472 735 q 519 649 501 692 l 822 649 l 822 565 m 306 175 q 156 -53 250 44 q 82 4 103 -8 q 218 201 168 85 l 306 175 m 263 306 l 658 306 l 658 422 l 263 422 l 263 306 m 510 232 l 510 3 q 465 -83 510 -65 q 303 -99 432 -99 q 271 -14 293 -54 q 389 -14 365 -17 q 408 4 408 -14 l 408 232 l 167 232 l 167 496 l 760 496 l 760 232 l 510 232 m 653 203 q 783 3 743 90 l 706 -37 q 581 168 661 60 l 653 203 m 1332 326 q 853 -99 1169 58 q 781 -19 825 -56 q 1238 364 1090 118 l 1332 326 z "},"和":{"ha":1389,"x_min":40,"x_max":1250,"o":"m 447 754 l 689 754 l 689 658 l 447 658 l 447 622 q 679 354 551 513 l 617 269 q 447 504 576 336 l 447 -103 l 346 -103 l 346 508 q 97 94 233 240 q 40 189 79 138 q 319 658 213 361 l 75 658 l 75 754 l 346 754 l 346 985 q 117 951 239 968 q 88 1033 107 997 q 610 1149 442 1082 l 679 1068 q 447 1004 583 1033 l 447 754 m 1147 169 l 1147 935 l 838 935 l 838 169 l 1147 169 m 1250 1033 l 1250 -35 l 1147 -35 l 1147 69 l 838 69 l 838 -44 l 736 -44 l 736 1033 l 1250 1033 z "},"叶":{"ha":1389,"x_min":118,"x_max":1328,"o":"m 214 936 l 214 332 l 415 332 l 415 936 l 214 936 m 511 232 l 214 232 l 214 125 l 118 125 l 118 1036 l 511 1036 l 511 232 m 1328 582 l 996 582 l 996 -108 l 890 -108 l 890 582 l 558 582 l 558 683 l 890 683 l 890 1146 l 996 1146 l 996 683 l 1328 683 l 1328 582 z "},"混":{"ha":1389,"x_min":65,"x_max":1335,"o":"m 1110 1018 l 589 1018 l 589 892 l 1110 892 l 1110 1018 m 1110 810 l 589 810 l 589 681 l 1110 681 l 1110 810 m 1211 594 l 492 594 l 492 1104 l 1211 1104 l 1211 594 m 310 539 q 65 692 226 597 l 124 764 q 369 619 283 681 l 310 539 m 99 -18 q 361 425 217 146 l 436 357 q 186 -87 318 126 l 99 -18 m 190 1142 q 443 993 357 1053 l 381 914 q 129 1071 278 986 l 190 1142 m 840 82 q 856 -6 844 38 q 488 -111 525 -89 q 450 -7 472 -47 q 501 67 501 13 l 501 538 l 601 538 l 601 369 l 842 369 l 842 278 l 601 278 l 601 26 l 840 82 m 1194 8 q 1233 38 1225 8 q 1246 172 1243 67 q 1335 133 1275 149 q 1301 -39 1328 6 q 1204 -83 1274 -83 l 1033 -83 q 924 -54 951 -83 q 896 54 896 -26 l 896 532 l 994 532 l 994 307 q 1242 450 1154 381 l 1315 374 q 994 215 1188 292 l 994 56 q 1004 17 994 25 q 1047 8 1014 8 l 1194 8 z "},"作":{"ha":1389,"x_min":56,"x_max":1331,"o":"m 497 1125 q 356 828 446 986 l 356 -104 l 253 -104 l 253 668 q 115 503 192 582 q 56 606 89 568 q 399 1157 274 817 l 497 1125 m 903 832 l 903 633 l 1299 633 l 1299 538 l 903 538 l 903 328 l 1318 328 l 1318 231 l 903 231 l 903 -106 l 799 -106 l 799 832 l 703 832 q 506 543 611 661 q 425 613 472 579 q 731 1144 619 814 l 829 1118 q 753 931 800 1035 l 1331 931 l 1331 832 l 903 832 z "},"一":{"ha":1389,"x_min":65,"x_max":1322,"o":"m 1322 597 l 1322 485 l 65 485 l 65 597 l 1322 597 z "},"团":{"ha":1389,"x_min":122,"x_max":1267,"o":"m 1078 679 l 864 679 l 864 240 q 815 144 864 164 q 635 125 775 125 q 601 218 629 167 q 740 218 711 215 q 764 240 764 218 l 764 563 q 364 238 593 367 q 297 307 335 278 q 731 679 560 449 l 318 679 l 318 772 l 764 772 l 764 947 l 864 947 l 864 772 l 1078 772 l 1078 679 m 1158 44 l 1158 1006 l 226 1006 l 226 44 l 1158 44 m 1267 1101 l 1267 -107 l 1158 -107 l 1158 -50 l 226 -50 l 226 -107 l 122 -107 l 122 1101 l 1267 1101 z "},"在":{"ha":1389,"x_min":58,"x_max":1299,"o":"m 932 24 l 1299 24 l 1299 -74 l 464 -74 l 464 24 l 829 24 l 829 414 l 518 414 l 518 511 l 829 511 l 829 776 l 932 776 l 932 511 l 1244 511 l 1244 414 l 932 414 l 932 24 m 1299 947 l 1299 849 l 542 849 q 374 565 464 688 l 374 -101 l 272 -101 l 272 443 q 111 303 204 369 q 58 396 96 346 q 425 849 282 554 l 92 849 l 92 947 l 471 947 q 544 1163 514 1053 l 650 1136 q 583 947 626 1056 l 1299 947 z "},"这":{"ha":1389,"x_min":54,"x_max":1332,"o":"m 1178 132 q 878 394 1093 217 q 467 128 718 226 q 406 217 438 182 q 799 456 647 301 q 454 711 610 603 l 525 771 q 863 529 663 681 q 1025 849 968 665 l 413 849 l 413 946 l 822 946 q 726 1139 792 1035 l 824 1169 q 929 972 903 1049 l 857 946 l 1308 946 l 1308 849 l 1133 849 q 942 469 1063 625 q 1257 207 1161 300 l 1178 132 m 285 828 q 88 1047 225 928 l 168 1101 q 371 890 304 990 l 285 828 m 351 144 q 399 118 367 138 q 460 81 438 93 q 818 25 563 25 q 1332 51 1110 25 q 1299 -64 1303 -12 q 814 -78 1082 -78 q 439 -14 560 -78 q 307 56 310 56 q 128 -94 254 56 l 54 4 q 251 143 165 111 l 251 546 l 74 546 l 74 643 l 351 643 l 351 144 z "},"里":{"ha":1389,"x_min":81,"x_max":1313,"o":"m 324 581 l 649 581 l 649 751 l 324 751 l 324 581 m 324 843 l 649 843 l 649 1011 l 324 1011 l 324 843 m 1082 1011 l 750 1011 l 750 843 l 1082 843 l 1082 1011 m 1082 751 l 750 751 l 750 581 l 1082 581 l 1082 751 m 1313 35 l 1313 -67 l 81 -67 l 81 35 l 642 35 l 642 226 l 174 226 l 174 328 l 642 328 l 642 483 l 218 483 l 218 1108 l 1192 1108 l 1192 483 l 757 483 l 757 328 l 1238 328 l 1238 226 l 757 226 l 757 35 l 1313 35 z "},"阴":{"ha":1389,"x_min":122,"x_max":1267,"o":"m 568 1067 q 429 711 494 860 q 554 411 554 567 q 499 247 554 288 q 425 221 471 225 q 331 219 385 215 q 304 315 328 269 q 383 313 356 311 q 426 326 411 315 q 456 421 456 344 q 332 699 456 561 q 442 1011 381 821 l 219 1011 l 219 -104 l 122 -104 l 122 1106 l 481 1106 l 497 1110 l 568 1067 m 1167 439 l 1167 678 l 772 678 l 772 551 q 769 439 772 517 l 1167 439 m 772 1001 l 772 772 l 1167 772 l 1167 1001 l 772 1001 m 1267 31 q 1217 -78 1267 -53 q 1014 -97 1169 -97 q 982 4 1006 -39 q 1139 3 1096 0 q 1167 31 1167 3 l 1167 344 l 761 344 q 565 -118 725 40 q 482 -60 539 -85 q 672 551 672 124 l 672 1096 l 1267 1096 l 1267 31 z "},"凉":{"ha":1389,"x_min":57,"x_max":1293,"o":"m 1278 904 l 415 904 l 415 1001 l 811 1001 q 753 1136 783 1071 l 851 1164 q 926 1001 901 1065 l 1278 1001 l 1278 904 m 257 710 q 72 1063 206 861 l 160 1108 q 350 765 303 900 l 257 710 m 363 438 q 157 -37 268 185 l 57 10 q 272 483 167 204 l 363 438 m 646 306 q 438 -35 554 107 q 356 26 403 3 q 550 335 468 151 l 646 306 m 600 497 l 1085 497 l 1085 701 l 600 701 l 600 497 m 901 410 l 901 10 q 847 -86 901 -68 q 642 -103 806 -103 q 606 -10 633 -57 q 768 -10 735 -12 q 794 13 794 -10 l 794 410 l 501 410 l 501 790 l 1188 790 l 1188 410 l 901 410 m 1115 333 q 1293 32 1243 146 l 1204 -11 q 1029 297 1143 119 l 1115 333 z "},"坐":{"ha":1389,"x_min":58,"x_max":1314,"o":"m 531 543 q 340 758 456 643 q 138 476 260 586 q 58 549 114 504 q 342 1099 268 722 l 444 1082 q 381 851 421 965 q 601 617 519 721 l 531 543 m 1314 46 l 1314 -54 l 78 -54 l 78 46 l 640 46 l 640 310 l 178 310 l 178 408 l 640 408 l 640 1144 l 743 1144 l 743 586 q 1017 1094 947 750 l 1118 1076 q 1044 838 1092 951 q 1313 556 1232 661 l 1239 483 q 1001 749 1161 592 q 815 508 926 604 q 743 575 775 549 l 743 408 l 1219 408 l 1219 310 l 743 310 l 743 46 l 1314 46 z "},"上":{"ha":1389,"x_min":76,"x_max":1308,"o":"m 1308 63 l 1308 -40 l 76 -40 l 76 63 l 593 63 l 593 1140 l 703 1140 l 703 715 l 1222 715 l 1222 611 l 703 611 l 703 63 l 1308 63 z "},"哪":{"ha":1389,"x_min":107,"x_max":1315,"o":"m 188 935 l 188 356 l 315 356 l 315 935 l 188 935 m 188 260 l 188 124 l 107 124 l 107 1029 l 397 1029 l 397 260 l 188 260 m 772 438 q 774 550 774 475 l 775 681 l 658 681 q 644 438 658 546 l 772 438 m 658 769 l 775 769 l 776 1004 l 658 1004 l 658 769 m 863 1042 q 824 -47 858 11 q 746 -100 800 -93 q 615 -103 699 -107 q 592 -10 615 -50 q 707 -12 640 -12 q 746 13 732 -14 q 771 347 765 53 l 632 347 q 433 -110 583 63 q 371 -46 411 -74 q 546 347 503 106 l 447 347 l 447 438 l 560 438 q 572 681 572 546 l 449 681 l 449 769 l 572 769 l 572 1004 l 450 1004 l 450 1094 l 863 1094 l 863 1042 m 1315 1060 q 1183 632 1219 738 q 1300 292 1300 471 q 1250 118 1300 157 q 1182 92 1228 100 q 1100 90 1136 86 q 1078 179 1097 146 q 1147 178 1114 175 q 1188 192 1172 178 q 1213 304 1213 211 q 1099 622 1213 471 q 1206 1007 1151 783 l 1038 1007 l 1038 -107 l 950 -107 l 950 1094 l 1239 1094 l 1251 1099 l 1315 1060 z "},"怕":{"ha":1389,"x_min":58,"x_max":1285,"o":"m 58 542 q 129 896 110 672 l 208 885 q 139 514 194 667 l 58 542 m 261 1163 l 361 1163 l 361 -106 l 261 -106 l 261 1163 m 450 942 q 553 686 526 789 l 474 649 q 375 908 444 764 l 450 942 m 1182 67 l 1182 401 l 697 401 l 697 67 l 1182 67 m 697 814 l 697 499 l 1182 499 l 1182 814 l 697 814 m 1285 914 l 1285 -94 l 1182 -94 l 1182 -35 l 697 -35 l 697 -106 l 597 -106 l 597 914 l 828 914 q 885 1153 868 1046 l 1003 1138 q 932 914 960 993 l 1285 914 z "},"会":{"ha":1389,"x_min":64,"x_max":1333,"o":"m 129 468 l 1269 468 l 1269 368 l 664 368 q 381 53 518 175 l 1011 100 q 850 267 936 188 l 938 314 q 1253 -49 1154 118 l 1161 -106 q 1085 8 1128 -49 q 222 -76 271 -58 q 188 31 197 6 q 290 103 222 38 q 524 368 389 185 l 129 368 l 129 468 m 799 1118 q 758 1063 781 1094 q 1333 704 996 819 q 1261 613 1293 669 q 699 993 946 740 q 386 733 568 850 l 1028 733 l 1028 638 l 368 638 l 368 722 q 139 599 256 651 q 64 686 107 650 q 700 1161 511 878 l 799 1118 z "},"儿":{"ha":1389,"x_min":49,"x_max":1332,"o":"m 976 1104 l 976 83 q 986 24 976 38 q 1029 11 996 11 l 1171 11 q 1219 68 1207 11 q 1235 299 1229 119 q 1332 250 1281 263 q 1296 -14 1325 54 q 1179 -89 1265 -89 l 1018 -89 q 903 -53 933 -89 q 872 85 872 -17 l 872 1104 l 976 1104 m 465 1103 l 465 657 q 408 244 465 401 q 122 -107 331 28 q 49 -28 94 -62 q 311 289 240 94 q 363 657 363 428 l 363 1103 l 465 1103 z "},"也":{"ha":1389,"x_min":47,"x_max":1317,"o":"m 1053 17 q 1179 64 1147 17 q 1221 261 1207 108 q 1317 219 1258 235 q 1253 -12 1300 46 q 1054 -78 1200 -78 l 568 -78 q 358 -33 413 -78 q 301 140 301 11 l 301 574 l 75 503 l 47 596 l 301 674 l 301 1068 l 401 1068 l 401 704 l 689 793 l 689 1160 l 790 1160 l 790 824 l 1113 924 l 1142 946 l 1214 914 l 1208 894 q 1164 386 1201 492 q 1053 282 1129 293 q 890 275 992 272 q 864 371 883 338 q 1003 367 913 367 q 1075 432 1054 367 q 1107 824 1103 511 l 790 725 l 790 189 l 689 189 l 689 693 l 401 604 l 401 138 q 432 40 401 64 q 564 17 464 17 l 1053 17 z "},"感":{"ha":1389,"x_min":65,"x_max":1324,"o":"m 276 813 q 142 271 276 458 q 65 336 108 313 q 181 814 181 500 l 181 1022 l 804 1022 q 796 1163 799 1088 l 894 1163 q 901 1022 897 1067 l 1121 1022 q 967 1117 1054 1075 l 1026 1165 q 1201 1061 1139 1115 l 1156 1022 l 1313 1022 l 1313 936 l 911 936 q 992 603 936 739 q 1140 868 1086 721 l 1232 846 q 1036 510 1163 657 q 1189 388 1108 388 q 1242 563 1233 389 q 1324 519 1279 532 q 1283 340 1314 389 q 1185 293 1253 293 q 968 436 1063 293 q 807 308 892 364 q 733 378 774 347 q 922 522 832 436 q 813 936 844 686 l 276 936 l 276 813 m 658 322 q 844 117 796 188 l 758 71 q 576 283 700 160 l 658 322 m 69 -19 q 211 226 139 65 l 301 192 q 164 -60 201 -10 l 69 -19 m 764 769 l 332 769 l 332 844 l 764 844 l 764 769 m 656 613 l 433 613 l 433 467 l 656 467 l 656 613 m 739 392 l 349 392 l 349 688 l 739 688 l 739 392 m 879 -10 q 951 19 935 -10 q 974 156 967 47 q 1069 119 1008 131 q 1024 -51 1058 -10 q 885 -93 988 -93 l 568 -93 q 408 -67 449 -93 q 367 33 367 -42 l 367 264 l 469 264 l 469 35 q 489 -1 469 7 q 574 -10 507 -10 l 879 -10 m 1149 257 q 1301 0 1257 107 l 1204 -37 q 1057 228 1161 75 l 1149 257 z "},"心":{"ha":1389,"x_min":67,"x_max":1336,"o":"m 546 1114 q 919 807 800 939 l 846 731 q 478 1046 718 875 l 546 1114 m 1150 710 q 1336 189 1288 428 l 1235 149 q 1054 672 1188 394 l 1150 710 m 292 654 q 169 110 243 301 l 67 153 q 192 674 154 360 l 292 654 m 517 778 l 517 93 q 535 31 517 46 q 613 17 553 17 l 878 17 q 961 71 942 17 q 988 304 979 121 q 1085 258 1024 275 q 1036 -10 1074 56 q 883 -81 996 -81 l 604 -81 q 453 -44 492 -81 q 413 94 413 -8 l 413 778 l 517 778 z "},"神":{"ha":1389,"x_min":49,"x_max":1281,"o":"m 346 932 q 221 1114 304 1013 l 300 1161 q 429 985 385 1064 l 346 932 m 550 889 q 383 589 490 739 q 565 401 494 483 l 506 318 q 363 492 450 394 l 363 -104 l 268 -104 l 268 453 q 94 301 178 360 q 49 400 75 368 q 428 829 292 554 l 78 829 l 78 924 l 479 924 l 497 928 l 550 889 m 1182 371 l 1182 565 l 985 565 l 985 371 l 1182 371 m 883 371 l 883 565 l 689 565 l 689 371 l 883 371 m 689 850 l 689 658 l 883 658 l 883 850 l 689 850 m 985 850 l 985 658 l 1182 658 l 1182 850 l 985 850 m 1281 943 l 1281 222 l 1182 222 l 1182 278 l 985 278 l 985 -104 l 883 -104 l 883 278 l 689 278 l 689 213 l 594 213 l 594 943 l 883 943 l 883 1163 l 985 1163 l 985 943 l 1281 943 z "},"崎":{"ha":1389,"x_min":92,"x_max":1331,"o":"m 1215 665 q 938 838 1124 731 q 643 654 858 707 q 593 729 626 700 q 885 954 836 783 l 611 954 l 611 1040 l 901 1040 q 911 1161 908 1089 l 1006 1161 q 996 1040 1003 1088 l 1288 1040 l 1288 954 l 981 954 q 969 915 967 908 q 1281 738 1158 815 l 1215 665 m 457 935 l 535 935 l 535 50 l 457 50 l 457 110 l 92 74 l 92 933 l 169 933 l 169 172 l 269 182 l 269 1150 l 356 1150 l 356 190 l 457 200 l 457 935 m 749 385 l 749 214 l 926 214 l 926 385 l 749 385 m 749 136 l 749 58 l 663 58 l 663 461 l 1013 461 l 1013 136 l 749 136 m 1331 564 l 1243 564 l 1243 11 q 1186 -90 1243 -68 q 963 -107 1139 -107 q 926 -12 957 -71 q 1115 -14 1067 -17 q 1144 14 1144 -12 l 1144 564 l 568 564 l 568 651 l 1331 651 l 1331 564 z "},"岖":{"ha":1389,"x_min":101,"x_max":1331,"o":"m 426 929 l 501 929 l 501 49 l 426 49 l 426 106 l 101 74 l 101 928 l 179 928 l 179 164 l 263 172 l 263 1146 l 344 1146 l 344 181 l 426 189 l 426 929 m 1331 40 l 1331 -54 l 592 -54 l 592 1081 l 1299 1081 l 1299 986 l 692 986 l 692 40 l 1331 40 m 1186 146 q 1021 431 1126 274 q 792 114 911 244 q 715 181 768 142 q 964 517 851 318 q 735 825 846 693 l 810 875 q 1014 610 915 744 q 1142 904 1088 750 l 1233 882 q 1074 525 1171 708 q 1269 206 1207 333 l 1186 146 z "},"乱":{"ha":1389,"x_min":60,"x_max":1331,"o":"m 625 357 l 229 357 l 229 74 l 625 74 l 625 357 m 476 776 l 782 776 l 782 682 l 476 682 l 476 450 l 726 450 l 726 -71 l 625 -71 l 625 -19 l 229 -19 l 229 -79 l 132 -79 l 132 450 l 375 450 l 375 682 l 60 682 l 60 776 l 375 776 l 375 986 q 111 953 253 967 q 82 1036 103 999 q 675 1150 490 1082 l 754 1072 q 476 1004 644 1033 l 476 776 m 1171 8 q 1221 61 1208 8 q 1238 268 1232 107 q 1331 222 1278 235 q 1294 -18 1322 43 q 1179 -86 1263 -86 l 997 -86 q 879 -50 910 -86 q 847 92 847 -12 l 847 1146 l 949 1146 l 949 90 q 960 24 949 39 q 1008 8 971 8 l 1171 8 z "},"曲":{"ha":1389,"x_min":140,"x_max":1254,"o":"m 1153 82 l 1153 388 l 907 388 l 907 82 l 1153 82 m 239 82 l 471 82 l 471 388 l 239 388 l 239 82 m 239 785 l 239 486 l 471 486 l 471 785 l 239 785 m 572 388 l 572 82 l 806 82 l 806 388 l 572 388 m 572 785 l 572 486 l 806 486 l 806 785 l 572 785 m 907 785 l 907 486 l 1153 486 l 1153 785 l 907 785 m 1254 886 l 1254 -101 l 1153 -101 l 1153 -18 l 239 -18 l 239 -107 l 140 -107 l 140 886 l 471 886 l 471 1147 l 572 1147 l 572 886 l 806 886 l 806 1147 l 907 1147 l 907 886 l 1254 886 z "},"折":{"ha":1389,"x_min":57,"x_max":1328,"o":"m 372 417 l 372 22 q 322 -79 372 -58 q 139 -99 285 -99 q 107 -3 132 -51 q 244 -4 139 -4 q 271 22 271 -3 l 271 385 q 88 331 210 368 l 57 431 l 271 489 l 271 786 l 78 786 l 78 882 l 271 882 l 271 1161 l 372 1161 l 372 882 l 558 882 l 558 786 l 372 786 l 372 518 l 554 571 l 568 476 l 372 417 m 1328 604 l 1094 604 l 1094 -99 l 993 -99 l 993 604 l 732 604 l 732 603 q 561 -104 732 143 q 479 -37 529 -65 q 631 603 631 185 l 631 1040 q 1214 1150 1017 1086 l 1275 1063 q 732 963 1079 1004 l 732 703 l 1328 703 l 1328 604 z "},"径":{"ha":1389,"x_min":56,"x_max":1322,"o":"m 458 1121 q 129 790 325 924 q 75 874 108 835 q 360 1158 267 1003 l 458 1121 m 474 818 q 360 643 425 729 l 360 -106 l 257 -106 l 257 519 q 110 381 175 433 q 56 479 92 429 q 385 854 261 631 l 474 818 m 1265 508 q 897 703 1125 603 q 497 499 722 582 q 436 583 476 543 q 1064 993 856 722 l 533 993 l 533 1089 l 1133 1089 l 1153 1093 l 1226 1049 q 979 765 1139 894 q 1322 593 1204 671 l 1265 508 m 942 29 l 1322 29 l 1322 -68 l 450 -68 l 450 29 l 838 29 l 838 365 l 533 365 l 533 461 l 1240 461 l 1240 365 l 942 365 l 942 29 z "},"通":{"ha":1389,"x_min":58,"x_max":1340,"o":"m 604 736 l 604 614 l 836 614 l 836 736 l 604 736 m 929 736 l 929 614 l 1171 614 l 1171 736 l 929 736 m 1171 411 l 1171 538 l 929 538 l 929 411 l 1171 411 m 836 411 l 836 538 l 604 538 l 604 411 l 836 411 m 604 100 l 506 100 l 506 815 l 899 815 q 629 933 756 886 l 693 992 q 894 911 782 960 q 1090 1029 990 957 l 507 1029 l 507 1111 l 1185 1111 l 1206 1117 l 1268 1068 q 985 869 1154 957 q 1088 815 1040 844 l 1269 815 l 1269 204 q 1222 114 1269 133 q 1035 97 1183 97 q 1007 183 1028 142 q 1147 182 1040 182 q 1171 206 1171 182 l 1171 332 l 929 332 l 929 106 l 836 106 l 836 332 l 604 332 l 604 100 m 329 811 q 93 1049 256 907 l 165 1107 q 404 879 335 967 l 329 811 m 358 153 q 403 122 371 146 q 464 82 439 97 q 828 14 575 14 q 1340 40 1071 14 q 1311 -61 1315 -19 q 825 -75 1072 -75 q 443 1 568 -75 q 308 81 314 81 q 124 -92 253 81 l 58 -7 q 258 156 182 124 l 258 547 l 64 547 l 64 644 l 358 644 l 358 153 z "},"往":{"ha":1389,"x_min":49,"x_max":1325,"o":"m 875 904 q 761 1135 846 1001 l 854 1168 q 975 943 943 1035 l 875 904 m 447 1122 q 122 790 319 928 q 68 874 99 835 q 349 1158 253 1000 l 447 1122 m 468 817 q 354 643 424 736 l 354 -107 l 250 -107 l 250 517 q 104 375 192 449 q 49 476 81 432 q 378 851 257 632 l 468 817 m 1325 35 l 1325 -64 l 447 -64 l 447 35 l 836 35 l 836 392 l 535 392 l 535 490 l 836 490 l 836 800 l 486 800 l 486 899 l 1290 899 l 1290 800 l 943 800 l 943 490 l 1246 490 l 1246 392 l 943 392 l 943 35 l 1325 35 z "},"同":{"ha":1389,"x_min":126,"x_max":1265,"o":"m 513 525 l 513 263 l 876 263 l 876 525 l 513 525 m 513 174 l 513 74 l 417 74 l 417 613 l 974 613 l 974 174 l 513 174 m 1047 757 l 347 757 l 347 847 l 1047 847 l 1047 757 m 1265 24 q 1208 -89 1265 -64 q 976 -108 1158 -108 q 939 -7 969 -57 q 1131 -8 1079 -11 q 1164 24 1164 -7 l 1164 992 l 226 992 l 226 -110 l 126 -110 l 126 1090 l 1265 1090 l 1265 24 z "},"每":{"ha":1389,"x_min":60,"x_max":1326,"o":"m 371 929 q 151 644 264 757 q 60 706 104 679 q 379 1169 260 879 l 481 1140 q 424 1022 440 1053 l 1279 1022 l 1279 929 l 371 929 m 1011 165 q 1028 390 1019 254 l 363 390 q 328 165 349 293 l 757 165 q 508 333 660 256 l 567 390 q 831 217 742 308 l 783 165 l 1011 165 m 404 697 l 374 479 l 790 479 q 543 635 690 571 l 601 693 q 854 540 761 625 l 794 479 l 1032 479 l 1040 697 l 404 697 m 1129 388 q 1113 165 1118 217 l 1279 165 l 1279 74 l 1101 74 q 1061 -56 1086 -18 q 964 -106 1026 -99 q 786 -103 901 -110 q 760 -21 783 -61 q 921 -26 867 -29 q 972 -7 956 -26 q 1000 74 988 11 l 207 74 q 260 388 239 247 l 64 388 l 64 482 l 274 482 q 313 789 308 750 l 1143 789 l 1132 482 l 1326 482 l 1326 388 l 1129 388 z "},"都":{"ha":1389,"x_min":35,"x_max":1333,"o":"m 479 743 q 600 910 553 833 l 438 910 l 438 743 l 479 743 m 617 432 l 306 432 l 306 297 l 617 297 l 617 432 m 617 68 l 617 214 l 306 214 l 306 68 l 617 68 m 800 1086 q 599 743 724 908 l 778 743 l 778 651 l 524 651 q 392 517 451 569 l 715 517 l 715 -81 l 617 -81 l 617 -18 l 306 -18 l 306 -100 l 210 -100 l 210 376 q 100 310 164 346 q 35 394 75 351 q 394 651 238 494 l 65 651 l 65 743 l 340 743 l 340 910 l 128 910 l 128 1001 l 340 1001 l 340 1150 l 438 1150 l 438 1001 l 610 1001 l 610 925 q 707 1113 657 999 l 800 1086 m 1333 1039 q 1132 622 1238 825 q 1315 286 1315 460 q 1244 106 1318 151 q 1151 74 1210 81 q 1022 72 1096 68 q 992 174 1019 129 q 1110 171 1067 167 q 1175 188 1149 174 q 1215 296 1218 211 q 1026 608 1215 451 q 1196 985 1117 786 l 938 985 l 938 -107 l 836 -107 l 836 1083 l 1243 1083 l 1260 1088 l 1333 1039 z "},"是":{"ha":1389,"x_min":56,"x_max":1331,"o":"m 1050 1026 l 332 1026 l 332 914 l 1050 914 l 1050 1026 m 1050 839 l 332 839 l 332 726 l 1050 726 l 1050 839 m 1153 647 l 231 647 l 231 1106 l 1153 1106 l 1153 647 m 757 26 q 921 18 832 18 q 1331 19 1260 18 q 1294 -79 1304 -25 l 917 -79 q 571 -33 693 -79 q 349 153 429 19 q 132 -108 268 -7 q 56 -35 103 -69 q 325 417 267 101 l 429 403 q 393 264 417 338 q 656 43 467 93 l 656 461 l 86 461 l 86 554 l 1306 554 l 1306 461 l 757 461 l 757 307 l 1215 307 l 1215 215 l 757 215 l 757 26 z "},"工":{"ha":1389,"x_min":76,"x_max":1315,"o":"m 1315 103 l 1315 0 l 76 0 l 76 103 l 635 103 l 635 900 l 149 900 l 149 1006 l 1246 1006 l 1246 900 l 747 900 l 747 103 l 1315 103 z "},"们":{"ha":1389,"x_min":54,"x_max":1275,"o":"m 411 1128 q 306 832 372 989 l 306 -106 l 206 -106 l 206 631 q 110 485 160 550 q 54 589 89 543 q 317 1154 215 796 l 411 1128 m 472 883 l 572 883 l 572 -107 l 472 -107 l 472 883 m 610 1161 q 775 896 726 1003 l 690 847 q 529 1118 639 969 l 610 1161 m 1275 25 q 1219 -85 1275 -61 q 999 -103 1175 -103 q 965 -4 992 -56 q 1143 -6 1074 -10 q 1174 26 1174 -4 l 1174 1017 l 799 1017 l 799 1111 l 1275 1111 l 1275 25 z "},"最":{"ha":1389,"x_min":69,"x_max":1333,"o":"m 1044 1043 l 346 1043 l 346 949 l 1044 949 l 1044 1043 m 1044 879 l 346 879 l 346 781 l 1044 781 l 1044 879 m 1146 707 l 247 707 l 247 1117 l 1146 1117 l 1146 707 m 300 85 q 551 114 426 99 l 551 200 l 300 200 l 300 85 m 300 544 l 300 451 l 551 451 l 551 544 l 300 544 m 300 276 l 551 276 l 551 374 l 300 374 l 300 276 m 650 40 l 650 -107 l 551 -107 l 551 28 l 81 -29 l 69 63 l 206 76 l 206 544 l 74 544 l 74 631 l 1313 631 l 1313 544 l 650 544 l 650 125 l 725 133 l 725 50 l 650 40 m 850 374 q 1000 160 906 250 q 1154 374 1101 260 l 850 374 m 1274 436 q 1069 101 1213 242 q 1333 -21 1185 18 q 1272 -103 1299 -54 q 997 40 1115 -54 q 735 -103 882 -50 q 682 -26 718 -62 q 931 101 818 18 q 760 365 825 210 l 788 374 l 704 374 l 704 458 l 1196 458 l 1215 461 l 1274 436 z "},"熟":{"ha":1389,"x_min":78,"x_max":1343,"o":"m 713 982 l 79 982 l 79 1057 l 369 1057 q 328 1143 360 1082 l 417 1167 q 476 1057 449 1124 l 713 1057 l 713 982 m 251 768 l 560 768 l 560 863 l 251 863 l 251 768 m 164 706 l 164 925 l 650 925 l 650 706 l 164 706 m 92 -61 q 244 174 183 22 l 339 151 q 186 -100 279 -7 l 92 -61 m 696 407 l 456 390 l 456 300 q 410 221 456 236 q 232 208 375 208 q 203 283 228 235 q 339 282 304 279 q 361 301 361 283 l 361 383 l 86 367 l 78 444 l 361 458 l 361 533 q 482 579 428 554 l 125 579 l 125 649 l 597 649 l 615 653 l 669 608 q 456 500 588 549 l 456 464 q 697 479 540 468 l 696 407 m 572 149 q 606 -81 603 21 l 504 -94 q 478 140 501 22 l 572 149 m 858 160 q 940 -71 917 40 l 840 -93 q 764 142 822 4 l 858 160 m 1143 176 q 1294 -67 1247 42 l 1194 -99 q 1049 151 1151 7 l 1143 176 m 1196 953 q 1200 469 1193 581 q 1253 301 1211 301 q 1279 485 1276 301 q 1343 426 1308 451 q 1317 257 1336 301 q 1244 210 1296 210 q 1121 375 1150 210 q 1100 864 1101 490 l 965 864 l 965 854 q 942 606 965 714 q 1079 476 1031 536 l 1024 396 q 914 510 993 438 q 668 196 843 325 q 600 260 638 233 q 836 575 772 385 q 697 675 792 611 l 747 744 q 858 668 815 700 q 872 854 872 749 l 872 864 l 726 864 l 726 953 l 872 953 l 872 1163 l 965 1163 l 965 953 l 1196 953 z "},"悉":{"ha":1389,"x_min":54,"x_max":1340,"o":"m 57 -1 q 251 290 194 88 l 340 260 q 139 -64 274 29 l 57 -1 m 869 -3 q 931 24 917 -3 q 949 151 943 50 q 1044 113 985 124 q 1001 -57 1033 -15 q 876 -97 969 -97 l 610 -97 q 463 -69 499 -97 q 425 40 425 -42 l 425 300 l 526 300 l 526 42 q 543 6 526 13 q 617 -3 558 -3 l 869 -3 m 769 163 q 518 344 688 258 l 585 407 q 840 232 751 329 l 769 163 m 1063 321 q 1329 18 1253 169 l 1239 -39 q 981 269 1171 111 l 1063 321 m 863 689 q 1340 433 1053 511 q 1271 346 1299 397 q 743 689 935 458 l 743 389 l 643 389 l 643 682 q 124 332 451 450 q 54 417 100 376 q 526 689 339 506 l 89 689 l 89 785 l 393 785 q 293 942 357 864 l 376 981 q 492 801 458 886 l 456 785 l 643 785 l 643 1003 q 183 975 444 985 q 158 1058 178 1019 q 1103 1156 804 1082 l 1194 1082 q 743 1013 1011 1039 l 743 785 l 893 785 l 878 793 q 1007 999 954 889 l 1101 953 q 975 785 1018 835 l 1303 785 l 1303 689 l 863 689 z "},"环":{"ha":1389,"x_min":56,"x_max":1307,"o":"m 461 282 l 478 190 q 82 47 282 117 l 56 143 l 226 200 l 226 574 l 83 574 l 83 669 l 226 669 l 226 972 l 63 972 l 63 1067 l 474 1067 l 474 972 l 322 972 l 322 669 l 444 669 l 444 574 l 322 574 l 322 233 l 461 282 m 1015 739 q 1304 376 1214 522 l 1219 313 q 938 686 1132 465 l 1015 739 m 1307 1072 l 1307 974 l 1008 974 q 936 799 974 872 l 936 -103 l 835 -103 l 835 610 q 575 296 717 419 q 494 376 547 333 q 897 974 754 585 l 544 974 l 544 1072 l 1307 1072 z "},"境":{"ha":1389,"x_min":53,"x_max":1318,"o":"m 1246 972 l 553 972 l 553 1060 l 853 1060 l 814 1151 l 910 1169 q 957 1060 938 1114 l 1246 1060 l 1246 972 m 1282 719 l 511 719 l 511 808 l 707 808 q 664 942 696 868 l 749 960 q 799 822 789 863 l 747 808 l 978 808 q 1036 956 1017 892 l 1132 935 l 1071 808 l 1282 808 l 1282 719 m 492 238 q 86 78 311 164 l 53 182 q 226 242 118 203 l 226 728 l 74 728 l 74 825 l 226 825 l 226 1146 l 326 1146 l 326 825 l 461 825 l 461 728 l 326 728 l 326 278 l 472 332 l 492 238 m 674 325 l 1110 325 l 1110 418 l 674 418 l 674 325 m 674 486 l 1110 486 l 1110 576 l 674 576 l 674 486 m 1157 -7 q 1204 -1 1194 -7 q 1229 28 1222 3 q 1235 146 1232 50 q 1318 101 1269 117 q 1301 -33 1313 -1 q 1250 -76 1283 -67 q 1165 -87 1217 -87 l 1072 -87 q 978 -64 1007 -87 q 943 49 943 -40 l 943 254 l 819 254 q 733 19 801 97 q 474 -111 656 -68 q 419 -31 456 -67 q 649 68 582 3 q 722 254 708 128 l 578 254 l 578 647 l 1208 647 l 1208 254 l 1040 254 l 1040 39 q 1053 0 1040 4 q 1090 -7 1064 -7 l 1157 -7 z "},"乏":{"ha":1389,"x_min":71,"x_max":1339,"o":"m 1236 1050 q 188 940 867 960 q 163 1033 183 979 q 1167 1136 850 1058 l 1236 1050 m 674 703 q 547 906 622 797 l 636 949 q 767 754 722 829 l 674 703 m 1206 636 q 471 96 932 308 q 836 25 576 25 q 1339 50 1096 25 q 1307 -61 1310 -3 q 831 -76 1032 -76 q 444 7 564 -76 q 311 99 307 99 q 151 -93 268 99 l 71 8 q 314 197 225 197 q 389 160 344 197 q 1018 583 757 315 l 171 583 l 171 685 l 1108 685 l 1131 690 l 1206 636 z "},"味":{"ha":1389,"x_min":106,"x_max":1332,"o":"m 200 936 l 200 332 l 374 332 l 374 936 l 200 936 m 200 232 l 200 125 l 106 125 l 106 1036 l 469 1036 l 469 232 l 200 232 m 996 503 q 1332 61 1129 201 q 1257 -24 1288 24 q 956 390 1088 113 l 956 -106 l 854 -106 l 854 389 q 501 -26 710 108 q 429 54 468 24 q 814 503 669 189 l 519 503 l 519 601 l 854 601 l 854 835 l 572 835 l 572 933 l 854 933 l 854 1154 l 956 1154 l 956 933 l 1260 933 l 1260 835 l 956 835 l 956 601 l 1317 601 l 1317 503 l 996 503 z "},"沉":{"ha":1389,"x_min":58,"x_max":1350,"o":"m 581 797 l 483 797 l 483 1075 l 1299 1075 l 1299 797 l 1197 797 l 1197 976 l 581 976 l 581 797 m 379 911 q 129 1074 292 976 l 190 1143 q 443 992 335 1065 l 379 911 m 321 557 q 58 701 233 615 l 115 774 q 381 640 272 708 l 321 557 m 444 372 q 186 -89 324 135 l 100 -19 q 368 439 238 183 l 444 372 m 1221 17 q 1249 60 1243 17 q 1257 254 1254 101 q 1350 211 1292 226 q 1321 -19 1343 39 q 1229 -79 1296 -79 l 1128 -79 q 1038 -50 1061 -79 q 1013 65 1013 -19 l 1013 642 l 742 642 l 742 444 q 465 -108 742 64 q 399 -29 435 -51 q 642 447 642 121 l 642 739 l 1114 739 l 1114 65 q 1119 25 1114 35 q 1143 17 1125 17 l 1221 17 z "},"闷":{"ha":1389,"x_min":133,"x_max":1263,"o":"m 367 874 q 185 1110 303 985 l 261 1160 q 447 931 390 1025 l 367 874 m 133 890 l 233 890 l 233 -107 l 133 -107 l 133 890 m 267 276 q 374 683 336 422 l 453 663 q 350 246 404 364 l 267 276 m 800 188 q 843 231 833 188 q 857 428 854 274 q 938 389 888 404 q 906 163 931 218 q 807 106 881 106 l 644 106 q 542 133 568 106 q 515 236 515 160 l 515 728 l 603 728 l 603 236 q 613 197 603 206 q 654 188 622 188 l 800 188 m 756 542 q 601 881 711 697 l 676 914 q 838 581 799 715 l 756 542 m 1025 264 q 911 703 1004 447 l 989 721 q 1110 289 1083 476 l 1025 264 m 1263 26 q 1203 -81 1263 -57 q 965 -97 1158 -97 q 932 -6 958 -51 q 1129 -7 1072 -10 q 1161 26 1161 -6 l 1161 1018 l 496 1018 l 496 1113 l 1263 1113 l 1263 26 z "},"充":{"ha":1389,"x_min":82,"x_max":1325,"o":"m 703 942 q 592 1136 668 1025 l 693 1167 q 810 978 771 1061 l 703 942 m 1157 25 q 1210 64 1197 25 q 1228 244 1222 103 q 1325 197 1260 215 q 1285 -18 1317 36 q 1165 -74 1253 -74 l 957 -74 q 828 -42 861 -74 q 794 76 794 -11 l 794 472 l 589 461 q 485 107 567 226 q 147 -108 383 -39 q 82 -18 125 -57 q 385 160 296 39 q 478 454 457 257 q 214 426 258 440 q 178 532 189 506 q 274 599 210 536 q 481 840 368 685 l 97 840 l 97 940 l 1294 940 l 1294 840 l 619 840 q 361 549 497 679 l 1013 578 q 831 740 933 658 l 914 790 q 1269 451 1151 610 l 1179 392 q 1099 489 1157 424 l 904 478 l 904 78 q 917 35 904 44 q 969 25 928 25 l 1157 25 z "},"满":{"ha":1389,"x_min":63,"x_max":1317,"o":"m 647 960 l 415 960 l 415 1049 l 647 1049 l 647 1160 l 744 1160 l 744 1049 l 972 1049 l 972 1160 l 1069 1160 l 1069 1049 l 1308 1049 l 1308 960 l 1069 960 l 1069 854 l 972 854 l 972 960 l 744 960 l 744 854 l 647 854 l 647 960 m 276 542 q 63 681 204 607 l 124 753 q 340 622 256 688 l 276 542 m 90 -10 q 310 419 200 172 l 390 354 q 182 -75 294 131 l 90 -10 m 194 1129 q 404 983 335 1047 l 338 907 q 131 1061 261 981 l 194 1129 m 949 600 q 951 725 951 678 l 793 725 l 789 600 l 949 600 m 1036 725 l 1032 600 l 1276 600 l 1276 -1 q 1229 -83 1276 -65 q 1039 -96 1194 -96 q 1010 -25 1032 -65 q 1156 -25 1126 -28 q 1181 -1 1181 -24 l 1181 508 l 1025 508 q 1013 404 1021 454 q 1154 182 1119 271 l 1085 128 q 990 296 1050 207 q 865 50 951 149 q 794 103 839 79 q 942 508 917 231 l 782 508 q 765 389 775 440 q 871 254 846 304 l 811 196 q 743 297 793 233 q 621 81 706 172 q 551 142 586 118 q 697 508 672 251 l 544 508 l 544 -101 l 444 -101 l 444 600 l 704 600 q 707 725 707 678 l 408 725 l 408 813 l 1317 813 l 1317 725 l 1036 725 z "},"汗":{"ha":1389,"x_min":63,"x_max":1328,"o":"m 399 896 q 133 1075 303 981 l 194 1146 q 461 976 363 1057 l 399 896 m 318 540 q 63 690 221 614 l 118 767 q 375 626 290 686 l 318 540 m 110 -18 q 372 425 233 157 l 447 357 q 194 -87 328 121 l 110 -18 m 1328 511 l 938 511 l 938 -106 l 829 -106 l 829 511 l 456 511 l 456 613 l 829 613 l 829 989 l 511 989 l 511 1090 l 1268 1090 l 1268 989 l 938 989 l 938 613 l 1328 613 l 1328 511 z "},"活":{"ha":1389,"x_min":63,"x_max":1324,"o":"m 388 918 q 131 1071 304 976 l 188 1144 q 447 1001 344 1069 l 388 918 m 318 542 q 63 692 218 610 l 119 767 q 376 626 290 682 l 318 542 m 96 -18 q 358 426 215 149 l 433 358 q 182 -87 317 122 l 96 -18 m 1135 335 l 640 335 l 640 49 l 1135 49 l 1135 335 m 943 658 l 943 431 l 1233 431 l 1233 -99 l 1135 -99 l 1135 -47 l 640 -47 l 640 -106 l 546 -106 l 546 431 l 844 431 l 844 658 l 444 658 l 444 758 l 844 758 l 844 983 q 539 946 703 963 q 511 1033 533 979 q 1183 1157 975 1082 l 1265 1076 q 943 999 1133 1032 l 943 758 l 1324 758 l 1324 658 l 943 658 z "},"还":{"ha":1389,"x_min":40,"x_max":1347,"o":"m 800 661 q 471 353 651 475 q 393 435 444 393 q 875 965 701 625 l 454 965 l 454 1067 l 1283 1067 l 1283 965 l 990 965 q 906 813 940 865 l 906 94 l 800 94 l 800 661 m 1011 736 q 1311 429 1228 529 l 1235 356 q 939 675 1151 463 l 1011 736 m 331 847 q 119 1085 260 951 l 199 1140 q 415 913 353 997 l 331 847 m 347 154 l 392 121 q 453 79 425 96 q 826 10 563 10 q 1347 39 1107 10 q 1315 -76 1317 -31 q 825 -92 1044 -92 q 426 -14 556 -92 q 292 74 299 74 q 117 -110 244 74 l 40 -11 q 246 163 161 128 l 246 593 l 64 593 l 64 694 l 347 694 l 347 154 z "},"有":{"ha":1389,"x_min":60,"x_max":1301,"o":"m 1038 632 l 458 632 l 458 492 l 1038 492 l 1038 632 m 1038 257 l 1038 401 l 458 401 l 458 257 l 1038 257 m 554 886 q 469 725 504 783 l 1139 725 l 1139 24 q 1081 -86 1139 -64 q 839 -104 1031 -104 q 806 -3 833 -60 q 1006 -6 867 -6 q 1038 24 1038 -4 l 1038 168 l 458 168 l 458 -106 l 357 -106 l 357 564 q 125 344 253 433 q 60 424 100 386 q 442 886 294 582 l 93 886 l 93 983 l 485 983 q 546 1163 522 1079 l 649 1138 q 594 983 614 1028 l 1301 983 l 1301 886 l 554 886 z "},"监":{"ha":1389,"x_min":69,"x_max":1324,"o":"m 861 874 q 682 581 782 692 q 597 643 636 619 q 854 1160 772 824 l 954 1139 q 900 968 938 1075 l 1307 968 l 1307 874 l 861 874 m 957 776 q 1238 554 1140 656 l 1154 492 q 879 722 1065 590 l 957 776 m 544 503 l 443 503 l 443 1157 l 544 1157 l 544 503 m 272 546 l 172 546 l 172 1111 l 272 1111 l 272 546 m 322 25 l 508 25 l 508 331 l 322 331 l 322 25 m 604 331 l 604 25 l 790 25 l 790 331 l 604 331 m 886 331 l 886 25 l 1075 25 l 1075 331 l 886 331 m 1324 25 l 1324 -69 l 69 -69 l 69 25 l 225 25 l 225 419 l 1176 419 l 1176 25 l 1324 25 z "},"视":{"ha":1389,"x_min":60,"x_max":1335,"o":"m 726 361 l 626 361 l 626 1094 l 1256 1094 l 1256 361 l 1153 361 l 1153 1003 l 726 1003 l 726 361 m 346 932 q 218 1113 300 1024 l 297 1158 q 429 985 388 1071 l 346 932 m 500 306 q 365 489 453 376 l 365 -106 l 267 -106 l 267 432 q 106 285 185 343 q 60 385 88 350 q 428 829 299 547 l 93 829 l 93 924 l 478 924 l 497 928 l 553 890 q 392 586 494 733 q 565 388 440 532 l 500 306 m 1189 -7 q 1235 36 1224 -7 q 1250 228 1244 76 q 1335 188 1285 200 q 1301 -31 1325 18 q 1188 -86 1274 -86 l 1061 -86 q 960 -61 989 -86 q 929 31 929 -36 l 929 296 q 558 -108 832 38 q 493 -31 538 -65 q 819 286 728 90 q 883 628 883 422 l 883 897 l 983 897 l 983 625 q 956 383 983 496 l 1025 383 l 1025 42 q 1036 3 1025 13 q 1076 -7 1046 -7 l 1189 -7 z "},"些":{"ha":1389,"x_min":63,"x_max":1322,"o":"m 928 463 q 796 494 831 463 q 763 618 763 526 l 763 1161 l 865 1161 l 865 886 q 1174 1026 1068 958 l 1256 947 q 865 794 1113 869 l 865 618 q 878 572 865 582 q 939 561 892 561 l 1156 561 q 1210 593 1197 561 q 1226 742 1221 625 q 1322 699 1261 715 q 1281 511 1311 558 q 1164 463 1249 463 l 928 463 m 238 331 l 1168 331 l 1168 232 l 238 232 l 238 331 m 700 503 q 75 422 331 453 l 63 522 l 154 532 l 154 1010 l 250 1010 l 250 543 l 372 558 l 372 1161 l 474 1161 l 474 924 l 689 924 l 689 829 l 474 829 l 474 571 l 699 596 l 700 503 m 83 29 l 1307 29 l 1307 -72 l 83 -72 l 83 29 z "},"王":{"ha":1389,"x_min":78,"x_max":1314,"o":"m 1314 57 l 1314 -44 l 78 -44 l 78 57 l 640 57 l 640 483 l 208 483 l 208 585 l 640 585 l 640 967 l 149 967 l 149 1068 l 1242 1068 l 1242 967 l 746 967 l 746 585 l 1193 585 l 1193 483 l 746 483 l 746 57 l 1314 57 z "},"酋":{"ha":1389,"x_min":78,"x_max":1310,"o":"m 782 886 l 600 886 l 600 750 l 782 750 l 782 886 m 879 664 l 879 510 q 913 454 879 454 l 1040 454 q 1081 456 1067 454 l 1081 664 l 879 664 m 1081 61 l 1081 185 l 308 185 l 308 61 l 1081 61 m 308 664 l 308 267 l 1081 267 l 1081 376 l 900 376 q 806 408 831 376 q 782 513 782 436 l 782 664 l 600 664 q 407 314 594 417 q 343 374 375 353 q 508 664 503 464 l 308 664 m 879 886 l 879 750 l 1185 750 l 1185 -97 l 1081 -97 l 1081 -26 l 308 -26 l 308 -106 l 208 -106 l 208 750 l 508 750 l 508 886 l 78 886 l 78 975 l 471 975 q 344 1135 428 1043 l 428 1174 q 564 1010 524 1078 l 499 975 l 824 975 q 964 1167 906 1071 l 1065 1138 q 935 975 1013 1061 l 1310 975 l 1310 886 l 879 886 z "},"“":{"ha":1389,"x_min":868,"x_max":1338,"o":"m 1069 1124 q 946 953 946 1063 q 985 964 960 964 q 1047 939 1022 964 q 1071 875 1071 913 q 1047 814 1071 840 q 976 785 1021 785 q 900 822 931 785 q 868 917 868 860 q 921 1078 868 1004 q 1040 1176 968 1144 l 1069 1124 m 1336 1124 q 1213 953 1213 1063 q 1250 964 1226 964 q 1314 939 1289 964 q 1338 875 1338 913 q 1314 814 1338 840 q 1243 785 1288 785 q 1165 822 1197 785 q 1133 917 1133 860 q 1188 1078 1133 1004 q 1307 1176 1235 1143 l 1336 1124 z "},"恩":{"ha":1389,"x_min":78,"x_max":1308,"o":"m 931 533 q 675 725 853 604 q 431 533 601 596 q 382 597 414 572 q 615 801 557 657 l 399 801 l 399 882 l 638 882 q 653 993 649 939 l 742 993 q 726 882 733 918 l 989 882 l 989 801 l 706 801 l 704 796 q 989 594 882 685 l 931 533 m 1072 1019 l 319 1019 l 319 503 l 1072 503 l 1072 1019 m 1181 415 l 218 415 l 218 1108 l 1181 1108 l 1181 415 m 681 390 q 868 172 814 272 l 782 122 q 599 347 721 232 l 681 390 m 78 15 q 236 326 178 128 l 325 293 q 169 -35 251 64 l 78 15 m 872 14 q 939 44 924 14 q 958 192 953 76 q 1054 153 993 168 q 1010 -35 1043 11 q 879 -81 975 -81 l 594 -81 q 444 -51 482 -81 q 406 60 406 -22 l 406 331 l 508 331 l 508 61 q 525 24 508 32 q 601 14 543 14 l 872 14 m 1100 356 q 1308 35 1254 182 l 1214 -12 q 1013 314 1163 139 l 1100 356 z "},"赐":{"ha":1389,"x_min":35,"x_max":1314,"o":"m 194 244 l 111 244 l 111 1082 l 546 1082 l 546 249 l 460 249 l 460 989 l 194 989 l 194 244 m 369 518 q 93 -106 369 74 q 35 -40 68 -67 q 283 518 283 113 l 283 882 l 369 882 l 369 518 m 393 228 q 572 4 524 92 l 501 -53 q 326 176 447 50 l 393 228 m 746 686 l 1150 686 l 1150 814 l 746 814 l 746 686 m 746 894 l 1150 894 l 1150 1019 l 746 1019 l 746 894 m 1314 489 q 1311 446 1313 458 q 1244 -65 1292 -10 q 1168 -104 1217 -100 q 1044 -104 1110 -110 q 1019 -18 1039 -56 q 1128 -22 1067 -22 q 1168 -7 1156 -22 q 1219 403 1201 32 l 1132 403 q 854 -107 1049 76 q 789 -50 828 -75 q 1049 403 964 97 l 946 403 q 672 11 851 163 q 610 68 646 40 q 857 403 774 194 l 754 403 q 625 258 693 318 q 554 315 603 283 q 769 603 693 426 l 654 603 l 654 1104 l 1244 1104 l 1244 603 l 864 603 q 808 489 835 535 l 1314 489 z "},"”":{"ha":1389,"x_min":51,"x_max":522,"o":"m 319 832 q 443 1003 443 894 q 404 992 426 992 q 342 1018 367 992 q 318 1081 318 1043 q 342 1143 318 1117 q 413 1171 368 1171 q 490 1133 458 1171 q 522 1039 522 1096 q 469 878 522 951 q 349 779 421 814 l 319 832 m 53 832 q 176 1003 176 894 q 139 992 160 992 q 75 1018 100 992 q 51 1081 51 1043 q 75 1143 51 1117 q 146 1171 101 1171 q 224 1133 192 1171 q 256 1039 256 1096 q 203 878 256 951 q 82 779 154 814 l 53 832 z "},"熔":{"ha":1389,"x_min":53,"x_max":1344,"o":"m 543 778 l 543 1008 l 899 1008 q 835 1142 864 1090 l 925 1171 q 1007 1008 978 1082 l 1297 1008 l 1297 778 l 1199 778 l 1199 924 l 639 924 l 639 778 l 543 778 m 358 640 q 463 928 428 793 l 543 896 q 417 614 456 685 l 358 640 m 1065 846 q 1299 613 1228 703 l 1224 560 q 994 800 1147 661 l 1065 846 m 846 807 q 613 557 751 663 q 539 624 567 603 q 754 836 672 711 l 846 807 m 192 869 q 133 511 183 654 l 60 543 q 121 881 107 667 l 192 869 m 358 678 q 342 383 358 499 q 546 125 357 365 l 474 50 q 321 272 428 133 q 122 -106 271 51 q 53 -35 89 -57 q 265 678 265 189 l 265 1143 l 358 1143 l 358 678 m 1153 353 q 913 558 1011 453 q 701 353 826 447 l 1153 353 m 1111 31 l 1111 267 l 744 267 l 744 31 l 1111 31 m 993 679 q 963 631 981 657 q 1344 356 1111 463 q 1297 264 1318 322 l 1210 315 l 1210 -103 l 1111 -103 l 1111 -57 l 744 -57 l 744 -107 l 650 -107 l 650 315 q 543 249 613 289 q 476 318 519 285 q 894 714 774 478 l 993 679 z "},"之":{"ha":1389,"x_min":74,"x_max":1332,"o":"m 724 889 q 579 1122 682 979 l 668 1168 q 818 943 778 1029 l 724 889 m 1203 842 q 440 125 921 422 q 476 100 463 108 q 832 35 579 35 q 1332 60 1092 35 q 1301 -51 1304 0 q 828 -67 1075 -67 q 456 8 574 -67 q 325 89 329 89 q 150 -83 272 89 l 74 11 q 326 186 235 186 q 344 183 333 186 q 1026 788 757 422 l 144 788 l 144 888 l 1103 888 l 1125 894 l 1203 842 z "},"被":{"ha":1389,"x_min":46,"x_max":1339,"o":"m 303 922 q 197 1118 274 1000 l 276 1157 q 386 971 350 1051 l 303 922 m 471 263 q 347 451 428 333 l 347 -106 l 250 -106 l 250 435 q 94 267 172 336 q 46 360 69 332 q 385 822 263 542 l 61 822 l 61 917 l 433 917 l 449 921 l 500 881 q 347 574 446 728 l 347 568 l 388 518 q 496 653 450 588 l 558 596 q 429 468 461 496 q 488 393 454 438 q 526 342 522 346 l 471 263 m 786 529 q 965 222 850 350 q 1142 529 1082 351 l 786 529 m 685 861 l 685 621 l 885 621 l 885 861 l 685 861 m 1260 600 q 1035 154 1199 339 q 1339 -14 1168 36 q 1275 -101 1296 -54 q 965 85 1096 -40 q 656 -106 833 -35 q 599 -22 632 -54 q 899 154 769 36 q 696 529 768 304 l 683 529 q 503 -97 672 114 q 429 -31 481 -64 q 589 597 589 171 l 589 958 l 885 958 l 885 1161 l 982 1161 l 982 958 l 1231 958 l 1247 963 l 1319 943 q 1231 665 1268 756 l 1144 686 q 1196 861 1171 757 l 982 861 l 982 621 l 1179 621 l 1199 625 l 1260 600 z "},"明":{"ha":1389,"x_min":115,"x_max":1272,"o":"m 213 982 l 213 719 l 439 719 l 439 982 l 213 982 m 439 350 l 439 625 l 213 625 l 213 350 l 439 350 m 213 254 l 213 126 l 115 126 l 115 1076 l 536 1076 l 536 254 l 213 254 m 1171 431 l 1171 674 l 804 674 l 804 611 q 796 431 804 506 l 1171 431 m 804 1006 l 804 768 l 1171 768 l 1171 1006 l 804 1006 m 1272 29 q 1214 -85 1272 -60 q 974 -104 1161 -104 q 938 -3 967 -56 q 1138 -4 982 -4 q 1171 29 1171 -3 l 1171 336 l 782 336 q 535 -114 731 44 q 458 -46 504 -72 q 703 611 703 154 l 703 1103 l 1272 1103 l 1272 29 z "},"势":{"ha":1389,"x_min":67,"x_max":1331,"o":"m 74 765 l 301 800 l 301 935 l 93 935 l 93 1026 l 301 1026 l 301 1161 l 396 1161 l 396 1026 l 575 1026 l 575 935 l 396 935 l 396 815 l 579 846 l 585 757 l 396 722 l 396 583 q 349 492 396 511 q 168 476 306 474 q 138 564 158 519 q 278 563 201 563 q 301 583 301 563 l 301 706 l 93 669 l 74 765 m 1163 1026 q 1165 689 1157 774 q 1217 576 1175 575 q 1253 697 1247 576 q 1331 658 1293 669 q 1296 521 1322 558 q 1213 485 1271 485 q 1086 606 1117 485 q 1065 938 1064 694 l 894 938 q 856 747 883 828 q 1033 624 951 688 l 978 542 q 817 661 919 592 q 621 486 750 549 l 699 486 q 681 389 689 425 l 1193 389 q 1189 343 1192 358 q 1096 -51 1157 8 q 988 -90 1057 -86 q 769 -86 913 -94 q 738 8 767 -35 q 950 -1 843 -1 q 1010 13 993 -1 q 1082 297 1056 50 l 656 297 q 122 -108 551 -11 q 67 -19 106 -61 q 546 297 449 57 l 131 297 l 131 389 l 575 389 q 593 486 585 432 l 601 486 q 546 551 583 522 q 736 715 681 611 q 599 800 636 779 l 653 871 l 772 800 q 799 938 790 858 l 604 938 l 604 1026 l 807 1026 q 813 1163 810 1071 l 908 1163 q 903 1026 906 1068 l 1163 1026 z "},"力":{"ha":1389,"x_min":79,"x_max":1256,"o":"m 1256 860 q 1253 806 1254 821 q 1132 -40 1213 51 q 1014 -96 1093 -87 q 792 -92 944 -101 q 757 14 789 -33 q 975 4 867 4 q 1039 25 1018 4 q 1146 757 1110 92 l 672 757 q 158 -112 633 178 q 79 -31 124 -60 q 565 757 524 233 l 121 757 l 121 860 l 571 860 l 571 1160 l 678 1160 l 678 860 l 1256 860 z "},"占":{"ha":1389,"x_min":219,"x_max":1279,"o":"m 1065 433 l 321 433 l 321 81 l 1065 81 l 1065 433 m 724 806 l 724 531 l 1169 531 l 1169 -99 l 1065 -99 l 1065 -18 l 321 -18 l 321 -106 l 219 -106 l 219 531 l 619 531 l 619 1161 l 724 1161 l 724 903 l 1279 903 l 1279 806 l 724 806 z "},"据":{"ha":1389,"x_min":47,"x_max":1325,"o":"m 332 413 l 332 22 q 285 -78 332 -56 q 113 -97 243 -99 q 82 -1 104 -49 q 213 -3 142 -3 q 236 24 236 -3 l 236 381 l 72 329 l 47 428 l 236 483 l 236 788 l 64 788 l 64 883 l 236 883 l 236 1161 l 332 1161 l 332 883 l 489 883 l 489 788 l 332 788 l 332 513 l 476 558 l 490 464 l 332 413 m 918 592 l 918 744 l 650 744 l 650 685 q 649 592 650 625 l 918 592 m 650 1011 l 650 835 l 1179 835 l 1179 1011 l 650 1011 m 1189 244 l 763 244 l 763 35 l 1189 35 l 1189 244 m 1017 503 l 1017 332 l 1283 332 l 1283 -103 l 1189 -103 l 1189 -51 l 763 -51 l 763 -108 l 672 -108 l 672 332 l 918 332 l 918 503 l 644 503 q 478 -107 619 101 q 394 -49 446 -69 q 550 685 550 182 l 550 1101 l 1278 1101 l 1278 744 l 1017 744 l 1017 592 l 1325 592 l 1325 503 l 1017 503 z "},"脉":{"ha":1389,"x_min":36,"x_max":1351,"o":"m 1092 925 q 713 1078 954 1006 l 754 1158 q 1135 1015 996 1094 l 1092 925 m 411 456 l 411 692 l 222 692 l 222 615 q 219 456 222 511 l 411 456 m 222 1017 l 222 786 l 411 786 l 411 1017 l 222 1017 m 843 629 q 561 33 785 208 q 507 106 540 72 l 507 17 q 460 -86 507 -61 q 285 -106 421 -106 q 254 -8 279 -57 q 386 -8 360 -11 q 411 17 411 -7 l 411 360 l 214 360 q 119 -110 193 63 q 36 -61 82 -76 q 131 614 131 149 l 131 1111 l 507 1111 l 507 121 q 736 547 674 251 l 549 547 l 549 643 l 767 643 l 783 647 l 843 629 m 1319 719 q 1088 476 1150 533 q 1351 113 1199 215 q 1279 31 1308 78 q 999 481 1108 163 l 999 14 q 949 -90 999 -67 q 746 -110 906 -110 q 714 -10 738 -58 q 872 -11 750 -11 q 900 15 900 -10 l 900 794 l 631 794 l 631 893 l 999 893 l 999 754 q 1054 564 1019 667 q 1231 786 1160 676 l 1319 719 z "},"蜒":{"ha":1389,"x_min":61,"x_max":1346,"o":"m 1056 986 q 863 947 989 971 q 832 1028 857 974 q 1235 1150 1106 1081 l 1304 1068 q 1146 1011 1235 1036 l 1146 693 l 1304 693 l 1304 597 l 1146 597 l 1146 242 l 1317 242 l 1317 150 l 872 150 l 872 786 l 953 786 l 953 242 l 1056 242 l 1056 986 m 176 483 l 261 483 l 261 826 l 176 826 l 176 483 m 410 826 l 324 826 l 324 483 l 410 483 l 410 826 m 815 685 q 731 190 796 382 q 1131 28 857 28 q 1346 29 1301 28 q 1314 -64 1319 -17 l 1124 -64 q 693 94 832 -64 q 560 -87 635 -21 q 504 -18 536 -43 l 511 -11 l 446 -24 q 433 68 442 22 q 76 -15 233 22 l 61 76 q 150 94 85 82 l 253 115 l 253 396 l 176 396 l 176 322 l 101 322 l 101 914 l 250 914 l 250 1156 l 332 1156 l 332 914 l 488 914 l 488 396 l 332 396 l 332 132 l 418 150 q 383 299 404 224 l 453 311 q 521 -4 506 140 q 635 175 592 67 q 529 458 565 294 l 608 486 q 672 285 631 379 q 726 606 714 433 l 526 606 q 683 1001 613 797 l 524 1001 l 524 1096 l 807 1096 q 651 692 721 856 l 749 692 l 764 694 l 815 685 z "},"岩":{"ha":1389,"x_min":42,"x_max":1310,"o":"m 1218 808 l 178 808 l 178 1100 l 281 1100 l 281 903 l 642 903 l 642 1163 l 746 1163 l 746 903 l 1113 903 l 1113 1100 l 1218 1100 l 1218 808 m 1110 283 l 453 283 l 453 44 l 1110 44 l 1110 283 m 574 563 q 453 378 515 454 l 1215 378 l 1215 -106 l 1110 -106 l 1110 -50 l 453 -50 l 453 -110 l 350 -110 l 350 258 q 106 74 235 144 q 42 156 75 122 q 451 563 308 300 l 82 563 l 82 661 l 1310 661 l 1310 563 l 574 563 z "},"间":{"ha":1389,"x_min":132,"x_max":1263,"o":"m 132 850 l 236 850 l 236 -107 l 132 -107 l 132 850 m 232 1143 q 403 947 354 1035 l 319 892 q 153 1094 267 982 l 232 1143 m 528 225 l 858 225 l 858 411 l 528 411 l 528 225 m 528 497 l 858 497 l 858 682 l 528 682 l 528 497 m 435 768 l 956 768 l 956 139 l 435 139 l 435 768 m 1263 19 q 1214 -82 1263 -60 q 1035 -101 1175 -101 q 1001 -4 1025 -50 q 1133 -6 1031 -6 q 1157 19 1157 -6 l 1157 986 l 490 986 l 490 1083 l 1263 1083 l 1263 19 z "},"大":{"ha":1389,"x_min":64,"x_max":1326,"o":"m 781 660 q 1326 -7 943 150 q 1249 -104 1281 -50 q 696 583 874 74 q 142 -104 574 93 q 64 -19 115 -56 q 604 660 497 169 l 92 660 l 92 765 l 621 765 q 642 1160 639 888 l 753 1160 q 731 765 750 908 l 1304 765 l 1304 660 l 781 660 z "},"热":{"ha":1389,"x_min":65,"x_max":1344,"o":"m 65 -71 q 246 196 171 42 l 342 169 q 161 -110 253 -6 l 65 -71 m 400 586 l 400 350 q 351 253 400 274 q 171 235 314 235 q 140 328 163 285 q 279 326 204 326 q 304 350 304 328 l 304 560 l 94 499 l 68 599 q 304 658 142 615 l 304 872 l 97 872 l 97 969 l 304 969 l 304 1161 l 400 1161 l 400 969 l 561 969 l 561 872 l 400 872 l 400 685 q 482 707 428 693 l 564 729 l 575 636 l 400 586 m 574 165 q 608 -82 606 21 l 507 -97 q 479 156 507 7 l 574 165 m 858 176 q 949 -74 924 43 l 847 -96 q 764 158 828 10 l 858 176 m 876 874 q 838 579 868 693 q 1026 449 974 492 l 974 367 q 810 490 921 413 q 578 231 742 324 q 513 306 553 276 q 726 546 667 389 l 588 632 l 638 701 l 751 635 q 779 874 772 732 l 594 874 l 594 963 l 782 963 q 785 1164 785 1088 l 883 1164 l 879 963 l 1161 963 q 1161 478 1153 594 q 1225 317 1174 315 q 1264 468 1258 317 q 1344 426 1297 443 q 1310 267 1336 310 q 1221 224 1283 224 q 1079 396 1108 224 q 1063 874 1058 510 l 876 874 m 1139 206 q 1325 -67 1272 46 l 1231 -112 q 1049 165 1172 11 l 1139 206 z "},"量":{"ha":1389,"x_min":69,"x_max":1321,"o":"m 1035 1054 l 349 1054 l 349 976 l 1035 976 l 1035 1054 m 1035 921 l 349 921 l 349 842 l 1035 842 l 1035 921 m 1138 779 l 250 779 l 250 1117 l 1138 1117 l 1138 779 m 1308 646 l 76 646 l 76 725 l 1308 725 l 1308 646 m 642 301 l 642 383 l 321 383 l 321 301 l 642 301 m 321 439 l 642 439 l 642 519 l 321 519 l 321 439 m 1075 519 l 742 519 l 742 439 l 1075 439 l 1075 519 m 1075 383 l 742 383 l 742 301 l 1075 301 l 1075 383 m 1321 10 l 1321 -71 l 69 -71 l 69 10 l 642 10 l 642 89 l 183 89 l 183 163 l 642 163 l 642 238 l 225 238 l 225 583 l 1176 583 l 1176 238 l 742 238 l 742 163 l 1203 163 l 1203 89 l 742 89 l 742 10 l 1321 10 z "},"让":{"ha":1389,"x_min":69,"x_max":1324,"o":"m 403 858 q 192 1072 317 957 l 256 1139 q 468 935 388 1022 l 403 858 m 549 267 q 581 181 556 229 q 265 -75 292 -40 q 199 -11 239 -37 q 286 147 286 64 l 286 628 l 69 628 l 69 726 l 383 726 l 383 144 l 549 267 m 1324 38 l 1324 -64 l 483 -64 l 483 38 l 817 38 l 817 1151 l 919 1151 l 919 707 l 1224 707 l 1224 608 l 919 608 l 919 38 l 1324 38 z "},"所":{"ha":1389,"x_min":44,"x_max":1325,"o":"m 242 722 l 242 501 l 514 501 l 514 722 l 242 722 m 239 407 q 128 -108 222 64 q 44 -43 79 -60 q 140 543 140 138 l 140 1026 q 613 1132 468 1065 l 679 1047 q 242 949 529 982 l 242 815 l 614 815 l 614 407 l 239 407 m 1325 596 l 1163 596 l 1163 -103 l 1061 -103 l 1061 596 l 846 596 l 846 563 q 643 -108 846 97 q 563 -39 608 -67 q 743 563 743 146 l 743 1024 q 1229 1144 1067 1071 l 1300 1058 q 846 946 1143 993 l 846 694 l 1325 694 l 1325 596 z "},"人":{"ha":1389,"x_min":64,"x_max":1335,"o":"m 750 1157 q 740 956 746 1028 q 1335 -8 833 214 q 1260 -96 1285 -50 q 697 668 844 99 q 147 -101 572 125 q 64 -21 121 -60 q 565 599 433 165 q 636 1157 629 811 l 750 1157 z "},"流":{"ha":1389,"x_min":61,"x_max":1333,"o":"m 1228 513 q 1161 613 1204 553 q 488 554 528 571 q 460 651 479 601 q 553 692 528 669 q 715 889 599 735 l 443 889 l 443 982 l 838 982 q 775 1139 810 1063 l 868 1161 q 942 982 921 1060 l 1308 982 l 1308 889 l 832 889 q 661 671 713 732 l 1096 697 q 989 821 1067 733 l 1067 867 q 1310 568 1228 701 l 1228 513 m 357 893 q 122 1072 278 979 l 182 1144 q 418 975 349 1049 l 357 893 m 313 539 q 61 692 219 619 l 115 768 q 369 625 283 696 l 313 539 m 433 358 q 182 -87 314 122 l 96 -18 q 358 426 226 168 l 433 358 m 556 503 l 650 503 l 650 360 q 442 -103 650 46 q 369 -35 414 -65 q 556 361 556 94 l 556 503 m 800 501 l 893 501 l 893 -46 l 800 -46 l 800 501 m 1213 0 q 1242 7 1233 0 q 1257 43 1250 13 l 1261 183 q 1333 144 1290 158 q 1321 -14 1331 21 q 1283 -68 1311 -51 q 1218 -82 1261 -82 l 1150 -82 q 1074 -58 1101 -82 q 1047 65 1047 -36 l 1047 503 l 1143 503 l 1143 54 q 1150 7 1143 13 q 1172 0 1160 0 l 1213 0 z "},"背":{"ha":1389,"x_min":81,"x_max":1307,"o":"m 461 753 l 96 683 l 81 772 l 461 833 l 461 958 l 114 958 l 114 1042 l 461 1042 l 461 1163 l 563 1163 l 563 650 l 461 650 l 461 753 m 1018 208 l 1018 332 l 381 332 l 381 208 l 1018 208 m 381 525 l 381 408 l 1018 408 l 1018 525 l 381 525 m 1122 8 q 1064 -92 1122 -71 q 839 -108 1017 -108 q 804 -15 833 -71 q 988 -18 932 -22 q 1018 10 1018 -17 l 1018 132 l 381 132 l 381 -107 l 278 -107 l 278 606 l 1122 606 l 1122 8 m 1153 753 q 1200 774 1189 753 q 1214 869 1211 794 q 1307 833 1246 849 q 1269 697 1299 732 q 1163 663 1240 663 l 928 663 q 796 690 829 663 q 764 797 764 718 l 764 1163 l 867 1163 l 867 988 q 1179 1100 1063 1042 l 1253 1025 q 867 906 1088 957 l 867 797 q 879 761 867 769 q 939 753 892 753 l 1153 753 z "},"追":{"ha":1389,"x_min":69,"x_max":1342,"o":"m 646 931 l 646 743 l 1088 743 l 1088 931 l 646 931 m 646 435 l 646 211 l 1136 211 l 1136 435 l 646 435 m 546 1018 l 774 1018 q 818 1171 806 1110 l 932 1151 q 876 1018 906 1078 l 1188 1018 l 1188 657 l 646 657 l 646 522 l 1238 522 l 1238 124 l 546 124 l 546 1018 m 313 844 q 110 1061 240 944 l 186 1117 q 393 906 332 990 l 313 844 m 367 125 q 406 100 376 119 q 456 68 433 81 q 806 13 554 13 q 1342 40 1117 13 q 1313 -67 1314 -28 q 803 -81 1068 -81 q 438 -18 549 -81 q 318 49 328 49 q 135 -96 261 49 l 69 -6 q 267 129 183 99 l 267 582 l 69 582 l 69 679 l 367 679 l 367 125 z "},"逐":{"ha":1389,"x_min":58,"x_max":1335,"o":"m 1243 275 q 1017 514 1172 376 q 958 143 1072 247 q 813 90 901 90 q 706 93 772 89 q 681 186 703 149 q 790 179 747 179 q 883 213 854 179 q 925 489 961 283 q 460 189 735 286 q 400 264 431 235 q 901 586 725 365 q 857 690 886 635 q 497 453 693 535 q 436 522 471 493 q 815 758 663 606 q 742 842 774 813 q 461 678 613 747 q 392 754 429 722 q 788 1000 638 847 l 426 1000 l 426 1088 l 1293 1088 l 1293 1000 l 911 1000 q 807 894 867 947 q 965 678 903 813 q 1186 892 1101 788 l 1272 836 q 1026 622 1167 731 q 1315 340 1228 463 l 1243 275 m 293 822 q 90 1051 231 922 l 168 1106 q 376 885 308 983 l 293 822 m 346 156 q 399 126 364 149 q 468 82 444 96 q 829 25 574 25 q 1335 49 1103 25 q 1304 -53 1308 -3 q 826 -67 1101 -67 q 446 1 568 -67 q 313 74 319 74 q 122 -83 253 74 l 58 1 q 247 146 169 113 l 247 572 l 72 572 l 72 669 l 347 669 l 346 156 z "},"传":{"ha":1389,"x_min":29,"x_max":1319,"o":"m 469 1126 q 326 828 408 974 l 326 -104 l 225 -104 l 225 671 q 89 506 167 588 q 29 606 58 569 q 372 1157 249 819 l 469 1126 m 763 644 l 713 479 l 1157 479 l 1174 486 l 1244 440 q 939 96 1135 313 q 1090 -31 1036 24 l 1014 -107 q 651 176 883 31 l 726 239 q 860 153 801 193 q 1065 382 976 279 l 572 382 q 657 644 610 483 l 408 644 l 408 740 l 686 740 l 732 906 l 488 906 l 488 1001 l 758 1001 l 778 1079 q 796 1154 790 1128 l 899 1140 q 861 1001 875 1047 l 1257 1001 l 1257 906 l 836 906 q 789 740 806 794 l 1319 740 l 1319 644 l 763 644 z "},"统":{"ha":1389,"x_min":51,"x_max":1326,"o":"m 1226 453 q 1171 554 1208 492 q 574 483 615 501 q 539 583 563 532 q 625 626 600 600 q 817 868 682 679 l 567 868 l 567 961 l 901 961 q 826 1139 886 1014 l 921 1165 q 1004 989 975 1067 l 917 961 l 1311 961 l 1311 868 l 938 868 q 739 604 824 708 l 1119 636 q 1028 767 1072 708 l 1108 807 q 1313 503 1256 613 l 1226 453 m 513 453 q 515 363 507 401 q 97 256 136 279 q 64 354 85 301 q 168 446 99 363 q 306 628 218 499 q 88 586 114 600 q 51 693 78 631 q 132 776 83 700 q 328 1167 242 928 l 433 1118 q 200 704 328 883 l 368 722 q 456 874 407 781 l 547 819 q 253 401 415 590 l 513 453 m 528 117 q 296 42 453 92 l 88 -25 l 64 78 q 511 207 197 113 l 528 117 m 811 488 q 749 114 801 232 q 506 -101 683 -31 q 443 -19 481 -46 q 657 164 601 40 q 710 488 701 261 l 811 488 m 1199 11 q 1228 44 1221 11 q 1238 203 1235 79 q 1326 161 1265 178 q 1297 -29 1319 19 q 1210 -78 1274 -78 l 1089 -78 q 992 -50 1017 -78 q 968 53 968 -24 l 968 489 l 1069 489 l 1069 53 q 1075 18 1069 25 q 1104 11 1082 11 l 1199 11 z "},"为":{"ha":1389,"x_min":81,"x_max":1247,"o":"m 374 874 q 229 1083 331 967 l 318 1122 q 468 919 415 1015 l 374 874 m 1247 829 l 1246 775 q 1151 -36 1217 42 q 1036 -90 1110 -85 q 817 -87 960 -97 q 781 19 811 -32 q 996 10 872 10 q 1056 31 1036 10 q 1138 726 1111 86 l 661 726 q 161 -87 596 201 q 81 -12 133 -46 q 556 726 492 256 l 119 726 l 119 829 l 567 829 q 572 996 572 907 l 572 1158 l 675 1158 l 675 994 q 671 829 675 917 l 1247 829 m 881 243 q 693 515 824 363 l 778 557 q 971 293 913 410 l 881 243 z "},"患":{"ha":1389,"x_min":72,"x_max":1311,"o":"m 643 476 l 643 611 l 275 611 l 275 476 l 643 476 m 750 611 l 750 476 l 1114 476 l 1114 611 l 750 611 m 643 851 l 643 976 l 325 976 l 325 851 l 643 851 m 750 976 l 750 851 l 1067 851 l 1067 976 l 750 976 m 643 397 l 171 397 l 171 690 l 643 690 l 643 772 l 224 772 l 224 1056 l 643 1056 l 643 1160 l 750 1160 l 750 1056 l 1175 1056 l 1175 772 l 750 772 l 750 690 l 1225 690 l 1225 397 l 750 397 l 750 299 l 675 299 q 881 172 803 240 l 815 103 q 546 264 721 192 l 608 328 q 626 321 614 326 l 643 314 l 643 397 m 72 1 q 249 261 179 92 l 340 221 q 164 -53 260 38 l 72 1 m 860 6 q 922 33 908 6 q 942 160 936 60 q 1036 124 971 139 q 992 -43 1025 -3 q 868 -85 958 -85 l 585 -85 q 435 -58 472 -85 q 396 47 396 -31 l 396 249 l 500 249 l 500 49 q 517 14 500 21 q 593 6 533 6 l 860 6 m 1100 276 q 1311 8 1256 124 l 1215 -40 q 1011 233 1160 82 l 1100 276 z "},"触":{"ha":1389,"x_min":49,"x_max":1339,"o":"m 556 319 l 556 489 l 438 489 l 438 319 l 556 319 m 360 319 l 360 489 l 239 489 l 239 444 q 236 319 239 406 l 360 319 m 300 956 q 232 813 264 871 l 404 813 q 469 956 438 869 l 300 956 m 438 567 l 556 567 l 556 731 l 438 731 l 438 567 m 239 567 l 360 567 l 360 731 l 239 731 l 239 567 m 640 15 q 606 -67 640 -49 q 486 -85 579 -85 q 460 0 482 -46 q 540 0 522 -3 q 556 15 556 0 l 556 239 l 438 239 l 438 -65 l 360 -65 l 360 239 l 229 239 q 133 -108 210 18 q 57 -61 101 -82 q 151 444 151 100 l 151 689 q 140 675 147 685 l 128 660 q 49 722 96 694 q 268 1163 194 879 l 363 1142 l 331 1039 l 511 1039 l 526 1043 l 589 1004 q 499 813 556 918 l 640 813 l 640 15 m 939 464 l 939 806 l 793 806 l 793 464 l 939 464 m 1178 806 l 1028 806 l 1028 464 l 1178 464 l 1178 806 m 1250 -100 q 1213 25 1240 -51 q 925 -14 1157 18 l 675 -49 l 661 51 q 932 83 874 75 l 932 344 l 939 344 l 939 375 l 707 375 l 707 894 l 932 894 l 932 1158 l 1036 1158 l 1036 894 l 1267 894 l 1267 375 l 1028 375 l 1028 344 l 1036 344 l 1036 96 l 1179 114 q 1104 274 1138 214 l 1186 300 q 1339 -67 1303 94 l 1250 -100 z "},"即":{"ha":1389,"x_min":96,"x_max":1265,"o":"m 257 996 l 257 815 l 582 815 l 582 996 l 257 996 m 582 531 l 582 722 l 257 722 l 257 531 l 582 531 m 528 367 q 721 13 658 158 l 628 -39 q 564 100 599 31 q 139 -65 176 -37 q 96 40 125 -6 q 154 128 154 68 l 154 1089 l 683 1089 l 683 438 l 257 438 l 257 96 l 522 182 l 440 325 l 528 367 m 1265 286 q 1215 182 1265 204 q 1014 164 1174 161 q 983 263 1006 221 q 1138 261 1099 258 q 1164 286 1164 261 l 1164 983 l 913 983 l 913 -107 l 811 -107 l 811 1081 l 1265 1081 l 1265 286 z "},"发":{"ha":1389,"x_min":49,"x_max":1335,"o":"m 1108 889 q 933 1093 1058 960 l 1013 1143 q 1192 946 1139 1014 l 1108 889 m 594 501 q 817 215 675 335 q 1029 501 957 338 l 594 501 m 1168 572 q 899 153 1086 321 q 1335 -19 1082 28 q 1271 -111 1299 -54 q 819 88 1006 -53 q 392 -110 638 -43 q 338 -21 372 -64 q 738 154 564 32 q 531 425 614 269 q 125 1 382 161 q 49 81 96 46 q 546 749 401 296 l 353 749 q 206 725 225 749 q 171 822 183 794 q 221 878 197 829 q 314 1124 278 974 l 422 1103 q 322 849 392 988 l 572 849 q 631 1167 613 999 l 746 1150 q 690 849 722 983 l 1289 849 l 1288 749 l 663 749 q 614 601 640 678 l 1079 601 l 1099 607 l 1168 572 z "},"寻":{"ha":1389,"x_min":99,"x_max":1321,"o":"m 1132 594 l 239 594 l 239 676 l 1026 676 l 1026 811 l 282 811 l 282 896 l 1026 896 l 1026 1021 l 240 1021 l 240 1103 l 1132 1103 l 1132 594 m 438 342 q 643 119 575 231 l 558 60 q 358 290 494 174 l 438 342 m 1321 349 l 1011 349 l 1011 39 q 951 -71 1011 -49 q 701 -87 906 -87 q 668 14 697 -53 q 875 13 819 10 q 908 40 908 13 l 908 349 l 99 349 l 99 449 l 908 449 l 908 585 l 1011 585 l 1011 449 l 1321 449 l 1321 349 z "},"觅":{"ha":1389,"x_min":103,"x_max":1311,"o":"m 1188 988 q 1014 729 1096 835 l 926 767 q 1082 1028 1018 886 l 1188 988 m 682 989 q 771 779 747 889 l 667 746 q 588 960 650 849 l 682 989 m 313 969 q 424 772 393 872 l 325 731 q 219 933 297 832 l 313 969 m 1231 1078 q 185 981 858 1001 q 158 1069 182 1024 q 1150 1161 844 1094 l 1231 1078 m 1129 724 l 1129 186 l 1021 186 l 1021 628 l 358 628 l 358 190 l 254 190 l 254 724 l 1129 724 m 736 569 l 736 417 q 646 149 736 256 q 172 -104 515 -7 q 103 -22 144 -56 q 550 197 429 63 q 629 419 629 283 l 629 569 l 736 569 m 858 288 l 858 54 q 872 21 858 28 q 933 14 885 14 l 1151 14 q 1203 39 1192 14 q 1219 157 1215 64 q 1311 119 1254 131 q 1272 -37 1303 1 q 1163 -76 1243 -76 l 924 -76 q 790 -50 824 -76 q 757 54 757 -24 l 757 288 l 858 288 z "},"正":{"ha":1389,"x_min":78,"x_max":1314,"o":"m 1314 56 l 1314 -46 l 78 -46 l 78 56 l 267 56 l 267 706 l 371 706 l 371 56 l 676 56 l 676 960 l 131 960 l 131 1060 l 1268 1060 l 1268 960 l 782 960 l 782 590 l 1215 590 l 1215 489 l 782 489 l 782 56 l 1314 56 z "},"洞":{"ha":1389,"x_min":56,"x_max":1282,"o":"m 310 550 q 56 694 225 618 l 110 771 q 365 636 285 699 l 310 550 m 94 -10 q 338 426 228 194 l 418 357 q 185 -79 294 103 l 94 -10 m 179 1139 q 429 1000 343 1069 l 368 917 q 122 1064 276 992 l 179 1139 m 758 561 l 758 303 l 974 303 l 974 561 l 758 561 m 758 214 l 758 128 l 675 128 l 675 649 l 1060 649 l 1060 214 l 758 214 m 1106 786 l 632 786 l 632 874 l 1106 874 l 1106 786 m 1282 22 q 1229 -86 1282 -64 q 1014 -107 1185 -107 q 981 -4 1006 -51 q 1153 -6 1021 -6 q 1182 24 1182 -6 l 1182 1010 l 551 1010 l 551 -106 l 454 -106 l 454 1104 l 1282 1104 l 1282 22 z "},"深":{"ha":1389,"x_min":57,"x_max":1317,"o":"m 550 838 l 457 838 l 457 1086 l 1272 1086 l 1272 842 l 1176 842 l 1176 996 l 550 996 l 550 838 m 992 914 q 1257 633 1174 758 l 1179 576 q 918 864 1090 713 l 992 914 m 799 875 q 517 571 696 697 q 442 642 492 604 q 704 904 615 747 l 799 875 m 349 924 q 121 1068 257 1000 l 174 1146 q 403 1011 315 1081 l 349 924 m 301 547 q 57 696 221 615 l 110 771 q 356 633 268 701 l 301 547 m 381 360 q 164 -82 269 108 l 88 -10 q 314 431 201 178 l 381 360 m 975 403 q 1317 54 1106 164 q 1244 -28 1267 7 q 910 343 1046 99 l 910 -100 l 807 -100 l 807 339 q 442 -31 667 88 q 374 49 417 14 q 744 403 608 157 l 449 403 l 449 496 l 807 496 l 807 647 l 910 647 l 910 496 l 1275 496 l 1275 403 l 975 403 z "},"市":{"ha":1389,"x_min":75,"x_max":1315,"o":"m 742 858 l 742 671 l 1192 671 l 1192 185 q 1133 76 1192 100 q 890 58 1082 58 q 854 161 886 96 q 1056 158 949 158 q 1088 186 1088 163 l 1088 569 l 742 569 l 742 -104 l 638 -104 l 638 569 l 313 569 l 313 54 l 210 54 l 210 671 l 638 671 l 638 858 l 75 858 l 75 960 l 667 960 q 575 1142 635 1039 l 674 1172 q 782 967 750 1054 l 764 960 l 1315 960 l 1315 858 l 742 858 z "},"面":{"ha":1389,"x_min":86,"x_max":1307,"o":"m 1136 701 l 928 701 l 928 63 l 1136 63 l 1136 701 m 249 63 l 446 63 l 446 701 l 249 701 l 249 63 m 833 701 l 540 701 l 540 549 l 833 549 l 833 701 m 540 63 l 833 63 l 833 224 l 540 224 l 540 63 m 833 464 l 540 464 l 540 308 l 833 308 l 833 464 m 738 971 q 683 797 711 878 l 1240 797 l 1240 -107 l 1136 -107 l 1136 -33 l 249 -33 l 249 -107 l 149 -107 l 149 797 l 578 797 q 618 971 597 865 l 86 971 l 86 1069 l 1307 1069 l 1307 971 l 738 971 z "},"高":{"ha":1389,"x_min":88,"x_max":1297,"o":"m 489 250 l 489 121 l 885 121 l 885 250 l 489 250 m 978 43 l 489 43 l 489 -25 l 393 -25 l 393 328 l 978 328 l 978 43 m 1253 3 q 1203 -82 1253 -64 q 1019 -94 1160 -97 q 986 -18 1011 -60 q 1126 -19 1017 -19 q 1150 3 1150 -18 l 1150 410 l 238 410 l 238 -106 l 138 -106 l 138 497 l 1253 497 l 1253 3 m 997 774 l 399 774 l 399 649 l 997 649 l 997 774 m 1103 850 l 1103 572 l 297 572 l 297 850 l 1103 850 m 1297 1017 l 1297 928 l 88 928 l 88 1017 l 656 1017 q 613 1143 642 1061 l 713 1167 q 768 1017 736 1108 l 1297 1017 z "},"昂":{"ha":1389,"x_min":111,"x_max":1242,"o":"m 1072 1025 l 325 1025 l 325 904 l 1072 904 l 1072 1025 m 1072 825 l 325 825 l 325 703 l 1072 703 l 1072 825 m 1175 618 l 225 618 l 225 1110 l 1175 1110 l 1175 618 m 649 503 q 275 406 497 451 l 275 125 l 647 192 q 649 101 644 133 q 153 -12 196 13 q 111 75 138 42 q 174 163 174 101 l 174 472 q 576 586 417 522 l 649 503 m 1242 113 q 1189 15 1242 35 q 974 0 1149 0 q 942 92 967 38 q 1113 90 981 90 q 1140 114 1140 92 l 1140 435 l 815 435 l 815 -104 l 714 -104 l 714 524 l 1242 524 l 1242 113 z "},"价":{"ha":1389,"x_min":58,"x_max":1343,"o":"m 472 1132 q 338 832 421 986 l 338 -106 l 236 -106 l 236 663 q 118 510 182 581 q 58 610 82 579 q 375 1161 261 824 l 472 1132 m 611 624 l 714 624 l 714 435 q 471 -117 714 67 q 396 -44 439 -72 q 611 436 611 106 l 611 624 m 1003 626 l 1107 626 l 1107 -103 l 1003 -103 l 1003 626 m 938 1146 l 908 1083 q 1343 664 1072 807 q 1271 583 1300 631 q 858 992 1032 722 q 424 564 696 725 q 360 644 401 608 q 828 1165 697 835 l 938 1146 z "},"格":{"ha":1389,"x_min":44,"x_max":1339,"o":"m 701 310 l 701 60 l 1110 60 l 1110 310 l 701 310 m 603 401 l 1211 401 l 1211 -101 l 1110 -101 l 1110 -33 l 701 -33 l 701 -104 l 603 -104 l 603 401 m 738 915 q 915 703 801 797 q 1114 929 1042 806 l 746 929 l 738 915 m 1254 986 q 994 644 1169 793 q 1339 496 1149 542 q 1300 401 1313 454 q 919 586 1083 465 q 510 386 742 461 q 456 476 492 433 l 463 478 q 367 643 428 543 l 367 -106 l 268 -106 l 268 582 q 97 181 189 315 q 44 279 82 228 q 253 799 181 463 l 74 799 l 74 896 l 268 896 l 268 1163 l 367 1163 l 367 896 l 518 896 l 518 799 l 367 799 l 367 768 q 533 543 422 704 l 486 486 q 842 650 689 547 q 685 833 754 726 q 572 700 638 765 q 508 779 531 760 q 756 1167 668 925 l 847 1142 q 796 1022 829 1094 l 1172 1022 l 1190 1026 l 1254 986 z "},"家":{"ha":1389,"x_min":89,"x_max":1335,"o":"m 221 754 l 121 754 l 121 1039 l 642 1039 q 590 1140 617 1096 l 696 1171 q 764 1039 740 1103 l 1276 1039 l 1276 754 l 1172 754 l 1172 943 l 221 943 l 221 754 m 1179 600 q 965 443 1088 524 q 1335 36 1072 138 q 1268 -49 1294 0 q 885 392 1006 69 q 819 353 854 371 q 835 103 854 222 q 757 -56 815 -11 q 615 -104 700 -104 q 496 -101 585 -104 q 469 -4 496 -53 q 594 -11 553 -11 q 683 18 653 -11 q 738 257 758 72 q 143 -40 486 65 q 89 47 125 4 q 718 353 482 138 q 681 450 700 414 q 165 208 463 300 q 113 289 139 260 q 639 519 433 365 q 572 601 614 560 q 172 438 407 508 q 115 519 153 479 q 611 721 425 593 l 294 721 l 294 811 l 1093 811 l 1093 721 l 749 721 q 650 647 706 683 q 792 435 747 550 q 1094 667 965 546 l 1179 600 z "},"更":{"ha":1389,"x_min":69,"x_max":1339,"o":"m 647 431 q 650 515 650 458 l 650 571 l 319 571 l 319 431 l 647 431 m 319 653 l 650 653 l 650 792 l 319 792 l 319 653 m 756 792 l 756 653 l 1106 653 l 1106 792 l 756 792 m 1106 571 l 756 571 l 756 514 q 753 431 756 483 l 1106 431 l 1106 571 m 740 344 q 617 108 714 207 q 1339 0 825 14 q 1296 -101 1306 -47 q 533 43 763 -78 q 131 -107 386 -54 q 69 -17 107 -56 q 438 103 311 31 q 267 299 335 182 l 353 333 q 521 161 424 225 q 633 344 606 233 l 221 344 l 221 878 l 650 878 l 650 994 l 94 994 l 94 1088 l 1294 1088 l 1294 994 l 756 994 l 756 878 l 1207 878 l 1207 344 l 740 344 z "},"愿":{"ha":1389,"x_min":54,"x_max":1306,"o":"m 267 718 q 136 -114 267 160 q 54 -57 101 -75 q 171 718 171 193 l 171 1106 l 1269 1106 l 1269 1021 l 267 1021 l 267 718 m 1085 860 l 483 860 l 483 774 l 1085 774 l 1085 860 m 1085 710 l 483 710 l 483 624 l 1085 624 l 1085 710 m 1185 558 l 825 558 l 825 400 q 779 319 825 338 q 608 307 744 307 q 575 383 601 336 q 708 383 681 381 q 729 401 729 383 l 729 558 l 389 558 l 389 925 l 690 925 q 713 1018 710 999 l 828 999 l 793 925 l 1185 925 l 1185 558 m 758 285 q 915 125 861 190 l 844 75 q 689 242 794 142 l 758 285 m 601 506 q 363 313 490 397 q 288 374 328 350 q 514 536 413 443 l 601 506 m 1183 311 q 932 485 1090 386 l 996 539 q 1250 374 1154 450 l 1183 311 m 247 -10 q 356 244 311 82 l 432 215 q 328 -44 376 32 l 247 -10 m 932 0 q 989 22 976 0 q 1006 135 1001 46 q 1090 101 1040 110 q 1051 -49 1082 -11 q 940 -85 1022 -85 l 675 -85 q 536 -60 572 -85 q 501 38 501 -35 l 501 240 l 593 240 l 593 39 q 608 7 593 14 q 679 0 624 0 l 932 0 m 1139 267 q 1306 33 1247 131 l 1222 -7 q 1060 236 1164 99 l 1139 267 z "},"冒":{"ha":1389,"x_min":168,"x_max":1214,"o":"m 368 490 l 368 390 l 1019 390 l 1019 490 l 368 490 m 1019 215 l 1019 315 l 368 315 l 368 215 l 1019 215 m 1019 36 l 1019 140 l 368 140 l 368 36 l 1019 36 m 268 568 l 1122 568 l 1122 -97 l 1019 -97 l 1019 -43 l 368 -43 l 368 -103 l 268 -103 l 268 568 m 1031 850 l 357 850 l 357 925 l 1031 925 l 1031 850 m 358 676 l 358 750 l 1031 750 l 1031 676 l 358 676 m 1214 1097 l 1214 633 l 1111 633 l 1111 1018 l 268 1018 l 268 631 l 168 631 l 168 1097 l 1214 1097 z "},"险":{"ha":1389,"x_min":124,"x_max":1356,"o":"m 668 726 q 529 614 585 653 q 467 697 503 664 q 886 1172 751 878 l 976 1140 l 951 1092 q 1356 717 1106 868 q 1301 625 1324 681 q 903 1008 1072 781 q 674 733 804 856 l 1135 733 l 1135 644 l 668 644 l 668 726 m 906 200 q 850 532 896 328 l 932 543 q 990 214 981 336 l 906 200 m 668 514 q 761 183 738 335 l 675 160 q 588 493 661 294 l 668 514 m 511 1071 q 374 711 446 886 q 497 411 497 571 q 443 249 497 288 q 371 222 415 229 q 279 221 333 218 q 253 313 276 272 q 333 311 294 308 q 375 324 361 311 q 404 419 404 343 q 281 700 404 563 q 390 1013 342 856 l 215 1013 l 215 -103 l 124 -103 l 124 1106 l 428 1106 l 444 1111 l 511 1071 m 1278 518 q 1064 51 1160 225 l 1322 51 l 1322 -40 l 513 -40 l 513 51 l 976 51 q 1186 543 1100 274 l 1278 518 z "},"入":{"ha":1389,"x_min":63,"x_max":1333,"o":"m 475 1132 q 897 563 688 979 q 1333 22 1096 164 q 1282 -92 1296 -28 q 938 257 1081 21 q 825 468 892 333 q 717 682 746 629 q 156 -97 558 139 q 63 -14 121 -56 q 633 818 496 210 q 413 1043 535 958 l 475 1132 z "},"没":{"ha":1389,"x_min":53,"x_max":1335,"o":"m 719 953 q 472 572 719 690 q 404 647 447 613 q 619 956 619 749 l 619 1113 l 1092 1113 l 1092 808 q 1119 754 1092 754 l 1239 754 q 1314 763 1285 754 l 1324 663 q 1242 654 1301 654 l 1113 654 q 1014 690 1040 654 q 990 811 990 722 l 990 1015 l 719 1015 l 719 953 m 371 910 q 121 1069 275 982 l 179 1143 q 431 993 343 1057 l 371 910 m 308 546 q 53 696 213 617 l 110 772 q 367 631 282 689 l 308 546 m 418 360 q 182 -86 306 119 l 96 -19 q 343 424 215 161 l 418 360 m 638 456 q 858 192 714 304 q 1086 456 1008 304 l 638 456 m 1228 526 q 946 132 1146 292 q 1335 -11 1117 28 q 1268 -107 1292 -57 q 856 68 1026 -51 q 425 -106 676 -47 q 372 -11 404 -53 q 771 133 593 31 q 535 446 621 260 l 563 456 l 475 456 l 475 553 l 1140 553 l 1160 557 l 1228 526 z "},"勘":{"ha":1389,"x_min":60,"x_max":1286,"o":"m 306 456 l 575 456 l 575 575 l 306 575 l 306 456 m 306 931 l 306 832 l 575 832 l 575 931 l 306 931 m 306 650 l 575 650 l 575 756 l 306 756 l 306 650 m 1286 794 q 1214 -40 1267 31 q 1122 -90 1182 -83 q 960 -90 1072 -97 q 933 4 957 -33 q 1082 -1 997 -1 q 1129 19 1114 -1 q 1189 747 1172 76 l 1015 747 q 761 -107 992 122 q 686 -36 736 -64 l 710 -12 l 147 -12 l 147 368 l 60 368 l 60 456 l 213 456 l 213 931 l 83 931 l 83 1014 l 213 1014 l 213 1160 l 306 1160 l 306 1014 l 575 1014 l 575 1160 l 668 1160 l 668 1014 l 782 1014 l 782 931 l 668 931 l 668 456 l 800 456 l 800 368 l 235 368 l 235 76 l 731 76 l 731 11 q 921 747 901 219 l 769 747 l 769 844 l 924 844 q 926 1150 926 943 l 1022 1150 q 1019 844 1022 1042 l 1286 844 l 1286 794 m 631 113 q 508 307 597 192 l 576 347 q 704 158 660 247 l 631 113 m 276 138 q 397 347 350 240 l 474 306 q 346 99 404 179 l 276 138 z "},"探":{"ha":1389,"x_min":61,"x_max":1338,"o":"m 597 836 l 510 836 l 510 1086 l 1282 1086 l 1282 842 l 1190 842 l 1190 996 l 597 996 l 597 836 m 1013 914 q 1276 636 1192 760 l 1199 579 q 939 863 1114 706 l 1013 914 m 843 875 q 567 571 738 694 q 492 642 531 614 q 750 907 660 747 l 843 875 m 478 478 l 406 450 q 333 422 358 433 l 333 17 q 288 -79 333 -58 q 122 -99 249 -99 q 92 -7 114 -50 q 214 -7 188 -10 q 238 15 238 -7 l 238 386 l 90 331 l 61 431 q 238 490 101 442 l 238 788 l 74 788 l 74 883 l 238 883 l 238 1161 l 333 1161 l 333 883 l 467 883 l 467 788 l 333 788 l 333 525 l 458 572 l 478 478 m 1004 394 q 1338 61 1136 165 q 1268 -19 1296 25 q 942 340 1076 100 l 942 -96 l 843 -96 l 843 335 q 488 -24 707 92 q 422 57 463 22 q 782 394 650 157 l 496 394 l 496 489 l 843 489 l 843 639 l 942 639 l 942 489 l 1299 489 l 1299 394 l 1004 394 z "},"完":{"ha":1389,"x_min":67,"x_max":1325,"o":"m 221 699 l 119 699 l 119 1003 l 656 1003 q 586 1144 624 1079 l 689 1174 q 778 1003 747 1081 l 1267 1003 l 1267 699 l 1161 699 l 1161 904 l 221 904 l 221 699 m 318 661 l 318 757 l 1067 757 l 1067 661 l 318 661 m 1164 11 q 1215 43 1203 11 q 1231 194 1226 75 q 1325 154 1264 168 q 1286 -37 1315 10 q 1174 -85 1256 -85 l 961 -85 q 835 -56 867 -85 q 803 57 803 -26 l 803 403 l 558 403 q 461 67 542 172 q 121 -108 367 -56 q 67 -22 106 -61 q 371 121 289 21 q 454 403 440 206 l 85 403 l 85 501 l 1304 501 l 1304 403 l 906 403 l 906 58 q 918 19 906 28 q 972 11 929 11 l 1164 11 z "},"全":{"ha":1389,"x_min":42,"x_max":1351,"o":"m 1117 653 q 694 1022 874 817 q 281 653 526 814 l 1117 653 m 747 560 l 747 344 l 1121 344 l 1121 253 l 747 253 l 747 26 l 1285 26 l 1285 -68 l 111 -68 l 111 26 l 642 26 l 642 253 l 285 253 l 285 344 l 642 344 l 642 560 l 276 560 l 276 650 q 114 556 211 606 q 42 640 92 594 q 685 1176 468 836 l 776 1135 l 751 1097 q 1351 638 979 833 q 1279 550 1303 596 q 1121 650 1164 621 l 1121 560 l 747 560 z "},"层":{"ha":1389,"x_min":49,"x_max":1304,"o":"m 292 1006 l 292 840 l 1124 840 l 1124 1006 l 292 1006 m 292 750 l 292 693 q 140 -104 292 153 q 49 -53 104 -74 q 190 692 190 185 l 190 1096 l 1226 1096 l 1226 750 l 292 750 m 425 540 l 425 632 l 1208 632 l 1208 540 l 425 540 m 742 304 q 529 28 638 143 l 1063 60 q 950 226 981 183 l 1039 265 q 1261 -72 1174 76 l 1167 -119 q 1113 -22 1149 -82 q 401 -85 449 -68 q 365 11 389 -40 q 446 74 393 17 q 608 304 532 175 l 335 304 l 335 396 l 1304 396 l 1304 304 l 742 304 z "},"中":{"ha":1389,"x_min":139,"x_max":1249,"o":"m 1143 446 l 1143 814 l 744 814 l 744 446 l 1143 446 m 638 446 l 638 814 l 240 814 l 240 446 l 638 446 m 1249 915 l 1249 265 l 1143 265 l 1143 344 l 744 344 l 744 -106 l 638 -106 l 638 344 l 240 344 l 240 258 l 139 258 l 139 915 l 638 915 l 638 1163 l 744 1163 l 744 915 l 1249 915 z "},"惊":{"ha":1389,"x_min":44,"x_max":1317,"o":"m 1301 910 l 515 910 l 515 1001 l 867 1001 l 808 1139 l 904 1165 q 981 1001 942 1096 l 1301 1001 l 1301 910 m 44 542 q 107 894 88 671 l 185 883 q 125 515 174 669 l 44 542 m 236 1163 l 335 1163 l 335 -106 l 236 -106 l 236 1163 m 438 942 q 519 651 503 763 l 443 622 q 364 919 418 771 l 438 942 m 739 306 q 529 -19 649 122 q 450 40 483 22 q 644 335 561 157 l 739 306 m 679 499 l 1128 499 l 1128 703 l 679 703 l 679 499 m 964 406 l 964 14 q 911 -85 964 -64 q 707 -101 867 -101 q 669 -6 699 -56 q 835 -6 800 -8 q 861 17 861 -6 l 861 406 l 585 406 l 585 794 l 1228 794 l 1228 406 l 964 406 m 1142 331 q 1317 29 1261 153 l 1231 -11 q 1061 297 1183 97 l 1142 331 z "},"叫":{"ha":1389,"x_min":136,"x_max":1235,"o":"m 233 940 l 233 336 l 472 336 l 472 940 l 233 940 m 572 240 l 233 240 l 233 114 l 136 114 l 136 1036 l 572 1036 l 572 240 m 1235 1149 l 1235 -108 l 1129 -108 l 1129 278 q 699 149 744 181 q 650 235 685 192 q 726 344 726 275 l 726 1036 l 831 1036 l 831 304 l 1129 374 l 1129 1149 l 1235 1149 z "},"穴":{"ha":1389,"x_min":78,"x_max":1331,"o":"m 226 578 l 125 578 l 125 904 l 692 904 q 561 1128 640 1013 l 658 1161 q 794 942 757 1028 l 696 904 l 1271 904 l 1271 578 l 1167 578 l 1167 804 l 226 804 l 226 578 m 551 568 q 160 -101 440 122 q 78 -24 128 -64 q 446 590 347 171 l 551 568 m 953 589 q 1331 -18 1081 172 q 1251 -103 1282 -56 q 857 560 996 115 l 953 589 z "},"索":{"ha":1389,"x_min":90,"x_max":1297,"o":"m 500 156 q 169 -79 354 14 q 90 -11 138 -44 q 404 192 285 74 l 500 156 m 765 264 l 765 14 q 708 -83 765 -62 q 494 -100 660 -100 q 457 -4 488 -58 q 636 -6 592 -8 q 665 17 665 -4 l 665 258 q 174 215 221 229 q 146 304 160 274 q 333 363 211 313 q 589 475 425 394 q 274 444 306 457 q 246 533 263 493 q 346 571 285 539 q 606 732 482 636 l 194 732 l 194 563 l 97 563 l 97 821 l 642 821 l 642 950 l 111 950 l 111 1040 l 642 1040 l 642 1163 l 747 1163 l 747 1040 l 1278 1040 l 1278 950 l 747 950 l 747 821 l 1296 821 l 1296 563 l 1194 563 l 1194 732 l 667 732 l 708 700 q 431 535 578 606 l 740 553 q 935 665 838 603 l 1007 603 q 431 324 725 433 l 1035 356 q 922 457 967 421 l 996 503 q 1275 232 1183 350 l 1197 178 q 1106 286 1164 222 l 765 264 m 956 199 q 1297 -17 1171 88 l 1215 -75 q 878 147 1099 28 l 956 199 z "},"就":{"ha":1389,"x_min":74,"x_max":1343,"o":"m 1203 850 q 1064 1057 1161 947 l 1133 1096 q 1276 896 1233 990 l 1203 850 m 710 899 l 79 899 l 79 990 l 375 990 q 313 1142 364 1026 l 407 1163 q 481 990 457 1068 l 710 990 l 710 899 m 288 363 q 149 26 240 157 q 74 76 115 51 q 201 381 160 190 l 288 363 m 244 538 l 557 538 l 557 704 l 244 704 l 244 538 m 456 454 l 456 4 q 414 -82 456 -62 q 264 -97 375 -100 q 235 -12 260 -60 q 343 -12 319 -15 q 363 6 363 -12 l 363 454 l 154 454 l 154 789 l 653 789 l 653 454 l 456 454 m 610 118 q 511 363 588 225 l 585 396 q 688 154 665 260 l 610 118 m 994 710 q 682 -108 943 131 q 607 -46 654 -72 q 900 710 857 171 l 722 710 l 722 803 l 907 803 q 915 1158 913 892 l 1013 1158 q 1003 803 1010 899 l 1319 803 l 1319 710 l 994 710 m 1194 6 q 1235 13 1226 6 q 1256 50 1251 19 q 1263 200 1260 78 q 1343 158 1293 171 q 1328 -6 1340 36 q 1285 -60 1317 -44 q 1206 -74 1258 -74 l 1117 -74 q 1031 -50 1060 -74 q 999 76 999 -26 l 999 600 l 1090 600 l 1090 65 q 1101 13 1090 19 q 1135 6 1115 6 l 1194 6 z "},"像":{"ha":1389,"x_min":47,"x_max":1343,"o":"m 465 1126 q 324 817 406 963 l 324 -103 l 225 -103 l 225 657 q 106 504 169 575 q 47 606 83 554 q 368 1157 250 818 l 465 1126 m 592 651 l 782 651 q 836 790 822 711 l 592 790 l 592 651 m 675 982 q 583 869 619 907 l 842 869 q 925 982 875 904 l 675 982 m 1147 790 l 921 790 q 882 651 915 719 l 1147 651 l 1147 790 m 1258 449 q 1104 361 1196 408 q 1343 50 1179 135 q 1276 -28 1303 19 q 1029 324 1110 75 l 961 292 q 985 83 996 185 q 929 -58 975 -14 q 808 -106 886 -106 q 724 -103 754 -106 q 699 -14 721 -50 q 790 -19 747 -19 q 858 7 835 -19 q 890 199 910 58 q 449 -57 707 32 q 389 15 418 -8 q 871 283 696 108 q 838 361 858 325 q 460 144 676 224 q 403 211 435 182 q 801 419 649 285 q 743 485 775 457 q 460 346 629 401 q 401 410 433 385 q 713 572 604 475 l 499 572 l 499 786 q 425 725 465 754 q 358 790 401 764 q 678 1161 564 935 l 775 1143 q 753 1103 768 1129 l 729 1063 l 981 1063 l 999 1068 l 1060 1024 q 949 869 1013 944 l 1243 869 l 1243 572 l 832 572 q 800 538 822 560 q 936 361 886 467 q 1189 513 1076 433 l 1258 449 z "},"拆":{"ha":1389,"x_min":50,"x_max":1321,"o":"m 519 464 q 435 436 488 454 l 351 408 l 351 22 q 303 -81 351 -58 q 129 -101 263 -101 q 99 -1 122 -57 q 228 -3 157 -3 q 253 24 253 -3 l 253 378 l 79 322 l 50 426 q 253 485 92 438 l 253 783 l 71 783 l 71 883 l 253 883 l 253 1161 l 351 1161 l 351 883 l 522 883 l 522 783 l 351 783 l 351 517 q 506 564 494 560 l 519 464 m 1063 629 l 1063 353 q 1299 207 1213 269 l 1244 119 q 1063 240 1188 165 l 1063 -104 l 964 -104 l 964 297 q 750 408 854 361 l 800 483 q 964 406 839 467 l 964 629 l 721 629 q 549 -103 718 138 q 464 -42 514 -65 q 619 639 619 175 l 619 1031 q 1168 1160 986 1088 l 1258 1079 q 721 956 1058 1008 l 721 729 l 1321 729 l 1321 629 l 1063 629 z "},"开":{"ha":1389,"x_min":78,"x_max":1313,"o":"m 899 579 l 899 972 l 513 972 l 513 579 l 899 579 m 1313 479 l 1004 479 l 1004 -108 l 899 -108 l 899 479 l 508 479 q 164 -112 472 82 q 82 -36 124 -64 q 403 479 368 139 l 78 479 l 78 579 l 407 579 q 408 639 408 600 l 408 972 l 129 972 l 129 1071 l 1269 1071 l 1269 972 l 1004 972 l 1004 579 l 1313 579 l 1313 479 z "},"来":{"ha":1389,"x_min":54,"x_max":1338,"o":"m 818 451 q 1338 36 1029 168 q 1265 -51 1293 -6 q 747 397 969 96 l 747 -106 l 640 -106 l 640 394 q 126 -46 426 103 q 54 39 96 0 q 571 451 363 172 l 83 451 l 83 550 l 640 550 l 640 896 l 149 896 l 149 994 l 640 994 l 640 1161 l 747 1161 l 747 994 l 1250 994 l 1250 896 l 747 896 l 747 550 l 1308 550 l 1308 451 l 818 451 m 351 864 q 483 604 453 717 l 386 567 q 261 829 354 692 l 351 864 m 908 593 q 1049 869 990 722 l 1154 836 q 994 564 1060 653 l 908 593 z "},"路":{"ha":1389,"x_min":57,"x_max":1346,"o":"m 1172 394 q 967 558 1071 454 q 758 394 871 463 l 1172 394 m 1139 38 l 1139 304 l 792 304 l 792 38 l 1139 38 m 589 414 q 903 631 765 489 q 775 821 835 714 q 649 661 721 735 q 576 722 610 700 l 576 681 l 417 681 l 417 481 l 589 481 l 589 414 m 219 771 l 481 771 l 481 1014 l 219 1014 l 219 771 m 839 931 l 825 904 q 963 696 882 792 q 1104 931 1054 808 l 839 931 m 1232 996 q 1029 626 1169 794 q 1346 422 1172 488 q 1282 338 1311 390 l 1238 357 l 1238 -100 l 1139 -100 l 1139 -54 l 792 -54 l 792 -104 l 696 -104 l 696 358 q 613 319 668 344 q 563 389 597 351 l 417 389 l 417 140 q 599 183 556 172 l 608 90 l 76 -39 l 57 61 l 128 76 l 128 550 l 215 550 l 215 94 l 322 119 l 322 681 l 128 681 l 128 1104 l 576 1104 l 576 736 q 828 1163 746 897 l 926 1139 q 882 1021 907 1081 l 1150 1021 l 1168 1025 l 1232 996 z "},"包":{"ha":1389,"x_min":53,"x_max":1329,"o":"m 379 878 q 139 614 267 718 q 53 689 83 669 q 422 1169 293 865 l 526 1139 q 442 976 493 1063 l 1208 976 l 1208 928 q 1140 256 1188 317 q 1053 208 1110 215 q 892 208 996 201 q 865 307 889 258 q 1004 301 956 299 q 1050 319 1035 300 q 1103 878 1088 368 l 379 878 m 376 642 l 376 418 l 738 418 l 738 642 l 376 642 m 1078 21 q 1193 54 1165 21 q 1231 194 1219 85 q 1329 157 1269 168 q 1267 -28 1314 18 q 1079 -76 1217 -76 l 556 -76 q 335 -39 392 -76 q 275 115 275 1 l 275 735 l 839 735 l 839 325 l 376 325 l 376 115 q 408 40 376 58 q 550 21 442 21 l 1078 21 z "},"裹":{"ha":1389,"x_min":56,"x_max":1332,"o":"m 1292 989 l 99 989 l 99 1068 l 657 1068 l 617 1146 l 710 1167 q 763 1068 742 1118 l 1292 1068 l 1292 989 m 642 675 l 642 747 l 338 747 l 338 675 l 642 675 m 338 804 l 642 804 l 642 874 l 338 874 l 338 804 m 1049 874 l 744 874 l 744 804 l 1049 804 l 1049 874 m 1049 747 l 744 747 l 744 675 l 1049 675 l 1049 747 m 1156 246 q 965 133 1072 186 q 1332 3 1118 42 q 1275 -78 1296 -36 q 685 285 867 7 q 476 176 597 226 l 476 19 l 733 83 q 739 3 731 39 q 375 -104 407 -86 q 331 -35 361 -68 q 379 60 379 -8 l 379 138 q 114 56 253 92 q 56 131 93 93 q 672 386 494 235 l 642 386 l 642 471 q 122 274 458 351 q 68 346 104 306 q 521 483 357 400 l 104 483 l 104 558 l 642 558 l 642 617 l 239 617 l 239 933 l 1150 933 l 1150 617 l 744 617 l 744 558 l 1288 558 l 1288 483 l 894 483 q 1300 326 1150 404 l 1253 265 q 744 460 1047 372 l 744 386 l 696 386 l 772 351 l 750 332 q 896 179 800 253 q 1082 300 1017 249 l 1156 246 z "},"永":{"ha":1389,"x_min":54,"x_max":1333,"o":"m 897 885 q 389 1075 699 997 l 439 1160 q 950 981 764 1082 l 897 885 m 543 583 q 135 -19 442 176 q 54 58 107 21 q 413 511 308 208 l 82 511 l 82 610 l 457 610 l 475 614 l 543 583 m 1286 711 q 921 410 1092 529 q 1333 74 1083 168 q 1263 -17 1288 31 q 753 518 926 129 l 753 26 q 693 -85 753 -62 q 460 -103 644 -103 q 422 0 453 -53 q 611 -3 553 -7 q 644 28 644 -1 l 644 778 l 263 778 l 263 878 l 753 878 l 753 775 q 872 486 801 613 q 1193 778 1060 629 l 1286 711 z "},"远":{"ha":1389,"x_min":60,"x_max":1336,"o":"m 1222 979 l 525 979 l 525 1072 l 1222 1072 l 1222 979 m 771 675 q 703 325 758 442 q 465 111 635 183 q 403 194 444 161 q 611 375 553 254 q 669 675 658 472 l 435 675 l 435 769 l 1306 769 l 1306 675 l 1032 675 l 1032 271 q 1039 236 1032 244 q 1069 229 1046 229 l 1179 229 q 1211 258 1203 229 q 1221 400 1218 289 q 1310 361 1256 375 q 1278 182 1303 228 q 1189 136 1253 136 l 1058 136 q 960 164 985 136 q 935 269 935 192 l 935 675 l 771 675 m 338 835 q 93 1019 275 890 l 158 1086 q 406 911 329 975 l 338 835 m 353 149 q 401 118 368 140 q 468 74 442 89 q 829 6 578 6 q 1336 32 1089 6 q 1304 -75 1308 -22 q 826 -87 1092 -87 q 446 -12 568 -87 q 311 68 317 68 q 126 -106 258 68 l 60 -17 q 253 143 171 106 l 253 583 l 65 583 l 65 679 l 353 679 l 353 149 z "},"道":{"ha":1389,"x_min":64,"x_max":1331,"o":"m 1093 697 l 632 697 l 632 583 l 1093 583 l 1093 697 m 1093 511 l 632 511 l 632 394 l 1093 394 l 1093 511 m 1093 322 l 632 322 l 632 206 l 1093 206 l 1093 322 m 768 776 q 799 893 792 851 l 435 893 l 435 979 l 669 979 q 576 1132 642 1044 l 663 1168 q 763 1013 735 1079 l 690 979 l 946 979 q 1053 1161 1011 1068 l 1153 1132 q 1051 979 1082 1022 l 1311 979 l 1311 893 l 914 893 q 864 776 889 831 l 1194 776 l 1194 128 l 535 128 l 535 776 l 768 776 m 292 826 q 96 1060 231 925 l 174 1108 q 376 883 311 982 l 292 826 m 367 142 q 413 114 382 135 l 472 76 q 831 18 581 18 q 1331 43 1113 18 q 1301 -60 1306 -17 q 829 -74 1056 -74 q 451 -6 569 -74 q 317 69 325 69 q 126 -89 261 69 l 64 -6 q 267 146 183 114 l 267 572 l 75 572 l 75 669 l 367 669 l 367 142 z "},"究":{"ha":1389,"x_min":82,"x_max":1332,"o":"m 214 781 l 113 781 l 113 1013 l 650 1013 q 585 1144 613 1097 l 692 1172 q 774 1013 738 1096 l 1278 1013 l 1278 788 l 1172 788 l 1172 921 l 214 921 l 214 781 m 856 871 q 1256 650 1108 758 l 1185 588 q 788 815 1025 708 l 856 871 m 146 661 q 536 871 374 744 l 618 824 q 213 588 446 682 l 146 661 m 1188 15 q 1225 51 1217 15 q 1236 222 1233 88 q 1332 178 1272 194 q 1297 -31 1325 22 q 1199 -83 1271 -83 l 1051 -83 q 946 -54 974 -83 q 918 60 918 -25 l 918 401 l 642 401 q 153 -106 619 42 q 82 -21 124 -56 q 539 401 511 111 l 167 401 l 167 497 l 540 497 l 540 625 l 643 625 l 643 497 l 1022 497 l 1022 61 q 1031 24 1022 32 q 1067 15 1038 15 l 1188 15 z "},"竟":{"ha":1389,"x_min":64,"x_max":1329,"o":"m 1226 958 l 157 958 l 157 1044 l 661 1044 q 607 1133 638 1092 l 701 1160 q 775 1044 753 1104 l 1226 1044 l 1226 958 m 1304 714 l 81 714 l 81 803 l 431 803 q 367 924 410 867 l 464 947 q 536 814 511 890 l 496 803 l 854 803 q 928 943 897 874 l 1029 918 q 961 803 993 853 l 1304 803 l 1304 714 m 331 278 l 1054 278 l 1054 383 l 331 383 l 331 278 m 331 456 l 1054 456 l 1054 560 l 331 560 l 331 456 m 1172 4 q 1222 29 1210 4 q 1238 151 1233 54 q 1329 115 1275 125 q 1290 -44 1319 -4 q 1183 -83 1261 -83 l 961 -83 q 831 -58 864 -83 q 799 42 799 -33 l 799 201 l 579 201 q 458 -7 554 58 q 117 -107 358 -76 q 64 -19 96 -54 q 367 50 281 1 q 469 201 449 96 l 231 201 l 231 636 l 1156 636 l 1156 201 l 901 201 l 901 42 q 914 11 901 18 q 971 4 926 4 l 1172 4 z "},"喜":{"ha":1389,"x_min":72,"x_max":1311,"o":"m 639 983 l 115 983 l 115 1063 l 639 1063 l 639 1161 l 743 1161 l 743 1063 l 1279 1063 l 1279 983 l 743 983 l 743 889 l 1182 889 l 1182 811 l 213 811 l 213 889 l 639 889 l 639 983 m 356 151 l 356 13 l 1038 13 l 1038 151 l 356 151 m 253 226 l 1142 226 l 1142 -112 l 1038 -112 l 1038 -62 l 356 -62 l 356 -112 l 253 -112 l 253 226 m 481 488 q 528 385 517 431 l 853 385 q 901 488 872 421 l 481 488 m 376 558 l 1010 558 l 1010 669 l 376 669 l 376 558 m 1311 385 l 1311 303 l 72 303 l 72 385 l 422 385 q 376 475 401 435 l 411 488 l 276 488 l 276 740 l 1114 740 l 1114 488 l 960 488 l 1007 469 l 954 385 l 1311 385 z "},"吓":{"ha":1389,"x_min":82,"x_max":1315,"o":"m 181 946 l 181 356 l 381 356 l 381 946 l 181 946 m 481 253 l 181 253 l 181 115 l 82 115 l 82 1047 l 481 1047 l 481 253 m 1217 438 q 921 701 1118 550 l 993 765 q 1292 511 1204 604 l 1217 438 m 921 990 l 921 -99 l 819 -99 l 819 990 l 511 990 l 511 1090 l 1315 1090 l 1315 990 l 921 990 z "},"迎":{"ha":1389,"x_min":60,"x_max":1331,"o":"m 956 69 l 861 69 l 861 1058 l 1275 1058 l 1275 346 q 1229 253 1275 274 q 1057 236 1193 236 q 1025 326 1050 282 q 1157 325 1056 325 q 1179 347 1179 325 l 1179 968 l 956 968 l 956 69 m 828 443 q 835 354 825 397 q 478 219 514 246 q 429 297 460 267 q 496 410 496 336 l 496 1026 q 778 1164 681 1094 l 851 1089 q 593 974 764 1038 l 593 372 l 828 443 m 342 829 q 97 1015 261 917 l 161 1079 q 408 901 328 983 l 342 829 m 351 149 q 400 118 367 142 q 467 74 440 89 q 826 6 576 6 q 1331 32 1089 6 q 1301 -75 1304 -21 q 824 -89 1065 -89 q 446 -12 574 -89 q 311 68 317 68 q 126 -106 258 68 l 60 -17 q 250 142 171 104 l 250 583 l 71 583 l 71 679 l 351 679 l 351 149 z "},"宾":{"ha":1389,"x_min":76,"x_max":1296,"o":"m 219 732 l 117 732 l 117 1021 l 665 1021 q 593 1140 625 1093 l 701 1168 q 794 1021 751 1101 l 1275 1021 l 1275 732 l 1169 732 l 1169 926 l 219 926 l 219 732 m 550 118 q 161 -103 389 -1 q 76 -24 110 -47 q 449 167 300 60 l 550 118 m 883 174 q 1283 -21 1178 42 l 1231 -107 q 832 100 1115 -37 l 883 174 m 407 294 l 871 294 l 871 488 l 407 488 l 407 294 m 1296 294 l 1296 203 l 92 203 l 92 294 l 303 294 l 303 761 q 1056 863 794 803 l 1113 779 q 407 685 836 718 l 407 578 l 1206 578 l 1206 488 l 975 488 l 975 294 l 1296 294 z "},"走":{"ha":1389,"x_min":54,"x_max":1332,"o":"m 743 33 q 1001 11 849 11 q 1332 13 1119 7 q 1294 -89 1304 -37 l 997 -89 q 610 -33 753 -89 q 339 206 436 35 q 131 -110 261 -4 q 54 -42 96 -72 q 308 533 267 122 l 414 519 q 378 329 401 431 q 639 64 460 135 l 639 615 l 92 615 l 92 713 l 639 713 l 639 903 l 211 903 l 211 999 l 639 999 l 639 1160 l 743 1160 l 743 999 l 1193 999 l 1193 903 l 743 903 l 743 713 l 1296 713 l 1296 615 l 743 615 l 743 399 l 1204 399 l 1204 304 l 743 304 l 743 33 z "},"廊":{"ha":1389,"x_min":51,"x_max":1317,"o":"m 442 724 l 442 611 l 704 611 l 704 724 l 442 724 m 704 417 l 704 538 l 442 538 l 442 417 l 704 417 m 671 296 q 835 0 786 125 l 751 -39 q 707 63 739 -1 q 338 -68 375 -44 q 289 6 319 -24 q 347 115 347 43 l 347 801 l 544 801 q 504 906 531 844 l 593 925 q 644 801 621 867 l 796 801 l 796 339 l 442 339 l 442 68 l 669 136 q 594 264 624 217 l 671 296 m 1301 825 q 1150 503 1221 639 q 1290 229 1290 369 q 1233 76 1290 114 q 1160 50 1207 57 q 1058 49 1104 44 q 1032 135 1056 96 q 1122 133 1081 131 q 1169 146 1147 133 q 1200 236 1200 165 q 1060 490 1200 364 q 1179 772 1111 594 l 986 772 l 986 -108 l 893 -108 l 893 858 l 1221 858 l 1236 863 l 1301 825 m 1317 1046 l 1317 954 l 254 954 l 254 619 q 131 -111 254 125 q 51 -51 99 -74 q 157 619 157 161 l 157 1046 l 707 1046 q 667 1147 699 1071 l 761 1169 q 817 1046 797 1099 l 1317 1046 z "},"萨":{"ha":1389,"x_min":78,"x_max":1315,"o":"m 511 793 q 390 515 443 628 q 504 282 504 401 q 453 146 504 181 q 388 124 421 125 q 301 121 356 118 q 274 206 299 167 q 349 204 314 201 q 386 214 372 204 q 413 289 413 231 q 299 504 413 394 q 390 736 346 611 l 228 736 l 228 -108 l 135 -108 l 135 825 l 431 825 l 444 829 l 511 793 m 986 492 q 1074 660 1040 579 l 768 660 q 850 522 831 576 l 779 492 l 986 492 m 982 875 l 925 875 q 1001 764 975 818 l 960 746 l 1276 746 l 1276 660 l 1090 660 l 1168 632 q 1083 492 1124 550 l 1303 492 l 1303 404 l 656 404 l 656 329 q 506 -107 656 43 q 426 -49 474 -72 q 558 331 558 83 l 558 492 l 758 492 q 679 631 739 542 l 758 660 l 568 660 l 568 746 l 900 746 q 826 856 871 801 l 879 876 l 879 963 l 514 963 l 514 871 l 410 871 l 410 963 l 78 963 l 78 1051 l 410 1051 l 410 1160 l 514 1160 l 514 1051 l 879 1051 l 879 1160 l 982 1160 l 982 1051 l 1315 1051 l 1315 963 l 982 963 l 982 875 z "},"尔":{"ha":1389,"x_min":81,"x_max":1311,"o":"m 368 838 q 174 568 272 672 q 81 631 133 603 q 404 1164 285 828 l 508 1136 q 421 938 469 1032 l 1215 938 l 1235 943 l 1311 915 q 1136 594 1232 717 l 1047 629 q 1165 838 1108 706 l 368 838 m 472 546 q 189 88 367 275 q 99 150 139 128 q 368 571 268 304 l 472 546 m 653 758 l 758 758 l 758 25 q 694 -86 758 -65 q 446 -104 647 -104 q 410 -3 436 -56 q 619 -3 546 -7 q 653 26 653 -3 l 653 758 m 1003 568 q 1278 136 1197 317 l 1182 92 q 914 532 1100 281 l 1003 568 z "},"贡":{"ha":1389,"x_min":90,"x_max":1301,"o":"m 746 322 q 647 99 746 188 q 157 -103 510 -28 q 90 -17 140 -67 q 551 149 426 46 q 635 325 635 217 l 635 446 l 746 446 l 746 322 m 1025 156 l 1025 519 l 368 519 l 368 147 l 263 147 l 263 615 l 1133 615 l 1133 156 l 1025 156 m 782 181 q 1294 -21 1085 86 l 1238 -110 q 728 104 1040 -3 l 782 181 m 1301 821 l 1301 724 l 92 724 l 92 821 l 635 821 l 635 992 l 192 992 l 192 1088 l 1213 1088 l 1213 992 l 742 992 l 742 821 l 1301 821 z "},"然":{"ha":1389,"x_min":53,"x_max":1328,"o":"m 1206 900 q 1058 1088 1153 996 l 1133 1132 q 1285 947 1243 1022 l 1206 900 m 61 -68 q 242 197 164 39 l 338 172 q 156 -108 244 -6 l 61 -68 m 717 1017 q 154 247 603 454 q 83 326 124 296 q 369 519 250 396 q 203 636 294 581 l 261 692 q 425 583 336 651 q 506 704 465 632 q 332 807 425 761 l 379 867 q 543 778 461 829 q 603 954 576 853 l 372 954 q 122 617 264 743 q 53 681 97 646 q 360 1172 268 868 l 458 1147 q 414 1039 422 1057 l 636 1039 l 654 1043 l 717 1017 m 575 168 q 608 -81 606 31 l 508 -94 q 479 158 506 28 l 575 168 m 1019 769 q 1328 317 1106 432 q 1258 232 1283 275 q 976 606 1074 342 q 628 224 896 368 q 554 296 604 256 q 911 769 869 461 l 696 769 l 696 868 l 919 868 l 919 1146 l 1018 1146 l 1018 868 l 1304 868 l 1304 769 l 1019 769 m 858 179 q 947 -72 926 35 l 847 -93 q 764 161 825 22 l 858 179 m 1139 207 q 1326 -65 1269 50 l 1231 -110 q 1050 168 1175 13 l 1139 207 z "},"争":{"ha":1389,"x_min":64,"x_max":1331,"o":"m 1043 464 l 738 464 l 738 303 l 1043 303 l 1043 464 m 738 558 l 1043 558 l 1043 710 l 738 710 l 738 558 m 467 957 q 314 803 396 872 l 726 803 q 858 957 790 861 l 467 957 m 1331 464 l 1144 464 l 1144 208 l 738 208 l 738 24 q 672 -87 738 -65 q 424 -104 619 -107 q 383 -6 417 -75 q 599 -7 543 -10 q 633 25 633 -6 l 633 208 l 200 208 l 200 303 l 633 303 l 633 464 l 64 464 l 64 558 l 633 558 l 633 710 l 256 710 l 256 757 l 186 707 q 108 778 153 750 q 492 1164 361 932 l 603 1144 q 539 1047 583 1110 l 928 1047 l 944 1053 l 1018 1003 q 853 803 957 904 l 1144 803 l 1144 558 l 1331 558 l 1331 464 z "},"夺":{"ha":1389,"x_min":54,"x_max":1335,"o":"m 375 382 q 599 101 535 231 l 514 43 q 294 331 449 174 l 375 382 m 1004 492 l 1297 492 l 1297 393 l 1004 393 l 1004 26 q 939 -86 1004 -62 q 674 -101 886 -104 q 636 0 665 -58 q 864 -3 738 -3 q 899 28 899 -1 l 899 393 l 103 393 l 103 492 l 899 492 l 899 614 l 1004 614 l 1004 492 m 878 860 q 1335 640 1044 697 q 1267 550 1297 604 q 760 860 931 636 l 632 860 q 118 544 472 642 q 54 632 104 579 q 504 860 354 699 l 82 860 l 82 958 l 576 958 q 654 1161 628 1049 l 760 1143 q 692 958 732 1039 l 1308 958 l 1308 860 l 878 860 z "},"焦":{"ha":1389,"x_min":49,"x_max":1325,"o":"m 82 -67 q 240 196 181 32 l 338 169 q 176 -108 275 -4 l 82 -67 m 731 881 l 367 881 l 367 760 l 731 760 l 731 881 m 731 676 l 367 676 l 367 558 l 731 558 l 731 676 m 731 474 l 367 474 l 367 343 l 731 343 l 731 474 m 367 256 l 367 206 l 265 206 l 265 767 q 131 629 204 693 q 49 701 90 669 q 401 1167 274 876 l 501 1138 q 413 971 460 1046 l 757 971 q 681 1135 732 1047 l 771 1168 q 864 981 839 1060 l 842 971 l 1274 971 l 1274 881 l 832 881 l 832 760 l 1190 760 l 1190 676 l 832 676 l 832 558 l 1194 558 l 1194 474 l 832 474 l 832 343 l 1258 343 l 1258 256 l 367 256 m 572 165 q 607 -82 604 21 l 506 -97 q 476 156 506 25 l 572 165 m 858 176 q 947 -74 928 31 l 847 -96 q 763 158 821 28 l 858 176 m 1138 201 q 1325 -72 1265 46 l 1224 -110 q 1044 168 1172 10 l 1138 201 z "},"它":{"ha":1389,"x_min":125,"x_max":1258,"o":"m 999 29 q 1104 69 1079 29 q 1138 247 1126 107 q 1240 204 1185 217 q 1181 -15 1225 39 q 1000 -72 1133 -72 l 571 -72 q 371 -35 424 -72 q 318 115 318 4 l 318 739 l 424 739 l 424 425 q 1007 640 814 532 l 1092 560 q 424 332 867 447 l 424 115 q 451 46 424 63 q 569 29 478 29 l 999 29 m 1258 975 l 1258 689 l 1153 689 l 1153 875 l 226 875 l 226 689 l 125 689 l 125 975 l 671 975 q 592 1144 644 1056 l 692 1172 q 786 981 761 1057 l 768 975 l 1258 975 z "},"客":{"ha":1389,"x_min":54,"x_max":1335,"o":"m 213 776 l 111 776 l 111 1038 l 664 1038 q 601 1149 621 1118 l 701 1174 q 782 1038 742 1114 l 1276 1038 l 1276 776 l 1172 776 l 1172 942 l 213 942 l 213 776 m 1024 318 q 696 450 839 372 q 386 318 549 371 l 1024 318 m 972 29 l 972 231 l 424 231 l 424 29 l 972 29 m 490 728 q 697 560 567 639 q 915 733 836 646 l 496 733 l 490 728 m 1074 775 q 797 510 975 626 q 1335 363 1029 401 q 1269 265 1304 332 q 1076 304 1179 276 l 1076 -104 l 972 -104 l 972 -60 l 424 -60 l 424 -106 l 324 -106 l 324 297 q 104 243 238 271 q 54 333 85 296 q 600 507 351 385 q 418 667 493 582 q 201 532 319 590 q 132 606 172 578 q 526 917 400 725 l 638 897 q 574 815 626 881 l 986 815 l 1004 819 l 1074 775 z "},"如":{"ha":1389,"x_min":69,"x_max":1278,"o":"m 338 782 q 251 443 307 640 q 431 311 324 393 q 556 782 526 500 l 338 782 m 664 869 q 511 244 636 479 q 663 96 615 157 l 594 10 q 456 153 549 67 q 133 -108 333 -18 q 69 -22 108 -61 q 376 222 261 50 q 136 406 260 321 q 239 782 186 547 l 69 782 l 69 878 l 258 878 q 304 1160 286 1015 l 406 1153 q 357 878 392 1049 l 582 878 l 600 882 l 664 869 m 1176 131 l 1176 914 l 836 914 l 836 131 l 1176 131 m 1278 1013 l 1278 -51 l 1176 -51 l 1176 32 l 836 32 l 836 -71 l 739 -71 l 739 1013 l 1278 1013 z "},"果":{"ha":1389,"x_min":56,"x_max":1336,"o":"m 642 636 l 642 779 l 329 779 l 329 636 l 642 636 m 329 864 l 642 864 l 642 1006 l 329 1006 l 329 864 m 1064 1006 l 749 1006 l 749 864 l 1064 864 l 1064 1006 m 1064 779 l 749 779 l 749 636 l 1064 636 l 1064 779 m 835 335 q 1336 32 1039 132 q 1265 -54 1297 -3 q 749 299 963 68 l 749 -107 l 642 -107 l 642 292 q 125 -60 435 57 q 56 25 99 -17 q 556 335 360 124 l 90 335 l 90 431 l 642 431 l 642 547 l 225 547 l 225 1096 l 1174 1096 l 1174 547 l 749 547 l 749 431 l 1300 431 l 1300 335 l 835 335 z "},"打":{"ha":1389,"x_min":60,"x_max":1329,"o":"m 586 478 q 381 415 401 421 l 381 31 q 331 -72 381 -49 q 142 -92 292 -92 q 108 6 135 -49 q 251 4 175 4 q 279 32 279 4 l 279 383 q 181 354 239 372 l 90 328 l 60 432 l 161 458 q 279 489 239 479 l 279 785 l 72 785 l 72 883 l 279 883 l 279 1160 l 381 1160 l 381 883 l 572 883 l 572 785 l 381 785 l 381 519 l 574 574 l 586 478 m 1329 943 l 1083 943 l 1083 44 q 1015 -78 1083 -56 q 749 -99 961 -99 q 706 13 735 -39 q 938 10 861 6 q 975 46 975 11 l 975 943 l 579 943 l 579 1044 l 1329 1044 l 1329 943 z "},"了":{"ha":1389,"x_min":139,"x_max":1236,"o":"m 1236 1001 q 753 629 1039 783 l 753 29 q 681 -87 753 -67 q 396 -106 624 -106 q 354 -3 386 -57 q 608 -4 510 -8 q 646 29 646 -3 l 646 681 q 1032 953 850 781 l 139 953 l 139 1054 l 1131 1054 l 1156 1061 l 1236 1001 z "},"门":{"ha":1389,"x_min":133,"x_max":1261,"o":"m 133 883 l 236 883 l 236 -107 l 133 -107 l 133 883 m 260 1164 q 458 914 390 1024 l 374 854 q 181 1114 314 961 l 260 1164 m 1261 31 q 1196 -87 1261 -62 q 931 -104 1140 -107 q 893 -4 919 -47 q 1122 -6 1064 -11 q 1158 31 1158 -4 l 1158 1013 l 499 1013 l 499 1111 l 1261 1111 l 1261 31 z "},"那":{"ha":1389,"x_min":64,"x_max":1314,"o":"m 589 444 q 592 674 592 578 l 390 674 q 367 444 383 564 l 589 444 m 400 997 q 393 767 397 842 l 593 767 l 594 997 l 400 997 m 697 1093 l 696 1035 q 651 -25 692 42 q 560 -85 619 -76 q 397 -86 513 -92 q 365 22 394 -29 q 511 17 428 17 q 557 43 543 15 q 588 351 581 81 l 350 351 q 147 -106 296 64 q 64 -31 114 -65 q 249 351 193 101 l 86 351 l 86 444 l 265 444 q 289 674 279 533 l 97 674 l 97 767 l 293 767 q 299 997 296 844 l 79 997 l 79 1093 l 697 1093 m 1314 1044 q 1111 635 1193 788 q 1296 303 1296 471 q 1225 125 1299 169 q 1129 94 1183 100 q 986 94 1061 88 q 954 192 981 151 q 1086 189 1038 185 q 1156 204 1125 189 q 1199 311 1199 226 q 1006 621 1199 461 q 1178 990 1068 739 l 911 990 l 911 -104 l 814 -104 l 814 1088 l 1225 1088 l 1242 1093 l 1314 1044 z "},"将":{"ha":1389,"x_min":58,"x_max":1315,"o":"m 813 965 q 557 804 686 864 q 490 871 535 833 q 869 1161 744 975 l 974 1131 q 906 1050 942 1089 l 1204 1050 l 1222 1054 l 1289 1018 q 551 519 1114 646 q 500 601 529 571 q 831 708 686 639 q 701 844 783 776 l 778 889 q 913 754 857 826 q 1146 965 1065 844 l 813 965 m 322 1160 l 422 1160 l 422 -106 l 322 -106 l 322 385 q 115 192 204 269 l 58 278 q 322 507 157 356 l 322 746 l 250 686 q 65 918 196 793 l 138 974 q 322 756 268 850 l 322 1160 m 669 351 q 856 108 799 222 l 767 57 q 588 306 714 172 l 669 351 m 1315 392 l 1147 392 l 1147 17 q 1090 -89 1147 -67 q 865 -106 1043 -106 q 832 -7 858 -64 q 1017 -10 917 -10 q 1046 18 1046 -8 l 1046 392 l 488 392 l 488 488 l 1046 488 l 1046 658 l 1147 658 l 1147 488 l 1315 488 l 1315 392 z "},"愤":{"ha":1389,"x_min":51,"x_max":1332,"o":"m 825 963 l 500 963 l 500 1050 l 825 1050 l 825 1160 l 919 1160 l 919 1050 l 1250 1050 l 1250 963 l 919 963 l 919 850 l 825 850 l 825 963 m 51 553 q 110 911 96 700 l 189 900 q 135 526 181 692 l 51 553 m 236 1161 l 328 1161 l 328 -110 l 236 -110 l 236 1161 m 411 693 q 347 928 396 790 l 419 956 q 474 797 453 872 l 619 797 l 619 897 l 711 897 l 711 797 l 1040 797 l 1040 897 l 1132 897 l 1132 797 l 1308 797 l 1308 713 l 1132 713 l 1132 607 l 1040 607 l 1040 713 l 711 713 l 711 607 l 619 607 l 619 713 l 468 713 l 468 719 l 411 693 m 1114 135 l 1114 486 l 614 486 l 614 131 l 519 131 l 519 574 l 1213 574 l 1213 135 l 1114 135 m 814 401 l 910 401 l 910 260 q 835 67 910 143 q 460 -103 729 -40 q 400 -29 439 -68 q 749 110 651 19 q 814 261 814 169 l 814 401 m 964 139 q 1332 -29 1143 72 l 1286 -110 q 917 83 1099 1 l 964 139 z "},"怒":{"ha":1389,"x_min":65,"x_max":1338,"o":"m 836 989 q 985 708 890 828 q 1147 989 1092 828 l 836 989 m 807 989 l 696 989 l 696 1082 l 1186 1082 l 1204 1086 l 1268 1063 q 1053 635 1208 811 q 1335 465 1176 518 q 1269 379 1290 421 q 981 565 1101 444 q 732 411 874 469 q 672 497 706 464 q 915 639 801 543 q 743 972 804 782 l 807 989 m 600 426 q 871 253 779 339 l 803 179 q 535 363 721 261 l 600 426 m 351 908 q 267 746 290 785 q 428 661 389 683 q 557 908 515 765 l 351 908 m 578 450 q 446 544 540 482 q 147 374 329 433 q 75 447 122 414 q 363 594 247 497 q 136 711 250 660 q 244 908 186 788 l 86 908 l 86 1001 l 286 1001 q 347 1164 317 1068 l 450 1147 q 392 1001 418 1058 l 594 1001 l 613 1006 l 674 982 q 511 614 626 758 q 649 521 592 565 l 578 450 m 65 -7 q 247 306 172 99 l 338 271 q 157 -58 253 42 l 65 -7 m 854 7 q 915 36 901 7 q 933 176 928 65 q 1028 138 974 150 q 985 -42 1017 1 q 861 -86 951 -86 l 603 -86 q 458 -58 496 -86 q 422 50 422 -31 l 422 315 l 524 315 l 524 51 q 540 15 524 24 q 610 7 556 7 l 854 7 m 1114 324 q 1338 -14 1276 133 l 1242 -57 q 1024 285 1178 101 l 1114 324 z "},"攻":{"ha":1389,"x_min":49,"x_max":1342,"o":"m 614 294 q 75 142 132 157 l 49 247 q 271 303 126 265 l 271 889 l 68 889 l 68 988 l 588 988 l 588 889 l 372 889 l 372 328 l 604 388 l 614 294 m 746 806 q 925 336 808 525 q 1101 806 1049 517 l 746 806 m 1210 806 q 988 246 1138 451 q 1342 -17 1131 63 q 1269 -107 1303 -50 q 918 163 1058 -18 q 483 -110 756 -11 q 426 -14 467 -67 q 857 249 699 75 q 679 675 749 419 q 567 497 626 568 q 478 557 501 544 q 754 1163 660 764 l 857 1143 q 782 906 817 994 l 1326 906 l 1326 806 l 1210 806 z "},"击":{"ha":1389,"x_min":96,"x_max":1297,"o":"m 751 72 l 1075 72 l 1075 419 l 1179 419 l 1179 -107 l 1075 -107 l 1075 -28 l 210 -28 l 210 419 l 317 419 l 317 72 l 646 72 l 646 525 l 96 525 l 96 628 l 646 628 l 646 846 l 197 846 l 197 947 l 646 947 l 646 1161 l 751 1161 l 751 947 l 1201 947 l 1201 846 l 751 846 l 751 628 l 1297 628 l 1297 525 l 751 525 l 751 72 z "},"金":{"ha":1389,"x_min":47,"x_max":1346,"o":"m 1033 749 q 696 1010 832 867 q 371 749 558 860 l 1033 749 m 744 653 l 744 464 l 1229 464 l 1229 369 l 744 369 l 744 31 l 1292 31 l 1292 -65 l 99 -65 l 99 31 l 638 31 l 638 369 l 161 369 l 161 464 l 638 464 l 638 653 l 338 653 l 338 729 q 117 628 228 669 q 47 722 85 689 q 693 1175 497 869 l 788 1131 q 753 1081 772 1106 q 1346 722 979 838 q 1274 632 1304 688 q 1050 739 1161 675 l 1050 653 l 744 653 m 871 83 q 1015 339 958 206 l 1113 301 q 949 50 1028 154 l 871 83 m 363 339 q 496 90 460 200 l 406 53 q 278 304 371 167 l 363 339 z "},"库":{"ha":1389,"x_min":50,"x_max":1318,"o":"m 274 925 l 274 625 q 138 -114 274 128 q 50 -54 97 -74 q 172 625 172 161 l 172 1022 l 715 1022 q 651 1135 686 1088 l 751 1163 q 832 1022 797 1106 l 1317 1022 l 1317 925 l 274 925 m 1318 107 l 924 107 l 924 -106 l 822 -106 l 822 107 l 324 107 l 324 201 l 822 201 l 822 361 l 582 361 q 451 340 475 361 q 418 442 436 401 q 493 522 447 449 q 574 667 519 561 l 364 667 l 364 760 l 617 760 q 669 897 643 817 l 776 860 q 731 760 756 810 l 1261 760 l 1261 667 l 685 667 q 560 454 624 547 l 822 454 l 822 600 l 924 600 l 924 454 l 1229 454 l 1229 361 l 924 361 l 924 201 l 1318 201 l 1318 107 z "},"与":{"ha":1389,"x_min":85,"x_max":1232,"o":"m 943 232 l 85 232 l 85 332 l 943 332 l 943 232 m 1232 624 q 1228 574 1231 588 q 1088 -40 1176 44 q 958 -89 1044 -85 q 711 -83 863 -94 q 672 18 706 -26 q 928 8 781 8 q 999 25 982 8 q 1118 526 1074 82 l 318 526 l 232 528 q 364 1132 301 772 l 468 1121 l 439 971 l 1211 971 l 1211 872 l 419 872 l 364 624 l 1232 624 z "},"危":{"ha":1389,"x_min":51,"x_max":1313,"o":"m 1104 7 q 1190 39 1169 7 q 1217 186 1210 71 q 1313 146 1254 160 q 1263 -40 1300 4 q 1108 -87 1222 -87 l 714 -87 q 535 -56 581 -87 q 488 76 488 -22 l 488 556 l 1108 556 l 1106 515 q 1049 197 1089 239 q 963 164 1021 168 q 769 165 892 158 q 742 256 761 225 q 915 249 817 249 q 965 260 956 249 q 1003 465 989 283 l 588 465 l 588 76 q 611 21 588 33 q 717 7 636 7 l 1104 7 m 803 782 q 890 936 856 874 l 413 936 q 265 782 340 847 l 803 782 m 1313 782 l 1313 686 l 342 686 l 342 531 q 129 -106 342 106 q 51 -36 96 -60 q 240 531 240 150 l 240 760 q 133 678 171 704 q 64 757 106 724 q 439 1167 318 922 l 551 1144 q 481 1029 518 1079 l 950 1029 l 968 1036 l 1040 982 q 913 782 1010 929 l 1313 782 z "},"共":{"ha":1389,"x_min":74,"x_max":1322,"o":"m 567 219 q 172 -108 410 29 q 90 -35 139 -72 q 460 261 333 92 l 567 219 m 904 263 q 1292 -43 1154 86 l 1194 -107 q 815 210 1060 28 l 904 263 m 497 442 l 892 442 l 892 769 l 497 769 l 497 442 m 1322 442 l 1322 342 l 74 342 l 74 442 l 393 442 l 393 769 l 129 769 l 129 869 l 393 869 l 393 1150 l 497 1150 l 497 869 l 892 869 l 892 1150 l 997 1150 l 997 869 l 1272 869 l 1272 769 l 997 769 l 997 442 l 1322 442 z "},"加":{"ha":1389,"x_min":60,"x_max":1264,"o":"m 683 856 q 585 -17 649 65 q 490 -69 550 -64 q 339 -71 436 -78 q 308 35 333 -10 q 444 28 382 28 q 493 51 475 28 q 579 808 550 117 l 383 808 q 142 -100 353 161 q 60 -31 106 -56 q 282 808 256 203 l 90 808 l 90 910 l 285 910 q 288 1158 288 994 l 390 1158 q 386 910 390 1038 l 683 910 l 683 856 m 1158 115 l 1158 889 l 889 889 l 889 115 l 1158 115 m 1264 989 l 1264 -76 l 1158 -76 l 1158 15 l 889 15 l 889 -86 l 788 -86 l 788 989 l 1264 989 z "},"紧":{"ha":1389,"x_min":97,"x_max":1303,"o":"m 489 618 l 394 618 l 394 1136 l 489 1136 l 489 618 m 254 664 l 160 664 l 160 1074 l 254 1074 l 254 664 m 510 131 q 176 -92 369 1 q 97 -22 131 -46 q 415 168 299 61 l 510 131 m 953 164 q 1276 -33 1163 58 l 1199 -92 q 878 111 1083 7 l 953 164 m 779 1015 q 925 836 829 914 q 1099 1015 1038 910 l 779 1015 m 1233 1085 q 1004 782 1165 899 q 1303 679 1125 710 q 1239 589 1268 646 q 918 724 1047 632 q 644 618 800 658 l 649 615 q 447 486 547 538 l 715 492 q 894 593 821 547 l 965 521 q 474 290 733 388 l 1033 319 q 928 397 1000 346 l 999 447 q 1276 214 1183 326 l 1203 158 q 1122 243 1179 189 l 767 224 l 767 6 q 711 -87 767 -68 q 501 -103 668 -103 q 463 -12 490 -57 q 636 -15 544 -15 q 664 7 664 -14 l 664 217 q 181 175 228 192 q 151 272 169 228 q 329 322 208 278 q 538 407 424 356 q 281 386 313 397 q 251 479 275 425 q 335 514 292 486 q 567 674 446 561 l 583 661 q 560 696 575 678 q 840 786 719 726 q 686 1015 739 888 l 610 1015 l 610 1106 l 1154 1106 l 1174 1110 l 1233 1085 z "},"而":{"ha":1389,"x_min":79,"x_max":1315,"o":"m 740 986 q 676 785 714 893 l 1244 785 l 1244 24 q 1192 -81 1244 -58 q 981 -99 1147 -99 q 944 -3 971 -47 q 1114 -3 1056 -7 q 1142 25 1142 -1 l 1142 688 l 906 688 l 906 -61 l 804 -61 l 804 688 l 575 688 l 575 -61 l 474 -61 l 474 688 l 254 688 l 254 -107 l 150 -107 l 150 785 l 568 785 q 617 986 597 882 l 79 986 l 79 1089 l 1315 1089 l 1315 986 l 740 986 z "},"保":{"ha":1389,"x_min":36,"x_max":1357,"o":"m 483 1129 q 342 840 418 968 l 342 -103 l 243 -103 l 243 689 q 94 511 178 597 q 36 611 60 579 q 386 1158 261 826 l 483 1129 m 626 750 l 1142 750 l 1142 1004 l 626 1004 l 626 750 m 992 392 q 1357 33 1144 149 q 1283 -49 1318 1 q 932 328 1085 79 l 932 -107 l 829 -107 l 829 324 q 458 -46 672 78 q 386 36 418 10 q 769 392 617 150 l 426 392 l 426 486 l 829 486 l 829 658 l 529 658 l 529 1097 l 1244 1097 l 1244 658 l 932 658 l 932 486 l 1321 486 l 1321 392 l 992 392 z "},"住":{"ha":1389,"x_min":56,"x_max":1331,"o":"m 875 904 q 761 1133 844 1004 l 854 1168 q 975 943 943 1035 l 875 904 m 497 1126 q 356 829 447 992 l 356 -104 l 253 -104 l 253 668 q 115 503 192 582 q 56 606 90 564 q 399 1157 274 817 l 497 1126 m 1331 39 l 1331 -60 l 438 -60 l 438 39 l 839 39 l 839 390 l 519 390 l 519 488 l 839 488 l 839 793 l 474 793 l 474 892 l 1311 892 l 1311 793 l 942 793 l 942 488 l 1269 488 l 1269 390 l 942 390 l 942 39 l 1331 39 z "}}}
